<svg version="1" xmlns="http://www.w3.org/2000/svg" width="1106.667" height="1106.667" viewBox="0 0 830.000000 830.000000"><path d="M296.2 26.7c-28.1 28.1-49.1 51-72 78.6C126.6 222.4 63.2 344.5 52.9 435c-1.5 13.1-.6 53 1.6 68.5 10.3 74.7 36.2 135.6 81.9 193 10.3 12.8 40.2 42.8 53 53.1 48.2 38.5 100.3 62.9 158.6 74.3 25.1 4.9 33 5.5 67 5.5s41.9-.6 67-5.5c58.3-11.4 110.4-35.8 158.6-74.3 12.8-10.3 42.7-40.3 53-53.1 30.6-38.4 52.3-78.6 66.5-123.3 7.3-22.8 11.7-43 15.4-69.7 2.1-15.4 3.1-55.6 1.6-67-5.5-41.5-21.5-88.9-48.6-144-35.2-71.5-77.7-133-129.7-187.7-7.7-8.2-15.9-16.4-18.4-18.4l-4.4-3.6L563.3 95c-23 22.2-50.2 51.4-74 79.6l-4.2 4.9-1.7-2.5c-20.2-28.2-55.7-71.1-86.5-104.5C378.4 52.4 325.7 0 324.1 0c-.6 0-13.1 12-27.9 26.7zM350.3 138c31.3 34.6 50.3 58.7 96.2 122 18.6 25.6 34.1 46.9 34.5 47.3.4.5 16.3-18.2 35.3-41.5 31.8-39 41.3-50.4 53.8-64.6l4.5-5.3 12.5 15.8c48.5 61.3 76.4 105.3 93.4 147.7 22.7 56.6 25.3 115.8 8 179.2-9.5 34.5-27.3 70.6-49.3 99.6-3.6 4.8-6.7 8.7-6.8 8.5-.2-.2.8-3.9 2.2-8.2 10.1-32.3 14.7-67.4 12.4-94-4.4-50.4-23.6-89.7-62.1-127.1-14.2-13.8-24.7-22-26.4-20.8-.7.5-19.2 21.1-41.1 45.9-21.8 24.7-40 45.1-40.4 45.3-.4.1-2.4-2.3-4.5-5.5-12.2-18.4-58.1-76.5-123-155.5L336.6 311l-4.5 2.6c-10.2 5.9-30.2 19.5-39.7 27.1-35.6 28.5-61.7 63.5-76.9 103.3-4.7 12.3-10.8 36.2-13.1 51.5-2.3 15-2.6 57.4-.6 73.5 4.3 34.1 12.7 67.5 24.7 98.5 2.5 6.5 4.4 12 4.2 12.2-.8.7-17.4-14.6-25.9-23.8-41.5-45.1-64.8-97.1-72.4-160.9-2.4-20-2.4-50.4-.1-63 6-32.1 18.2-66.1 38.7-106.9 33.5-67.1 81.2-135 142.4-203l11.1-12.3 5.9 6.3c3.2 3.5 12.2 13.4 19.9 21.9z"/></svg>