<svg xmlns="http://www.w3.org/2000/svg" aria-hidden="true" class="svg-inline--fa fa-layer-plus fa-w-16 fa-3x" data-icon="layer-plus" data-prefix="fas" viewBox="0 0 512 512"><path fill="currentColor" d="M304 144h64v64a16 16 0 0 0 16 16h32a16 16 0 0 0 16-16v-64h64a16 16 0 0 0 16-16V96a16 16 0 0 0-16-16h-64V16a16 16 0 0 0-16-16h-32a16 16 0 0 0-16 16v64h-64a16 16 0 0 0-16 16v32a16 16 0 0 0 16 16zm196 220l-59-26-161 73a57 57 0 0 1-48 0L71 338l-59 26c-16 8-16 33 0 40l233 106a26 26 0 0 0 22 0l233-106c16-7 16-32 0-40zM12 276l233 105a26 26 0 0 0 22 0l181-82v-18a174 174 0 0 1-222-142L12 236c-16 7-16 32 0 40z"/></svg>