<svg xmlns="http://www.w3.org/2000/svg" aria-hidden="true" class="svg-inline--fa fa-cauldron fa-w-14 fa-3x" data-icon="cauldron" data-prefix="fas" viewBox="0 0 448 512"><path fill="currentColor" d="M448 212v-40c0-7-6-12-14-12H14c-8 0-14 5-14 12v40c0 7 6 12 14 12h20C12 263 0 305 0 346c0 39 12 70 32 95v47a24 24 0 0 0 48 0v-7c39 21 89 31 144 31s105-10 144-31v7a24 24 0 0 0 48 0v-47c20-25 32-56 32-95 0-41-12-83-34-122h20c8 0 14-5 14-12zM160 64a32 32 0 1 0 0-64 32 32 0 0 0 0 64zm112 64a48 48 0 1 0 0-96 48 48 0 0 0 0 96z"/></svg>