<svg xmlns="http://www.w3.org/2000/svg" xmlns:xlink="http://www.w3.org/1999/xlink" width="371" height="107"><defs><path id="a" d="M0 .22h370.78v117.53H0z"/><path id="c" d="M.11.03h36.36v48.09H.11z"/><path id="e" d="M.02.03h40.29v52.03H.02z"/><path id="g" d="M.21.03h43.93v55.98H.21z"/><path id="i" d="M.21.03h43.93v59.93H.21z"/><path id="k" d="M.21.03h43.93V63.9H.21z"/><path id="m" d="M.21.03h43.93v67.82H.21z"/><path id="o" d="M.21.03h43.93V71.8H.21z"/><path id="q" d="M.21.03h43.93v75.71H.21z"/><path id="s" d="M.21.03h43.93v79.66H.21z"/><path id="u" d="M.21.36h43.93v80.58H.21z"/><path id="w" d="M.21.07h43.93v76.67H.21z"/><path id="y" d="M.21.15h43.93v72.73H.21z"/><path id="A" d="M.21.24h40.56v68.79H.21z"/><path id="C" d="M.21.33h36.64v64.84H.21z"/><path id="E" d="M.21.03h32.72v60.89H.21z"/><path id="G" d="M.11.03h36.36v60.89H.11z"/><path id="I" d="M.02.33h40.29v64.84H.02z"/><path id="K" d="M.21.24h43.93v68.79H.21z"/><path id="M" d="M.21.15h43.93v72.73H.21z"/><path id="O" d="M.21.07h43.93v76.67H.21z"/><path id="Q" d="M.21.36h43.93v80.58H.21z"/><path id="S" d="M.21.03h43.93v79.66H.21z"/><path id="U" d="M.21.03h43.93v75.71H.21z"/><path id="W" d="M.21.03h43.93V71.8H.21z"/><path id="Y" d="M.21.03h43.93v67.82H.21z"/><path id="aa" d="M.21.03h43.93V63.9H.21z"/><path id="ac" d="M.21.03h43.93v59.93H.21z"/><path id="ae" d="M.21.03h40.56v55.98H.21z"/><path id="ag" d="M.21.03h36.64v52.03H.21z"/><path id="ai" d="M.21.03h32.72v48.09H.21z"/><path id="ak" d="M0 137h134.7V.31H0z"/></defs><g fill="none" fill-rule="evenodd"><g transform="matrix(-1 0 0 1 371 -11)"><mask id="b" fill="#fff"><use xlink:href="#a"/></mask><path fill="#3A2655" d="M289.51 37.48c-11.26 4.34-22.22 7.44-33.74 11.1-18.4 5.84-38.7.88-56.29-6.93-17.58-7.8-32.6-13.96-50.82-20.29-18.22-6.33-39.77-7.79-56 2.36-21.72 13.57-28.37 43.9-51.83 54.45-12.68 5.7-29.7 5.38-37.32 16.66-4.02 5.96-4.03 13.77-1.76 20.53 2.26 6.75 6.53 12.7 10.75 18.53h338.53c21.07-17.62 26.3-50.28 11.7-73.14-14.6-22.87-47.28-33.26-73.22-23.27z" mask="url(#b)"/></g><path fill="#917C8D" d="M44 104h20V6H44z"/><path fill="#5E485B" d="M44 6v98h20V88.06l-13.5-18.1V6z"/><path fill="#FFEBE0" d="M66 104h56V6H66z"/><path fill="#611D34" fill-rule="nonzero" d="M64 106h58V6H64v100zm2.25-97.7h53.5v95.4h-53.5V8.3z"/><path fill="#611D34" fill-rule="nonzero" d="M84 10h3V9h-3zM83 11h5v-1h-5z"/><path fill="#C2AA9B" d="M121 6h-17.99v90.8H83.23L83 104h38z"/><path fill="#611D34" fill-rule="nonzero" d="M102.9 96.51H83.3L83 106h40V6h-20.1v90.51zm17.85-88.2v95.38H85.32l.16-4.87h19.66V8.3h15.61zM68 25v5h1v-5zM69 86v-4h-1v4zM69 81v-4h-1v4z"/><path fill="#611D34" fill-rule="nonzero" d="M118 86v-4h-1v4zM120 86v-5h-1v5zM68 47v4h1v-4zM118 25v4h1v-4zM104 100h-3v1h3zM103 101h-4v1h4zM84 101h4v-1h-4zM84 102h2v-1h-2z"/><path fill="#5E485B" d="M71 97h44V14H71z"/><g transform="translate(78.66 14)"><mask id="d" fill="#fff"><use xlink:href="#c"/></mask><path stroke="#917C8D" stroke-width="3" d="M.1-32.46l80.04 80.58" mask="url(#d)"/></g><g transform="translate(74.83 14)"><mask id="f" fill="#fff"><use xlink:href="#e"/></mask><path stroke="#917C8D" stroke-width="3" d="M.02-28.51l80.04 80.57" mask="url(#f)"/></g><g transform="translate(71 14)"><mask id="h" fill="#fff"><use xlink:href="#g"/></mask><path stroke="#917C8D" stroke-width="3" d="M-.07-24.56L79.97 56" mask="url(#h)"/></g><g transform="translate(71 14)"><mask id="j" fill="#fff"><use xlink:href="#i"/></mask><path stroke="#917C8D" stroke-width="3" d="M-3.99-20.62l80.04 80.58" mask="url(#j)"/></g><g transform="translate(71 14)"><mask id="l" fill="#fff"><use xlink:href="#k"/></mask><path stroke="#917C8D" stroke-width="3" d="M-7.9-16.67L72.12 63.9" mask="url(#l)"/></g><g transform="translate(71 14)"><mask id="n" fill="#fff"><use xlink:href="#m"/></mask><path stroke="#917C8D" stroke-width="3" d="M-11.83-12.72l80.04 80.57" mask="url(#n)"/></g><g transform="translate(71 14)"><mask id="p" fill="#fff"><use xlink:href="#o"/></mask><path stroke="#917C8D" stroke-width="3" d="M-15.75-8.78L64.29 71.8" mask="url(#p)"/></g><g transform="translate(71 14)"><mask id="r" fill="#fff"><use xlink:href="#q"/></mask><path stroke="#917C8D" stroke-width="3" d="M-19.67-4.83l80.04 80.57" mask="url(#r)"/></g><g transform="translate(71 14)"><mask id="t" fill="#fff"><use xlink:href="#s"/></mask><path stroke="#917C8D" stroke-width="3" d="M-23.59-.88l80.04 80.57" mask="url(#t)"/></g><g transform="translate(71 16.7)"><mask id="v" fill="#fff"><use xlink:href="#u"/></mask><path stroke="#917C8D" stroke-width="3" d="M-27.51.36l80.04 80.58" mask="url(#v)"/></g><g transform="translate(71 20.94)"><mask id="x" fill="#fff"><use xlink:href="#w"/></mask><path stroke="#917C8D" stroke-width="3" d="M-31.43.07L48.6 80.64" mask="url(#x)"/></g><g transform="translate(71 24.8)"><mask id="z" fill="#fff"><use xlink:href="#y"/></mask><path stroke="#917C8D" stroke-width="3" d="M-35.35.15l80.04 80.58" mask="url(#z)"/></g><g transform="translate(71 28.66)"><mask id="B" fill="#fff"><use xlink:href="#A"/></mask><path stroke="#917C8D" stroke-width="3" d="M-39.27.24l80.04 80.58" mask="url(#B)"/></g><g transform="translate(71 32.52)"><mask id="D" fill="#fff"><use xlink:href="#C"/></mask><path stroke="#917C8D" stroke-width="3" d="M-43.2.33L36.86 80.9" mask="url(#D)"/></g><g transform="translate(71 36.76)"><mask id="F" fill="#fff"><use xlink:href="#E"/></mask><path stroke="#917C8D" stroke-width="3" d="M-47.11.03l80.04 80.58" mask="url(#F)"/></g><g transform="translate(78.66 36.76)"><mask id="H" fill="#fff"><use xlink:href="#G"/></mask><path stroke="#917C8D" stroke-width="3" d="M80.14.03L.11 80.61" mask="url(#H)"/></g><g transform="translate(74.83 32.52)"><mask id="J" fill="#fff"><use xlink:href="#I"/></mask><path stroke="#917C8D" stroke-width="3" d="M80.06.33L.02 80.9" mask="url(#J)"/></g><g transform="translate(71 28.66)"><mask id="L" fill="#fff"><use xlink:href="#K"/></mask><path stroke="#917C8D" stroke-width="3" d="M79.97.24L-.07 80.82" mask="url(#L)"/></g><g transform="translate(71 24.8)"><mask id="N" fill="#fff"><use xlink:href="#M"/></mask><path stroke="#917C8D" stroke-width="3" d="M76.05.15L-4 80.73" mask="url(#N)"/></g><g transform="translate(71 20.94)"><mask id="P" fill="#fff"><use xlink:href="#O"/></mask><path stroke="#917C8D" stroke-width="3" d="M72.13.07L-7.91 80.64" mask="url(#P)"/></g><g transform="translate(71 16.7)"><mask id="R" fill="#fff"><use xlink:href="#Q"/></mask><path stroke="#917C8D" stroke-width="3" d="M68.2.36l-80.03 80.58" mask="url(#R)"/></g><g transform="translate(71 14)"><mask id="T" fill="#fff"><use xlink:href="#S"/></mask><path stroke="#917C8D" stroke-width="3" d="M64.29-.88l-80.04 80.57" mask="url(#T)"/></g><g transform="translate(71 14)"><mask id="V" fill="#fff"><use xlink:href="#U"/></mask><path stroke="#917C8D" stroke-width="3" d="M60.37-4.83l-80.04 80.57" mask="url(#V)"/></g><g transform="translate(71 14)"><mask id="X" fill="#fff"><use xlink:href="#W"/></mask><path stroke="#917C8D" stroke-width="3" d="M56.45-8.78L-23.6 71.8" mask="url(#X)"/></g><g transform="translate(71 14)"><mask id="Z" fill="#fff"><use xlink:href="#Y"/></mask><path stroke="#917C8D" stroke-width="3" d="M52.53-12.72l-80.04 80.57" mask="url(#Z)"/></g><g transform="translate(71 14)"><mask id="ab" fill="#fff"><use xlink:href="#aa"/></mask><path stroke="#917C8D" stroke-width="3" d="M48.6-16.67L-31.42 63.9" mask="url(#ab)"/></g><g transform="translate(71 14)"><mask id="ad" fill="#fff"><use xlink:href="#ac"/></mask><path stroke="#917C8D" stroke-width="3" d="M44.69-20.62l-80.04 80.58" mask="url(#ad)"/></g><g transform="translate(71 14)"><mask id="af" fill="#fff"><use xlink:href="#ae"/></mask><path stroke="#917C8D" stroke-width="3" d="M40.77-24.56L-39.27 56" mask="url(#af)"/></g><g transform="translate(71 14)"><mask id="ah" fill="#fff"><use xlink:href="#ag"/></mask><path stroke="#917C8D" stroke-width="3" d="M36.85-28.51L-43.2 52.06" mask="url(#ah)"/></g><g transform="translate(71 14)"><mask id="aj" fill="#fff"><use xlink:href="#ai"/></mask><path stroke="#917C8D" stroke-width="3" d="M32.93-32.46l-80.04 80.58" mask="url(#aj)"/></g><g fill="#611D34"><path d="M71.21 14.03v2.63h41.97v43.12a39.85 39.85 0 0 1-25.93 37.2h28.43V14.02H71.21z"/><path d="M94.58 14.16v22.87l6.45-10.4 6.44 10.4V14.16z"/></g><path fill="#611D34" fill-rule="nonzero" d="M70 98h46V12H70v86zm2.29-83.68h41.42v81.36H72.3V14.32z"/><g transform="translate(24 -20)"><path fill="#7B538F" d="M40.88 44.76V26.32h18.23v9.45a8.94 8.94 0 0 0-8.89 8.99h-9.34z"/><path fill="#611D34" fill-rule="nonzero" d="M51.36 44.76v1.15H39.74V25.16h20.5v11.76h-1.13a7.8 7.8 0 0 0-7.75 7.84zm6.6-10.08v-7.2H42.04V43.6h7.11a10.1 10.1 0 0 1 8.83-8.92z"/><path fill="#A988BA" d="M48.12 30.9c1.5 0 2.7 1.22 2.7 2.73.01 1.51-1.2 2.74-2.7 2.74-1.5 0-2.7-1.22-2.7-2.73 0-1.52 1.2-2.74 2.7-2.75z"/><path fill="#611D34" fill-rule="nonzero" d="M48.12 29.74a3.87 3.87 0 0 1 3.85 3.89c0 2.15-1.72 3.9-3.85 3.9a3.87 3.87 0 0 1-3.85-3.9c0-2.14 1.72-3.89 3.85-3.9zm-1.57 3.9c0 .87.7 1.58 1.57 1.58.87 0 1.57-.71 1.57-1.59 0-.87-.7-1.58-1.57-1.58-.87 0-1.57.71-1.57 1.59z"/><path fill="#7B538F" d="M97.44 44.76V26.32H79.2v9.45c4.91 0 8.89 4.02 8.89 8.99h9.34z"/><path fill="#611D34" fill-rule="nonzero" d="M86.96 45.91h11.62V25.16h-20.5v11.76h1.13a7.8 7.8 0 0 1 7.75 7.84v1.15zm-6.6-11.23v-7.2H96.3V43.6h-7.12a10.1 10.1 0 0 0-8.83-8.92z"/><path fill="#A988BA" d="M90.2 30.9c-1.49 0-2.7 1.22-2.7 2.73s1.2 2.74 2.7 2.74c1.5 0 2.7-1.22 2.71-2.73 0-1.52-1.2-2.74-2.7-2.75z"/><path fill="#611D34" fill-rule="nonzero" d="M90.2 29.74a3.87 3.87 0 0 0-3.85 3.89c0 2.15 1.72 3.9 3.85 3.9a3.87 3.87 0 0 0 3.85-3.89c0-2.15-1.72-3.9-3.84-3.9zm0 5.48c-.86 0-1.56-.71-1.56-1.59 0-.87.7-1.58 1.57-1.58.86 0 1.56.71 1.56 1.59 0 .87-.7 1.58-1.57 1.58z"/><mask id="al" fill="#fff"><use xlink:href="#ak"/></mask><path fill="#9A79AB" d="M21.32 36.71h19.43V26.32H21.32z" mask="url(#al)"/><path fill="#CBB3D3" d="M21.32 36.71h6.05V26.32h-6.05z" mask="url(#al)"/><path fill="#611D34" fill-rule="nonzero" d="M20.18 37.87h21.7v-12.7h-21.7v12.7zm2.28-2.31v-8.09h17.15v8.09H22.46zM40.75 44.52H21.32v2.31h19.43zM40.75 50.74H21.32v2.3h19.43zM40.75 104.56H21.32v2.31h19.43z" mask="url(#al)"/><path fill="#9A79AB" d="M21.32 124.15h19.43v-10.39H21.32z" mask="url(#al)"/><path fill="#611D34" fill-rule="nonzero" d="M20.18 125.3h21.7v-12.7h-21.7v12.7zm2.28-10.39h17.15V123H22.46v-8.09z" mask="url(#al)"/><path fill="#EA5477" d="M82.57 22.92h-32a3.04 3.04 0 0 0-3.03 3.03v.37h24.43c.54 0 .97.44.97.98v23.9l6.33-10.49 6.32 10.47v-25.2a3.04 3.04 0 0 0-3.02-3.06" mask="url(#al)"/><path fill="#611D34" fill-rule="nonzero" d="M80.4 36.71v-2.93c0-.64-.5-1.15-1.13-1.15-.63 0-1.14.51-1.14 1.15v2.93c0 .64.5 1.16 1.14 1.16.63 0 1.14-.52 1.14-1.16z" mask="url(#al)"/><path fill="#FFF" d="M77.24 42.79l-4.29 7.1v1.3l4.68-7.75z" mask="url(#al)"/><path fill="#FFF" d="M82.57 22.92h-32c-1.33 0-2.5.88-2.88 2.18.4-.08.73-.37.86-.77h33.4c.9 0 1.62.73 1.62 1.63v21.87l2.03 3.36V25.97a3.04 3.04 0 0 0-3.02-3.05h-.01z" mask="url(#al)"/><path fill="#611D34" fill-rule="nonzero" d="M71.8 27.47V51.2c0 1.17 1.51 1.6 2.11.6l5.36-8.86 5.34 8.85c.6 1 2.12.56 2.12-.6v-25.2a4.19 4.19 0 0 0-4.16-4.22h-32a4.18 4.18 0 0 0-4.18 4.18v.38c0 .64.52 1.15 1.15 1.15H71.8zm8.44 12.64a1.13 1.13 0 0 0-1.95 0l-4.21 6.98V27.3c0-1.17-.94-2.13-2.1-2.13H48.84c.3-.65.96-1.1 1.72-1.09h32c1.03 0 1.88.85 1.88 1.9v21.1l-4.21-6.96z" mask="url(#al)"/><path fill="#7B538F" d="M50.22 105.71h-9.34v18.44h18.23v-9.44a8.94 8.94 0 0 1-8.89-9" mask="url(#al)"/><path fill="#611D34" fill-rule="nonzero" d="M51.36 104.56H39.74v20.75h20.5v-11.76h-1.13a7.8 7.8 0 0 1-7.75-7.84v-1.15zm-2.22 2.3a10.1 10.1 0 0 0 8.83 8.94v7.2H42.03v-16.13h7.11z" mask="url(#al)"/><path fill="#A988BA" d="M45.41 116.83a2.72 2.72 0 0 0 2.71 2.74c1.5 0 2.7-1.22 2.7-2.74a2.72 2.72 0 0 0-2.7-2.74c-1.5 0-2.7 1.23-2.7 2.74z" mask="url(#al)"/><path fill="#611D34" fill-rule="nonzero" d="M44.27 116.83c0 2.16 1.73 3.9 3.85 3.9a3.87 3.87 0 0 0 3.85-3.9c0-2.15-1.72-3.89-3.85-3.89a3.87 3.87 0 0 0-3.85 3.9zm2.28 0c0-.87.7-1.58 1.57-1.58.87 0 1.57.7 1.57 1.58 0 .88-.7 1.59-1.57 1.59-.86 0-1.57-.71-1.57-1.59z" mask="url(#al)"/><path fill="#7B538F" d="M88.1 105.71h9.34v18.44H79.2v-9.44c4.91 0 8.89-4.03 8.89-9" mask="url(#al)"/><path fill="#611D34" fill-rule="nonzero" d="M86.96 105.71v-1.15h11.62v20.75h-20.5v-11.76h1.13a7.8 7.8 0 0 0 7.75-7.84zm-6.6 10.09v7.2H96.3v-16.13h-7.12a10.1 10.1 0 0 1-8.83 8.93z" mask="url(#al)"/><path fill="#A988BA" d="M92.91 116.83a2.72 2.72 0 0 1-2.7 2.74c-1.5 0-2.71-1.22-2.71-2.74a2.72 2.72 0 0 1 2.7-2.74c1.5 0 2.71 1.23 2.71 2.74" mask="url(#al)"/><path fill="#611D34" fill-rule="nonzero" d="M94.05 116.83c0 2.16-1.72 3.9-3.85 3.9a3.87 3.87 0 0 1-3.85-3.9c0-2.15 1.73-3.89 3.85-3.89a3.87 3.87 0 0 1 3.85 3.9zm-2.28 0c0-.87-.7-1.58-1.57-1.58-.86 0-1.56.7-1.56 1.58 0 .88.7 1.59 1.56 1.59.87 0 1.57-.71 1.57-1.59zM19.8 125.31h22.1V25.16H19.8v100.15zm2.28-2.3V27.46h17.53V123H22.08z" mask="url(#al)"/><path fill="#FFEBE0" d="M65.4 59.06a16.33 16.33 0 0 1 19.66 12.29 16.54 16.54 0 0 1-12.15 19.89 16.33 16.33 0 0 1-19.65-12.3 16.54 16.54 0 0 1 12.15-19.88" mask="url(#al)"/><path fill="#611D34" fill-rule="nonzero" d="M65.17 58.05A17.36 17.36 0 0 1 86.06 71.1a17.58 17.58 0 0 1-12.91 21.14 17.36 17.36 0 0 1-20.89-13.07 17.58 17.58 0 0 1 12.91-21.13zm.47 2.02A15.5 15.5 0 0 0 54.26 78.7a15.3 15.3 0 0 0 18.42 11.52 15.5 15.5 0 0 0 11.38-18.64 15.3 15.3 0 0 0-18.42-11.52z" mask="url(#al)"/><path fill="#FE9D09" d="M67.14 62.54A12.63 12.63 0 0 1 81.61 73.1 12.74 12.74 0 0 1 71.2 87.73a12.63 12.63 0 0 1-14.47-10.55 12.74 12.74 0 0 1 10.42-14.64" mask="url(#al)"/><path fill="#611D34" fill-rule="nonzero" d="M67.05 61.97A13.2 13.2 0 0 1 82.18 73a13.32 13.32 0 0 1-10.9 15.3 13.2 13.2 0 0 1-15.13-11.03 13.32 13.32 0 0 1 10.9-15.3zm.19 1.14a12.17 12.17 0 0 0-9.96 13.98A12.06 12.06 0 0 0 71.1 87.16a12.17 12.17 0 0 0 9.96-13.97A12.06 12.06 0 0 0 67.24 63.1z" mask="url(#al)"/><path fill="#EA5477" d="M73.66 81.16h14.56L76.44 72.5l4.5-14.01-11.78 8.64-11.73-8.49 4.45 13.86-11.78 8.66h14.56l4.5 14.02z" mask="url(#al)"/><path fill="#611D34" fill-rule="nonzero" d="M91.38 82.2L77.65 72.1l5.24-16.33-13.73 10.08-13.67-9.9 5.19 16.15-13.74 10.1h16.98l5.24 16.34 5.25-16.34h16.97zM69.16 91.8l-3.75-11.69H53.26l9.83-7.23-3.72-11.57 9.8 7.09 9.82-7.2-3.75 11.69 9.82 7.22H72.91l-3.75 11.7z" mask="url(#al)"/><path fill="#FE9D09" d="M64.2 69.75a7 7 0 0 1 9.98 0 7.2 7.2 0 0 1 0 10.1 7 7 0 0 1-9.98 0 7.2 7.2 0 0 1 0-10.1" mask="url(#al)"/><path fill="#611D34" fill-rule="nonzero" d="M63.57 69.11a7.88 7.88 0 0 1 11.24 0 8.11 8.11 0 0 1 0 11.37 7.88 7.88 0 0 1-11.24 0 8.11 8.11 0 0 1 0-11.37zm1.26 1.27a6.3 6.3 0 0 0 0 8.83 6.12 6.12 0 0 0 8.72 0 6.3 6.3 0 0 0 0-8.83 6.12 6.12 0 0 0-8.72 0z" mask="url(#al)"/><path fill="#FFEBE0" d="M69.19 71.28c3.85 0 6.97 1.58 6.97 3.52s-3.12 3.52-6.97 3.52c-3.85 0-6.97-1.58-6.97-3.52s3.12-3.52 6.97-3.52" mask="url(#al)"/><path fill="#611D34" fill-rule="nonzero" d="M69.19 70.38c4.27 0 7.85 1.81 7.85 4.42 0 2.6-3.58 4.42-7.85 4.42-4.28 0-7.86-1.81-7.86-4.42s3.58-4.42 7.86-4.42zm0 1.8c-3.42 0-6.08 1.34-6.08 2.62 0 1.27 2.66 2.62 6.08 2.62s6.08-1.35 6.08-2.62c0-1.28-2.66-2.62-6.08-2.62z" mask="url(#al)"/><path fill="#611D34" d="M70.91 74.8c0-1.38-.63-2.67-1.72-3.5a4.41 4.41 0 0 0 0 7 4.4 4.4 0 0 0 1.72-3.5" mask="url(#al)"/><path fill="#FFF" d="M107.94 36.61l-5.87 2 5.87 2.01 1.98 5.94 1.98-5.94 5.87-2.01-5.87-2-1.98-5.94zM115.53 24.43l-4.08 1.39 4.08 1.39 1.37 4.12 1.38-4.12 4.06-1.39-4.06-1.39-1.38-4.12zM92.83 58.67l4.19 1.44-4.19 1.43-1.41 4.24L90 61.54l-4.19-1.43L90 58.67l1.42-4.24z" mask="url(#al)"/></g><g fill-rule="nonzero" transform="translate(7 36)"><path fill="#8F4742" stroke="#979797" d="M32.92 1h-9.84c-1.4 0-2.7.73-3.45 1.94a4.23 4.23 0 0 0-.24 4L24.96 19h6.08L36.6 6.94c.6-1.3.5-2.8-.25-4A4.07 4.07 0 0 0 32.92 1z"/><path fill="#FFF" d="M24.13 3.52h9.85c1.15 0 2.25.51 3.02 1.42A4.18 4.18 0 0 0 32.93 1h-9.85c-1.4 0-2.7.76-3.45 2.01a4.54 4.54 0 0 0-.24 4.16l.8 1.83c-.34-1.3-.09-2.7.69-3.77a4.01 4.01 0 0 1 3.25-1.7z"/><path fill="#611D34" d="M23.13 0c-1.76 0-3.4.92-4.33 2.43a5.3 5.3 0 0 0-.31 5.02l5.5 11.91.3.64h7.41l5.81-12.55a5.3 5.3 0 0 0-.3-5.02A5.12 5.12 0 0 0 32.86 0h-9.74zm2.55 17.77L20.47 6.5a3.04 3.04 0 0 1 .18-2.88 2.94 2.94 0 0 1 2.48-1.4h9.74c1 0 1.94.53 2.48 1.4.54.86.61 1.95.18 2.88l-5.22 11.27h-4.63z"/><path fill="#611D34" d="M24 1v4h2V1zM30 1v4h2V1z"/><path fill="#F2D5C6" d="M36.92 31.82a14.96 14.96 0 0 1-2.05-7.56V16H21.12v8.26c0 2.65-.71 5.26-2.05 7.56L1.77 61.44a5.66 5.66 0 0 0 0 5.7 5.77 5.77 0 0 0 5 2.86h42.47a5.77 5.77 0 0 0 4.99-2.85 5.66 5.66 0 0 0 0-5.71l-17.3-29.62z"/><path fill="#C2AA9B" d="M54.24 61.44L37.17 31.82a15.12 15.12 0 0 1-2.03-7.56V16H29c0 11.48.16 15.99 4.19 22.97l12.95 22.47A5.72 5.72 0 0 1 41.22 70h8.1a5.72 5.72 0 0 0 4.92-8.56z"/><path fill="#EA5477" d="M48.94 63.32L38.32 45c-.68.6-1.88 1.2-3.97 1.39-2.1.2-3.86-.67-5.83-1.47-1.87-.81-4.31-4.13-6.86-3.9-2.55.23-3.68 1.84-5.14 4.2L6.06 63.31a.45.45 0 0 0 .4.68h42.09a.45.45 0 0 0 .39-.68z"/><path fill="#824C5F" d="M49.8 62.68L39.21 44.51a1.1 1.1 0 0 0-1.67-.28c-.64.56-1.7.96-3.34 1.11-.96.09-1.89-.08-3.09-.5a23.96 23.96 0 0 1-1.36-.54l-.24-.1a146.67 146.67 0 0 0-.6-.24c-.44-.2-.56-.29-2.28-1.69-2.07-1.68-3.4-2.4-5.05-2.25-2.65.24-3.94 1.42-5.95 4.67L5.2 62.7A1.54 1.54 0 0 0 6.55 65h41.9a1.54 1.54 0 1 0 1.34-2.31zm-42.12.13l9.85-17c1.66-2.68 2.5-3.45 4.26-3.61.86-.08 1.83.45 3.46 1.77 2 1.62 2.07 1.68 2.82 2a110.71 110.71 0 0 1 1.33.55c.37.15.68.27.98.37a9.5 9.5 0 0 0 7.52-.28l9.42 16.2H7.68z"/><path fill="#FFEBE0" d="M35.47 51.21a3.5 3.5 0 0 0-2.24 4.54l1.5 3.92c.34.88 1.03 1.6 1.93 2 .9.4 1.93.44 2.87.12.93-.32 1.7-.98 2.12-1.83.42-.85.46-1.83.13-2.71l-1.5-3.91a3.62 3.62 0 0 0-1.94-2c-.9-.4-1.93-.45-2.87-.13z" opacity=".4" style="mix-blend-mode:screen"/><path fill="#824C5F" d="M26 43l1.23 1.8 1.96-1.27.03-.02c3.5-2.46 6.66-1.48 8.8 2.49L40 45c-2.74-5.07-7.4-6.52-12.06-3.26L26 43z"/><circle cx="23.5" cy="49.5" r="1.5" fill="#824C5F"/><path fill="#824C5F" d="M32 54.5a2.5 2.5 0 1 0 5 0 2.5 2.5 0 0 0-5 0zM23 59.5a1.5 1.5 0 1 0 3 0 1.5 1.5 0 0 0-3 0z"/><path fill="#FFF" d="M4.7 61.44l17.26-29.62A15 15 0 0 0 24 24.26V16h-2.91v8.26c0 2.65-.7 5.26-2.04 7.56L1.77 61.44a5.67 5.67 0 0 0 0 5.7A5.76 5.76 0 0 0 6.75 70h2.91a5.76 5.76 0 0 1-4.97-2.86 5.67 5.67 0 0 1 .01-5.7z"/><path fill="#F2D5C6" d="M28.63 31.75c.47-.8.05-9.89.37-10.75h-3.56c-.3.86.1 9.96-.37 10.75l-12.3 29.67a5.66 5.66 0 0 0 0 5.72A5.8 5.8 0 0 0 17.78 70h7.1a5.8 5.8 0 0 1-5-2.87 5.65 5.65 0 0 1 .01-5.7l8.74-29.68z" opacity=".4" style="mix-blend-mode:screen"/><path fill="#611D34" d="M20.11 23H36.9c.61 0 1.11-.45 1.11-1s-.5-1-1.11-1H20.1c-.61 0-1.11.45-1.11 1s.5 1 1.11 1z"/><rect width="18" height="6" x="19" y="9" fill="#FFEBE0" rx="3"/><path fill="#8F4742" d="M21.28 9.05l3.37 7.7a3.56 3.56 0 0 0 3.22 2.2h1.37c1.37 0 2.62-.87 3.21-2.2l3.37-7.7H21.28z" opacity=".6"/><path fill="#8F4742" d="M34.74 9H28c.6 0 1.18.25 1.6.68.43.44.67 1.03.66 1.65v1.34c0 .62-.23 1.21-.66 1.65-.42.43-1 .68-1.6.68h6.74c.6 0 1.17-.25 1.6-.68.42-.44.66-1.03.66-1.65v-1.34c0-.62-.24-1.21-.66-1.65-.43-.43-1-.68-1.6-.68z" opacity=".4" style="mix-blend-mode:multiply"/><path fill="#FFF" d="M34.62 9H21.38A2.35 2.35 0 0 0 19 11.31v1.33c0 .12.02.24.04.36a2.36 2.36 0 0 1 2.34-1.95h13.24c1.17 0 2.16.83 2.34 1.95.02-.12.04-.24.04-.36v-1.33A2.35 2.35 0 0 0 34.62 9z"/><path fill="#FFF" d="M34.62 9H21.38C20.07 9 19 10.2 19 11.67V12c0-1.48 1.07-1.48 2.38-1.48h13.24c1.31 0 2.38 0 2.38 1.48v-.33C37 10.2 35.93 9 34.62 9z"/><path fill="#FFF" d="M24 9h2v6h-2z"/><path fill="#C2AA9B" d="M35.26 13.66H20.75A2.6 2.6 0 0 1 19 13c.07 1.12 1.12 2 2.38 2h13.24c1.26 0 2.3-.88 2.38-2a2.6 2.6 0 0 1-1.74.66z"/><path fill="#611D34" d="M37.85 31.3a13.82 13.82 0 0 1-1.9-6.97V15H20.04v9.33c0 2.45-.65 4.86-1.89 6.98L.92 60.8a6.73 6.73 0 0 0 0 6.8A6.86 6.86 0 0 0 6.85 71h42.3c2.45 0 4.71-1.3 5.93-3.4a6.73 6.73 0 0 0 0-6.78L37.85 31.3zm-15.6-14.1h11.48v7.13a16 16 0 0 0 2.2 8.08l17.23 29.51a4.55 4.55 0 0 1 0 4.59 4.63 4.63 0 0 1-4 2.29H6.84a4.63 4.63 0 0 1-4.01-2.3 4.55 4.55 0 0 1 0-4.58l17.23-29.51a16 16 0 0 0 2.19-8.08V17.2z"/><path fill="#611D34" d="M21.46 8h13.08A3.4 3.4 0 0 1 38 11.35v1.3A3.4 3.4 0 0 1 34.54 16H21.46A3.4 3.4 0 0 1 18 12.65v-1.3A3.4 3.4 0 0 1 21.46 8zm0 2.13c-.7 0-1.26.54-1.26 1.22v1.3c0 .68.56 1.22 1.26 1.22h13.08c.7 0 1.26-.54 1.26-1.22v-1.3c0-.68-.56-1.22-1.26-1.22H21.46z"/><path fill="#FFF" d="M41.76 36.18a.33.33 0 0 1 0 .63 5.74 5.74 0 0 0-3.95 3.95.33.33 0 0 1-.62 0 5.74 5.74 0 0 0-3.95-3.95.33.33 0 0 1 0-.63 5.74 5.74 0 0 0 3.95-3.94.33.33 0 0 1 .62 0 5.73 5.73 0 0 0 3.95 3.94zM15.84 53.79a.22.22 0 0 1 0 .42 3.82 3.82 0 0 0-2.63 2.63.22.22 0 0 1-.42 0 3.82 3.82 0 0 0-2.63-2.63.22.22 0 0 1 0-.42 3.82 3.82 0 0 0 2.63-2.63.22.22 0 0 1 .42 0 3.82 3.82 0 0 0 2.63 2.63zM31.39 49.61L37 51.5l-5.61 1.89L29.5 59l-1.89-5.61L22 51.5l5.61-1.89L29.5 44z"/></g></g></svg>