<svg xmlns="http://www.w3.org/2000/svg" width="73" height="108"><g fill="none" fill-rule="evenodd"><path fill="#9373A3" d="M60.8 70h-5.5a6 6 0 0 0-.3 0c-1.5 1.3-3 0-5 0H45.7c-1.8.4-2.8.7-4.7 0H37.2a5.2 5.2 0 0 0-5.2 5.2v4c.8 3 .2 5.9 0 9.1v.9c.4 2.4 1 5 0 7.3v2.3c0 2.9 2.3 5.2 5.2 5.2h2.3c2.7-.4 5.2-.8 8.1 0H55c2 .2 3.8-1 5.8 0 2.9 0 5.2-2.3 5.2-5.2v-1.9c-.6-2.7-1-5 0-7.6V85v-.7c-1.5-2.7-.3-5.2 0-7.6v-1.5c0-2.9-2.3-5.2-5.2-5.2"/><path fill="#A988BA" d="M33 84c-.2 1.4-.8 2.8-1 4.3l.2.7c.4-1.7 1-3.4.8-5M67 100v-1.7c-.5-1.2-.8-2.3-1-3.3a10 10 0 0 0 1 5M32 99.5c1-1.1 1.1-2.3 1-3.5a4 4 0 0 1-1 2v1.5"/><path fill="#FFEBE0" d="M60.8 70h-5.5-.3c-1.5 1.3-3 0-5 0H45.7c-1.8.4-2.8.7-4.7 0H37.2a5.2 5.2 0 0 0-5.2 5.2V77c0-2.9 2.3-5.2 5.2-5.2H40.9c2 .7 2.9.3 4.7 0H50c1.8 0 3.4 1.3 5 0h5.7c2.8 0 5.1 2.2 5.2 5v-1.6c0-2.9-2.3-5.2-5.2-5.2"/><path fill="#A988BA" d="M66 83c-.1 1.1 0 2.2 1 3.4v.6-1.6-.6a4 4 0 0 1-1-1.8"/><path fill="#9A79AB" d="M61 97h-5.6-.3c-1.5 1.5-3.1 0-5 0H45.5c-1.8.4-2.7.8-4.7 0H37a5.3 5.3 0 0 0-5 4c.7 2.3 2.7 4 5 4h2.3c2.8-.5 5.4-.8 8.3 0h7.5c2 .2 3.9-1.2 5.9 0 2.3 0 4.3-1.7 5-4-.7-2.3-2.7-4-5-4"/><path fill="#9373A3" d="M67 84.6L65.8 78 63 88.3l3.5 3.7zM32 86.3l1.2 6.7.9-6.2 1.9-5-3.6-2.8zM51 77l1.4-4 1.6 3.7z"/><path fill="#715280" d="M32 98.5l5.7-3.5c0 1.8 1.5 3.3 3.3 3.3l-3.5 5.7c-3 0-5.5-2.5-5.5-5.5M66 98.5L60.3 95c0 1.8-1.5 3.3-3.3 3.3l3.5 5.7c3 0 5.5-2.5 5.5-5.5"/><path fill="#A988BA" d="M32 75.5l5.7 3.5c0-1.8 1.5-3.3 3.3-3.3L37.5 70c-3 0-5.5 2.4-5.5 5.5M66 75.5L60.3 79c0-1.8-1.5-3.3-3.3-3.3l3.5-5.7c3 0 5.5 2.4 5.5 5.5"/><path fill="#A988BA" d="M61 93V95.7c0 1.8-1.5 3.2-3.3 3.2h-4.5a5.4 5.4 0 0 0-4.5 0h-3.5l-.9-1.5-1.2 1.5h-3.3a3.2 3.2 0 0 1-2.8-3.2v-5.3V84.7c0-1.3.4-2.6 0-4v-2.5c0-1.8 1.4-3.2 3.2-3.2H45.5c1.6.3 3.2.6 5 0h7.3c1.7 0 3.1 1.4 3.1 3.2v1.5c-.5 1.4-.2 2.7 0 4.3v1a7 7 0 0 0-.2 3.7c.4 1.2.4 2.8.2 4.2"/><path fill="#9373A3" d="M37.5 83l2.5 4-3-1.3zM45.8 74l2.2 4-4-2.8zM49.3 75l1.7 2-3-1.4zM58.3 97.7a1 1 0 1 0 1.4-1.4 1 1 0 0 0-1.4 1.4M55 96.8a1 1 0 1 0 2 .4 1 1 0 0 0-2-.4M41.2 79.5c.2.5.9.6 1.3.3a1 1 0 1 0-1.3-.3"/><path fill="#9373A3" d="M45 73.3a1 1 0 1 0 2-.6 1 1 0 0 0-2 .6M55 78.5a1.5 1.5 0 1 0 3 0 1.5 1.5 0 0 0-3 0M58 78.5a.5.5 0 1 0 1 0 .5.5 0 0 0-1 0"/><path fill="#7B538F" fill-rule="nonzero" d="M51 85l-2.6 2c-.7.5-1.4.8-2.2 1h-.6a3 3 0 0 1-2.6-2.9 3 3 0 0 1 3-3.1l.6.1c.6.2 1.1.5 1.7.9l2.6 2zm1.6 1.3l4.2 3.2 1.2-1.6-3.8-2.9 3.8-2.9-1.2-1.6-4.2 3.3-3.2-2.4c-.7-.6-1.5-1-2.3-1.2L46 80a5 5 0 1 0-.6 10l1.2-.1c1-.2 2-.7 3-1.4l3-2.2z"/><path fill="#7B538F" d="M45 85.5a1.5 1.5 0 1 0 3 0 1.5 1.5 0 0 0-3 0"/><path fill="#7B538F" fill-rule="nonzero" d="M43 95h15v-3H43z"/><path fill="#611D34" fill-rule="nonzero" d="M58.2 105.7h.2c1.4-.3 2-.2 2.8.2h.5c3.5 0 6.3-2.7 6.3-6.2v-2-.2c-.8-3.3-.8-5.1 0-7.4v-.3V85.4a28.6 28.6 0 0 0-.1-1.2c-.9-1.4-.9-2.5-.3-5.2A20 20 0 0 0 68 77v-1.6c0-3.5-2.8-6.3-6.3-6.3H56 55.7a1 1 0 0 0-.6.2c-.6.5-1 .5-2.5.1l-2-.3h-4.8l-1.2.3-.9.1c-.7 0-1.3 0-2.3-.3a1 1 0 0 0-.3-.1h-3.8a6.3 6.3 0 0 0-6.3 6.3v3.2a215 215 0 0 0 0 1.1c.3 1.2.5 2.4.4 3.7A39.8 39.8 0 0 1 31 89a20.4 20.4 0 0 0 .3 2.2l.2 1.8c.2 1.6 0 2.8-.4 4v.3l-.1.8v1.6c0 3.5 2.8 6.3 6.3 6.3H39a83.4 83.4 0 0 0 1 0 18.2 18.2 0 0 1 8.2 0h7a49.8 49.8 0 0 0 3-.3zm7.5-27c-.6 2.9-.7 4.4.4 6.3v4.7a14 14 0 0 0 0 8.1v1.9c0 2.3-1.9 4.2-4.2 4.3-1.1-.5-2.2-.5-3.8-.2a67 67 0 0 0-2.5.2h-7.4c-2.6-.6-4.8-.6-8.6 0h-2.3c-2.4 0-4.4-2-4.4-4.3V98v-.6c.6-1.4.7-2.9.5-4.7a37.6 37.6 0 0 0-.5-4 61.5 61.5 0 0 1 .5-5.4c0-1.5-.1-2.8-.5-4.1v-4c0-2.4 2-4.4 4.4-4.4H41a7 7 0 0 0 4 .3l1-.3h4.6l1.5.3a7 7 0 0 0 2 .4c.7 0 1.3-.2 2-.7h5.6c2.4 0 4.4 2 4.4 4.4v1.5l-.4 1.8z"/><path fill="#FFD843" d="M38.8 106H21.2c-.7 0-1.2-.5-1.2-1.2v-2.6c0-.7.5-1.2 1.2-1.2h17.6c.7 0 1.2.5 1.2 1.2v2.6c0 .7-.5 1.2-1.2 1.2"/><path fill="#611D34" fill-rule="nonzero" d="M38.8 107H21.2c-1.2 0-2.2-1-2.2-2.2v-2.6c0-1.2 1-2.2 2.2-2.2h17.6c1.2 0 2.2 1 2.2 2.2v2.6c0 1.2-1 2.2-2.2 2.2zm0-2c.2 0 .2-.1.2-.2v-2.6c0-.1 0-.2-.2-.2H21.2c-.2 0-.2.1-.2.2v2.6c0 .1 0 .2.2.2h17.6z"/><path fill="#FFD843" d="M19.8 91H2.2c-.7 0-1.2-.5-1.2-1.2v-2.6c0-.7.5-1.2 1.2-1.2h17.6c.7 0 1.2.5 1.2 1.2v2.6c0 .7-.5 1.2-1.2 1.2"/><path fill="#FE9D09" d="M19.8 90H2.2c-.7 0-1.2-.5-1.2-1v1c0 .6.5 1 1.2 1h17.6c.7 0 1.2-.4 1.2-1v-1c0 .5-.5 1-1.2 1"/><path fill="#611D34" fill-rule="nonzero" d="M11 87v2h1v-2zM13 86v3h1v-3z"/><path fill="#FE9D09" d="M19.7 86H17c.7 0 1.3.5 1.3 1.2v2.6c0 .7-.6 1.2-1.3 1.2h2.7c.7 0 1.3-.5 1.3-1.2v-2.6c0-.7-.6-1.2-1.3-1.2"/><path fill="#FFF" d="M7.6 89.8v-2.6c0-.7.6-1.2 1.4-1.2H5.4c-.8 0-1.4.5-1.4 1.2v2.6c0 .7.6 1.2 1.4 1.2H9c-.8 0-1.4-.5-1.4-1.2"/><path fill="#611D34" fill-rule="nonzero" d="M19.8 93H2.2C1 93 0 92 0 90.8v-2.6C0 87 1 86 2.2 86h17.6c1.2 0 2.2 1 2.2 2.2v2.6c0 1.2-1 2.2-2.2 2.2zm0-2c.2 0 .2-.1.2-.2v-2.6c0-.1 0-.2-.2-.2H2.2c-.2 0-.2.1-.2.2v2.6c0 .1 0 .2.2.2h17.6z"/><path fill="#FFD843" d="M19.8 97H2.2c-.7 0-1.2-.5-1.2-1.2v-2.6c0-.7.5-1.2 1.2-1.2h17.6c.7 0 1.2.5 1.2 1.2v2.6c0 .7-.5 1.2-1.2 1.2"/><path fill="#FE9D09" d="M19.8 95H2.2c-.7 0-1.2-.5-1.2-1v1c0 .6.5 1 1.2 1h17.6c.7 0 1.2-.4 1.2-1v-1c0 .5-.5 1-1.2 1"/><path fill="#611D34" fill-rule="nonzero" d="M13 91v3h1v-3z"/><path fill="#FE9D09" d="M19.7 92H17c.7 0 1.3.5 1.3 1.2v2.6c0 .7-.6 1.2-1.3 1.2h2.7c.7 0 1.3-.5 1.3-1.2v-2.6c0-.7-.6-1.2-1.3-1.2"/><path fill="#FFF" d="M8.6 95.8v-2.6c0-.7.6-1.2 1.4-1.2H6.4c-.8 0-1.4.5-1.4 1.2v2.6c0 .7.6 1.2 1.4 1.2H10c-.8 0-1.4-.5-1.4-1.2"/><path fill="#611D34" fill-rule="nonzero" d="M19.8 97H2.2C1 97 0 96 0 94.8v-2.6C0 91 1 90 2.2 90h17.6c1.2 0 2.2 1 2.2 2.2v2.6c0 1.2-1 2.2-2.2 2.2zm0-2c.2 0 .2-.1.2-.2v-2.6c0-.1 0-.2-.2-.2H2.2c-.2 0-.2.1-.2.2v2.6c0 .1 0 .2.2.2h17.6z"/><path fill="#FFD843" d="M19.8 101H2.2c-.7 0-1.2-.5-1.2-1.2v-2.6c0-.7.5-1.2 1.2-1.2h17.6c.7 0 1.2.5 1.2 1.2v2.6c0 .7-.5 1.2-1.2 1.2"/><path fill="#FE9D09" d="M19.8 100H2.2c-.7 0-1.2-.5-1.2-1v1c0 .6.5 1 1.2 1h17.6c.7 0 1.2-.4 1.2-1v-1c0 .5-.5 1-1.2 1"/><path fill="#611D34" fill-rule="nonzero" d="M11 96v2h1v-2zM13 96v3h1v-3z"/><path fill="#FE9D09" d="M19.7 96H17c.7 0 1.3.5 1.3 1.2v2.6c0 .7-.6 1.2-1.3 1.2h2.7c.7 0 1.3-.5 1.3-1.2v-2.6c0-.7-.6-1.2-1.3-1.2"/><path fill="#FFF" d="M7.6 99.8v-2.6c0-.7.6-1.2 1.4-1.2H5.4c-.8 0-1.4.5-1.4 1.2v2.6c0 .7.6 1.2 1.4 1.2H9c-.8 0-1.4-.5-1.4-1.2"/><path fill="#611D34" fill-rule="nonzero" d="M19.8 102H2.2C1 102 0 101 0 99.8v-2.6C0 96 1 95 2.2 95h17.6c1.2 0 2.2 1 2.2 2.2v2.6c0 1.2-1 2.2-2.2 2.2zm0-2c.2 0 .2-.1.2-.2v-2.6c0-.1 0-.2-.2-.2H2.2l-.2.2v2.6c0 .1 0 .2.2.2h17.6z"/><path fill="#FFD843" d="M19.8 106H2.2c-.7 0-1.2-.5-1.2-1.2v-2.6c0-.7.5-1.2 1.2-1.2h17.6c.7 0 1.2.5 1.2 1.2v2.6c0 .7-.5 1.2-1.2 1.2"/><path fill="#FE9D09" d="M19.8 104H2.2c-.7 0-1.2-.5-1.2-1v1c0 .6.5 1 1.2 1h17.6c.7 0 1.2-.4 1.2-1v-1c0 .5-.5 1-1.2 1"/><path fill="#611D34" fill-rule="nonzero" d="M15 101v2h1v-2zM13 101v3h1v-3z"/><path fill="#FE9D09" d="M19.7 101H17c.7 0 1.3.5 1.3 1.2v2.6c0 .7-.6 1.2-1.3 1.2h2.7c.7 0 1.3-.5 1.3-1.2v-2.6c0-.7-.6-1.2-1.3-1.2"/><path fill="#FFF" d="M8.6 104.8v-2.6c0-.7.6-1.2 1.4-1.2H6.4c-.8 0-1.4.5-1.4 1.2v2.6c0 .7.6 1.2 1.4 1.2H10c-.8 0-1.4-.5-1.4-1.2"/><path fill="#611D34" fill-rule="nonzero" d="M19.8 107H2.2C1 107 0 106 0 104.8v-2.6c0-1.2 1-2.2 2.2-2.2h17.6c1.2 0 2.2 1 2.2 2.2v2.6c0 1.2-1 2.2-2.2 2.2zm0-2c.2 0 .2-.1.2-.2v-2.6c0-.1 0-.2-.2-.2H2.2c-.2 0-.2.1-.2.2v2.6c0 .1 0 .2.2.2h17.6z"/><g fill-rule="nonzero"><path fill="#EA5477" d="M26.5 82L15 96.2l4.8 10.8h13.4L38 96.2z"/><path fill="#EA5477" d="M33 107l-6.5-6-6.5 6z" opacity=".4" style="mix-blend-mode:multiply"/><path fill="#EA5477" d="M15 95.8l11.5 5.2L38 95.8 26.5 82z" opacity=".3" style="mix-blend-mode:screen"/><path fill="#EA5477" d="M27 101V82l12 13.8z" opacity=".6" style="mix-blend-mode:screen"/><path fill="#FFF" d="M21 106l-2.9-9.8L27 82 15 95.7z"/><path fill="#EA5477" d="M33.4 98L27 82l12 13.6z" style="mix-blend-mode:screen"/><path fill="#611D34" d="M27 81L14 96.2l5.5 11.8h15L40 96.2 27 81zm0 3.2l10.6 12.4-4.4 9.4H20.8l-4.4-9.4L27 84.2z"/></g><g fill="#FFF"><path d="M61.1 11.1L54 13.5l7.1 2.4 2.4 7.1 2.4-7.1 7.1-2.4-7.1-2.4L63.5 4zM49 0l-1.5 4.5L43 6l4.5 1.5L49 12l1.5-4.5L55 6l-4.5-1.5z"/></g></g></svg>