<svg xmlns="http://www.w3.org/2000/svg" width="50" height="103"><g fill="none" fill-rule="evenodd"><path fill="#FFD843" d="M47.7 101H28.3c-.7 0-1.3-.5-1.3-1.2v-2.6c0-.7.6-1.2 1.3-1.2h19.4c.7 0 1.3.5 1.3 1.2v2.6c0 .7-.6 1.2-1.3 1.2"/><path fill="#611D34" fill-rule="nonzero" d="M47.6 102H28.4c-1.3 0-2.4-1-2.4-2.2v-2.6c0-1.2 1-2.2 2.4-2.2h19.2c1.3 0 2.4 1 2.4 2.2v2.6c0 1.2-1 2.2-2.4 2.2zm0-2c.2 0 .3-.1.3-.2v-2.6c0-.1-.1-.2-.3-.2H28.4c-.2 0-.3.1-.3.2v2.6c0 .1.1.2.3.2h19.2z"/><path fill="#FFD843" d="M27.7 85H8.3c-.7 0-1.3-.5-1.3-1.2v-2.6c0-.7.6-1.2 1.3-1.2h19.4c.7 0 1.3.5 1.3 1.2v2.6c0 .7-.6 1.2-1.3 1.2"/><path fill="#FE9D09" d="M27.7 83.4H8.3c-.7 0-1.3-.6-1.3-1.4v1.6c0 .8.6 1.4 1.3 1.4h19.4c.7 0 1.3-.6 1.3-1.4V82c0 .8-.6 1.4-1.3 1.4"/><path fill="#611D34" fill-rule="nonzero" d="M17 80v2h1v-2zM20 80v3h1v-3z"/><path fill="#FE9D09" d="M27.7 80H25c.7 0 1.3.5 1.3 1.2v2.6c0 .7-.6 1.2-1.3 1.2h2.7c.7 0 1.3-.5 1.3-1.2v-2.6c0-.7-.6-1.2-1.3-1.2"/><path fill="#FFF" d="M13.6 83.8v-2.6c0-.7.6-1.2 1.4-1.2h-3.6c-.8 0-1.4.5-1.4 1.2v2.6c0 .7.6 1.2 1.4 1.2H15c-.8 0-1.4-.5-1.4-1.2"/><path fill="#611D34" fill-rule="nonzero" d="M27.6 86H8.4C7 86 6 85 6 83.8v-2.6C6 80 7 79 8.4 79h19.2c1.3 0 2.4 1 2.4 2.2v2.6c0 1.2-1 2.2-2.4 2.2zm0-2c.2 0 .3-.1.3-.2v-2.6c0-.1-.1-.2-.3-.2H8.4c-.2 0-.3.1-.3.2v2.6c0 .1.1.2.3.2h19.2z"/><path fill="#FFD843" d="M27.7 90H8.3c-.7 0-1.3-.5-1.3-1.2v-2.6c0-.7.6-1.2 1.3-1.2h19.4c.7 0 1.3.5 1.3 1.2v2.6c0 .7-.6 1.2-1.3 1.2"/><path fill="#FE9D09" d="M27.7 88.4H8.3c-.7 0-1.3-.6-1.3-1.4v1.6c0 .8.6 1.4 1.3 1.4h19.4c.7 0 1.3-.6 1.3-1.4V87c0 .8-.6 1.4-1.3 1.4"/><path fill="#611D34" fill-rule="nonzero" d="M20 85v3h1v-3z"/><path fill="#FE9D09" d="M27.7 85H25c.7 0 1.3.5 1.3 1.2v2.6c0 .7-.6 1.2-1.3 1.2h2.7c.7 0 1.3-.5 1.3-1.2v-2.6c0-.7-.6-1.2-1.3-1.2"/><path fill="#FFF" d="M15.6 88.8v-2.6c0-.7.6-1.2 1.4-1.2h-3.6c-.8 0-1.4.5-1.4 1.2v2.6c0 .7.6 1.2 1.4 1.2H17c-.8 0-1.4-.5-1.4-1.2"/><path fill="#611D34" fill-rule="nonzero" d="M27.6 91H8.4C7 91 6 90 6 88.8v-2.6C6 85 7 84 8.4 84h19.2c1.3 0 2.4 1 2.4 2.2v2.6c0 1.2-1 2.2-2.4 2.2zm0-2c.2 0 .3-.1.3-.2v-2.6c0-.1-.1-.2-.3-.2H8.4c-.2 0-.3.1-.3.2v2.6c0 .1.1.2.3.2h19.2z"/><path fill="#FFD843" d="M27.7 95H8.3c-.7 0-1.3-.5-1.3-1.2v-2.6c0-.7.6-1.2 1.3-1.2h19.4c.7 0 1.3.5 1.3 1.2v2.6c0 .7-.6 1.2-1.3 1.2"/><path fill="#FE9D09" d="M27.7 94.4H8.3c-.7 0-1.3-.6-1.3-1.4v1.6c0 .8.6 1.4 1.3 1.4h19.4c.7 0 1.3-.6 1.3-1.4V93c0 .8-.6 1.4-1.3 1.4"/><path fill="#611D34" fill-rule="nonzero" d="M17 91v2h1v-2zM20 90v3h1v-3z"/><path fill="#FE9D09" d="M27.7 90H25c.7 0 1.3.5 1.3 1.2v2.6c0 .7-.6 1.2-1.3 1.2h2.7c.7 0 1.3-.5 1.3-1.2v-2.6c0-.7-.6-1.2-1.3-1.2"/><path fill="#FFF" d="M13.6 93.8v-2.6c0-.7.6-1.2 1.4-1.2h-3.6c-.8 0-1.4.5-1.4 1.2v2.6c0 .7.6 1.2 1.4 1.2H15c-.8 0-1.4-.5-1.4-1.2"/><path fill="#611D34" fill-rule="nonzero" d="M27.6 96H8.4C7 96 6 95 6 93.8v-2.6C6 90 7 89 8.4 89h19.2c1.3 0 2.4 1 2.4 2.2v2.6c0 1.2-1 2.2-2.4 2.2zm0-2c.2 0 .3-.1.3-.2v-2.6c0-.1-.1-.2-.3-.2H8.4c-.2 0-.3.1-.3.2v2.6c0 .1.1.2.3.2h19.2z"/><path fill="#FFD843" d="M27.7 101H8.3c-.7 0-1.3-.5-1.3-1.2v-2.6c0-.7.6-1.2 1.3-1.2h19.4c.7 0 1.3.5 1.3 1.2v2.6c0 .7-.6 1.2-1.3 1.2"/><path fill="#FE9D09" d="M27.7 99.4H8.3c-.7 0-1.3-.6-1.3-1.4v1.6c0 .8.6 1.4 1.3 1.4h19.4c.7 0 1.3-.6 1.3-1.4V98c0 .8-.6 1.4-1.3 1.4"/><path fill="#611D34" fill-rule="nonzero" d="M22 96v2h1v-2zM20 96v3h1v-3z"/><path fill="#FE9D09" d="M27.7 96H25c.7 0 1.3.5 1.3 1.2v2.6c0 .7-.6 1.2-1.3 1.2h2.7c.7 0 1.3-.5 1.3-1.2v-2.6c0-.7-.6-1.2-1.3-1.2"/><path fill="#FFF" d="M15.6 99.8v-2.6c0-.7.6-1.2 1.4-1.2h-3.6c-.8 0-1.4.5-1.4 1.2v2.6c0 .7.6 1.2 1.4 1.2H17c-.8 0-1.4-.5-1.4-1.2"/><path fill="#611D34" fill-rule="nonzero" d="M27.6 102H8.4C7 102 6 101 6 99.8v-2.6C6 96 7 95 8.4 95h19.2c1.3 0 2.4 1 2.4 2.2v2.6c0 1.2-1 2.2-2.4 2.2zm0-2c.2 0 .3-.1.3-.2v-2.6c0-.1-.1-.2-.3-.2H8.4c-.2 0-.3.1-.3.2v2.6c0 .1.1.2.3.2h19.2z"/><g fill-rule="nonzero"><path fill="#57B49F" d="M35.5 74L23 89.3l5.2 11.7h14.6L48 89.3z"/><path fill="#57B49F" d="M42 102l-7.5-6-7.5 6z" opacity=".4" style="mix-blend-mode:multiply"/><path fill="#57B49F" d="M23 90.2L35.5 96 48 90.2 35.5 75z" opacity=".3" style="mix-blend-mode:screen"/><path fill="#57B49F" d="M35 96V75l13 15.2z" opacity=".6" style="mix-blend-mode:screen"/><path fill="#FFF" d="M27.5 102l-3.1-11L34 75 21 90.4z"/><path fill="#57B49F" d="M41.9 93L35 75l13 15.3z" style="mix-blend-mode:screen"/><path fill="#611D34" d="M35 73L21 90l6 13h16l6-13-14-17zm0 3.5l11.4 13.8-4.7 10.4H28.3l-4.7-10.4L35 76.5z"/></g><g fill="#FFF"><path d="M32 57l-6 2 6 2 2 6 2-6 6-2-6-2-2-6zM8.2 30.2L0 33l8.2 2.8L11 44l2.8-8.2L22 33l-8.2-2.8L11 22zM18 15l-6 2 6 2 2 6 2-6 6-2-6-2-2-6zM15 0l-1.3 3.7L10 5l3.7 1.3L15 10l1.3-3.7L20 5l-3.7-1.3z"/></g></g></svg>