<svg xmlns="http://www.w3.org/2000/svg" xmlns:xlink="http://www.w3.org/1999/xlink" width="401" height="112" version="1"><defs><path id="a" d="M0 0h401v129H0z"/></defs><g fill="none" fill-rule="evenodd" transform="matrix(-1 0 0 1 401 -17)"><mask id="b" fill="#fff"><use xlink:href="#a"/></mask><path fill="#3A2655" d="M392 66a68 68 0 0 0-79-26c-12 5-24 8-37 12-20 7-41 1-60-7l-55-23c-20-6-43-8-61 3-24 15-31 48-56 60-14 6-32 6-40 18-5 7-5 15-2 23 2 7 7 14 11 20h366c23-19 29-55 13-80" mask="url(#b)"/></g></svg>