<svg xmlns="http://www.w3.org/2000/svg" viewBox="0 0 575.9 271.81"><defs><clipPath id="clip-path" transform="translate(-534 -436.19)"><path fill="none" d="M704 441h256v255H704z"/></clipPath><clipPath id="clip-path-2" transform="translate(-534 -436.19)"><path fill="none" d="M725.44 568.23c0 59.28 47.93 107.33 107.06 107.33s107.06-48 107.06-107.33-47.93-107.32-107.06-107.32S725.44 509 725.44 568.23" clip-rule="evenodd"/></clipPath><clipPath id="clip-path-3" transform="translate(-534 -436.19)"><path fill="none" d="M705 441h255v255H705z"/></clipPath><clipPath id="clip-path-4" transform="translate(-534 -436.19)"><path fill="none" d="M705 568.56a127.41 127.41 0 1 0 127.4-127.37A127.38 127.38 0 0 0 705 568.56" clip-rule="evenodd"/></clipPath><clipPath id="clip-path-6" transform="translate(-534 -436.19)"><path fill="none" d="M1063.08 665.93H580.82v-18A17.21 17.21 0 0 1 598 630.62h448a17.21 17.21 0 0 1 17.15 17.26z" clip-rule="evenodd"/></clipPath><clipPath id="clip-path-7" transform="translate(-534 -436.19)"><path fill="none" d="M0 0h1432v900H0z"/></clipPath><clipPath id="clip-path-8" transform="translate(-534 -436.19)"><path fill="none" d="M727.6 647.56h3.22v5.11h-3.22z"/></clipPath><clipPath id="clip-path-10" transform="translate(-534 -436.19)"><path fill="none" d="M776.01 641.59h5.08v3.24h-5.08z"/></clipPath><clipPath id="clip-path-12" transform="translate(-534 -436.19)"><path fill="none" d="M813.99 659.59h3.22v5.11h-3.22z"/></clipPath><clipPath id="clip-path-14" transform="translate(-534 -436.19)"><path fill="none" d="M856.23 641.59h3.22v5.11h-3.22z"/></clipPath><clipPath id="clip-path-16" transform="translate(-534 -436.19)"><path fill="none" d="M920.67 654.48h3.22v5.11h-3.22z"/></clipPath><clipPath id="clip-path-18" transform="translate(-534 -436.19)"><path fill="none" d="M941.58 643.24h5.08v3.24h-5.08z"/></clipPath><clipPath id="clip-path-20" transform="translate(-534 -436.19)"><path fill="none" d="M580.82 665.93H704.4c1.45 0 2.9 0 4.36.07 15.12 2.37 30.12 2.17 45.25.54 1.69-.19 3.37-.38 5.07-.6 19.65 0 39 1.07 59 0h4.58a415.44 415.44 0 0 0 51.86 0h4.63c18.74.54 38.07 1.62 57 0h4.49c19 .54 38.3 1.08 57.35 0h65V657h-63.43a395.59 395.59 0 0 1-56.15 0h-4.74a378.5 378.5 0 0 1-54.82 0h-4.65a466 466 0 0 1-61.06 0q-2.71.24-5.43.39c-19.93 1.15-40.05-.57-59.5.53q-2.93.36-5.85.57c-15.6 1.18-31.19-.42-47.26-1.48H580.82z" clip-rule="evenodd"/></clipPath><clipPath id="clip-path-22" transform="translate(-534 -436.19)"><path fill="none" d="M598 647.05a17.2 17.2 0 0 0-17.16 17.25v1.63h482.26v-1.63a17.2 17.2 0 0 0-17.15-17.25z" clip-rule="evenodd"/></clipPath><clipPath id="clip-path-24" transform="translate(-534 -436.19)"><path fill="none" d="M598 630.62a17.21 17.21 0 0 0-17.16 17.26V654A17.21 17.21 0 0 1 598 636.76h448a17.21 17.21 0 0 1 17.08 17.24v-6.14a17.21 17.21 0 0 0-17.15-17.26z" clip-rule="evenodd"/></clipPath><clipPath id="clip-path-26" transform="translate(-534 -436.19)"><path fill="none" d="M1061.47 664.31v-16.43a15.59 15.59 0 0 0-15.54-15.64H598a15.59 15.59 0 0 0-15.55 15.64v16.43zm3.22 3.24H579.21v-19.67A18.82 18.82 0 0 1 598 629h448a18.82 18.82 0 0 1 18.76 18.88z"/></clipPath><clipPath id="clip-path-28" transform="translate(-534 -436.19)"><path fill="none" d="M1103.29 701.24H540.61v-17.92a17.34 17.34 0 0 1 17.29-17.39H1086a17.34 17.34 0 0 1 17.29 17.39z" clip-rule="evenodd"/></clipPath><clipPath id="clip-path-30" transform="translate(-534 -436.19)"><path fill="none" d="M557.9 693.89a17.21 17.21 0 0 0-14.11 7.35h102.28c17.2 2.5 33.85 1.42 50.81.07 1.53 0 3-.06 4.56-.07h16.12c17.41.28 35.23 1.83 52.8.89 1.76-.09 3.52-.22 5.28-.38 13.06-1.63 26.45-1.59 39.75-1.17 1.9.06 3.8.12 5.69.2 15.52.64 31.34 1.11 47 .82q2.94 0 5.88-.14c14.44-.34 29.36.29 44.22.1 1.86 0 3.72-.06 5.58-.11 17.12.13 34.3 1.75 51.73-.19h53.06c16.51 1.43 32.62.89 49.52 0h22a17.21 17.21 0 0 0-14.11-7.35h-6c-19.92 1.21-39.26.13-59.1 0h-42a474.6 474.6 0 0 1-56.46.18c-1.83.06-3.67.1-5.5.14-14.71.33-29.65.25-44.21-.13l-5.48.17c-14.58.42-28.84.43-43.47-1.25-1.72-.12-3.44-.23-5.16-.32-15.46-.85-31.06-.5-46.37 2.09-1.78.1-3.55.19-5.31.25-15.92.61-31.68-.23-47.62-1.13h-12.59c-10.66-.41-21.4 1.21-32.14 2.29-10.21.54-20.41-2.7-30.39-2.29H557.9z" clip-rule="evenodd"/></clipPath><clipPath id="clip-path-32" transform="translate(-534 -436.19)"><path fill="none" d="M557.9 682.36a17.34 17.34 0 0 0-17.29 17.39v1.49h562.68v-1.49a17.34 17.34 0 0 0-17.29-17.39z" clip-rule="evenodd"/></clipPath><clipPath id="clip-path-34" transform="translate(-534 -436.19)"><path fill="none" d="M557.9 665.93a17.34 17.34 0 0 0-17.29 17.39v6.11A17.34 17.34 0 0 1 557.9 672H1086a17.34 17.34 0 0 1 17.29 17.39v-6.11a17.34 17.34 0 0 0-17.29-17.35z" clip-rule="evenodd"/></clipPath><clipPath id="clip-path-36" transform="translate(-534 -436.19)"><path fill="none" d="M1101.68 683.32a15.72 15.72 0 0 0-15.68-15.77H557.9a15.72 15.72 0 0 0-15.68 15.77v16.3h559.46zm3.22 19.54H539v-19.54a19 19 0 0 1 18.9-19H1086a19 19 0 0 1 18.9 19z"/></clipPath><clipPath id="clip-path-38" transform="translate(-534 -436.19)"><path fill="none" d="M764.23 696.74h3.22v5.11h-3.22z"/></clipPath><clipPath id="clip-path-40" transform="translate(-534 -436.19)"><path fill="none" d="M737.02 678.74h3.22v5.11h-3.22z"/></clipPath><clipPath id="clip-path-42" transform="translate(-534 -436.19)"><path fill="none" d="M910.8 681.96h5.08v3.24h-5.08z"/></clipPath><clipPath id="clip-path-44" transform="translate(-534 -436.19)"><path fill="none" d="M1049.7 679.43h5.08v3.24h-5.08z"/></clipPath><clipPath id="clip-path-46" transform="translate(-534 -436.19)"><path fill="none" d="M789.76 680.63l-3.59 3.61 2.28 2.29 3.59-3.61-2.28-2.29z"/></clipPath><clipPath id="clip-path-48" transform="translate(-534 -436.19)"><path fill="none" d="M943.59 685.79h3.22v5.11h-3.22z"/></clipPath><clipPath id="clip-path-50" transform="translate(-534 -436.19)"><path fill="none" d="M841.07 527.68H822.34l-25.57 40.68H867.31l-26.24-40.68z" clip-rule="evenodd"/></clipPath><clipPath id="clip-path-52" transform="translate(-534 -436.19)"><path fill="none" d="M823.3 533.57l-20.07 32.12h5.69l16.39-32.12h-2.01z" clip-rule="evenodd"/></clipPath><clipPath id="clip-path-54" transform="translate(-534 -436.19)"><path fill="none" d="M867.22 568.88h-10.24l-18-35.49h-19.61l3.19-5.1h18.61l26.05 40.59z" clip-rule="evenodd"/></clipPath><clipPath id="clip-path-56" transform="translate(-534 -436.19)"><path fill="none" d="M840.4 529.68l24.26 37.81h-65l23.64-37.81zm.77-2.79h-18.61a1.41 1.41 0 0 0-1.19.66L796 568.14a1.4 1.4 0 0 0 1.2 2.13h70a1.39 1.39 0 0 0 1.18-2.14l-26-40.59a1.41 1.41 0 0 0-1.21-.65z"/></clipPath><clipPath id="clip-path-58" transform="translate(-534 -436.19)"><path fill="none" d="M841.07 609.05H822.34l-25.57-40.69H867.31l-26.24 40.69z" clip-rule="evenodd"/></clipPath><clipPath id="clip-path-60" transform="translate(-534 -436.19)"><path fill="none" d="M840.16 544.89a8.76 8.76 0 0 0-7.94-5h-.07a8.76 8.76 0 0 0-8 5.1l-1.89 4.15a47 47 0 0 0 0 39l1.89 4.15a8.76 8.76 0 0 0 8 5.1h.07a8.76 8.76 0 0 0 7.94-5l1.74-3.7a47.12 47.12 0 0 0 0-40z" clip-rule="evenodd"/></clipPath><clipPath id="clip-path-62" transform="translate(-534 -436.19)"><path fill="none" d="M823.35 603.88l-20.33-32.44h5.76l16.6 32.44h-2.03z" clip-rule="evenodd"/></clipPath><clipPath id="clip-path-64" transform="translate(-534 -436.19)"><path fill="none" d="M867.49 568.61h-10.27l-18.06 35.55h-19.68l3.2 5.11h18.67l26.14-40.66z" clip-rule="evenodd"/></clipPath><clipPath id="clip-path-66" transform="translate(-534 -436.19)"><path fill="none" d="M864.93 570h-65.19l23.73 37.88h17.11zm-22.39 40a1.43 1.43 0 0 1-1.19.65h-18.67a1.4 1.4 0 0 1-1.19-.66L796 569.34a1.4 1.4 0 0 1 1.2-2.13h70.28a1.39 1.39 0 0 1 1.19 2.14z"/></clipPath><clipPath id="clip-path-68" transform="translate(-534 -436.19)"><path fill="none" d="M845.63 529.78H818.4l-1.76-12.3h30.75l-1.76 12.3z" clip-rule="evenodd"/></clipPath><clipPath id="clip-path-70" transform="translate(-534 -436.19)"><path fill="none" d="M847.04 519.97l.35-2.49h-30.75l.36 2.49h30.04z" clip-rule="evenodd"/></clipPath><clipPath id="clip-path-72" transform="translate(-534 -436.19)"><path fill="none" d="M845.77 518.87h-27.5l1.35 9.51h24.79zM847 530a1.4 1.4 0 0 1-1.4 1.2h-27.2a1.39 1.39 0 0 1-1.4-1.2l-1.76-12.3a1.4 1.4 0 0 1 1.39-1.59h30.75a1.4 1.4 0 0 1 1.4 1.59z"/></clipPath><clipPath id="clip-path-74" transform="translate(-534 -436.19)"><path fill="none" d="M835.3 614.61h-6.57V525a3.29 3.29 0 0 1 6.57 0z" clip-rule="evenodd"/></clipPath><clipPath id="clip-path-76" transform="translate(-534 -436.19)"><path fill="none" d="M833.9 525a1.88 1.88 0 0 0-3.76 0v88.24h3.76zm2.81 89.63a1.41 1.41 0 0 1-1.41 1.4h-6.57a1.41 1.41 0 0 1-1.41-1.4V525a4.7 4.7 0 0 1 9.39 0z"/></clipPath><clipPath id="clip-path-78" transform="translate(-534 -436.19)"><path fill="none" d="M793 472.05h76.77V631H793z"/></clipPath><clipPath id="clip-path-80" transform="translate(-534 -436.19)"><path fill="none" d="M793 472h77v160h-77z"/></clipPath><clipPath id="clip-path-81" transform="translate(-534 -436.19)"><path fill="none" d="M798.31 547.74h67.42v5.09h-67.42z"/></clipPath><clipPath id="clip-path-83" transform="translate(-534 -436.19)"><path fill="none" d="M799.71 551.43v-2.3h64.61v2.3zm-1.4 2.79h67.42a1.4 1.4 0 0 0 1.41-1.39v-5.09a1.41 1.41 0 0 0-1.41-1.4h-67.42a1.41 1.41 0 0 0-1.41 1.4v5.09a1.4 1.4 0 0 0 1.41 1.39z"/></clipPath><clipPath id="clip-path-85" transform="translate(-534 -436.19)"><path fill="none" d="M798.31 584.38h67.42v5.09h-67.42z"/></clipPath><clipPath id="clip-path-87" transform="translate(-534 -436.19)"><path fill="none" d="M799.71 585.78h64.61v2.3h-64.61zm-1.4 5.09h67.42a1.41 1.41 0 0 0 1.41-1.4v-5.09a1.4 1.4 0 0 0-1.41-1.39h-67.42a1.4 1.4 0 0 0-1.41 1.39v5.09a1.41 1.41 0 0 0 1.41 1.4z"/></clipPath><clipPath id="clip-path-89" transform="translate(-534 -436.19)"><path fill="none" d="M832.17 473.45a20.75 20.75 0 1 0 21 20.74 20.85 20.85 0 0 0-21-20.74m0 35.41A14.67 14.67 0 1 1 847 494.19a14.74 14.74 0 0 1-14.81 14.67" clip-rule="evenodd"/></clipPath><clipPath id="clip-path-91" transform="translate(-534 -436.19)"><path fill="none" d="M832.21 511c-8.13 0-15.36-4.46-20-10.38a21 21 0 0 0 39.78.18c-4.61 5.82-11.77 10.2-19.82 10.2" clip-rule="evenodd"/></clipPath><clipPath id="clip-path-93" transform="translate(-534 -436.19)"><path fill="none" d="M832.17 474.84a19.35 19.35 0 1 0 19.54 19.35 19.45 19.45 0 0 0-19.54-19.35zm0-2.79a22.14 22.14 0 1 1-22.36 22.14 22.25 22.25 0 0 1 22.36-22.14zm0 35.42a13.28 13.28 0 1 0-13.41-13.28 13.34 13.34 0 0 0 13.41 13.28zm0 2.79a16.07 16.07 0 1 1 16.22-16.07 16.16 16.16 0 0 1-16.22 16.07z"/></clipPath><clipPath id="clip-path-95" transform="translate(-534 -436.19)"><path fill="none" d="M817.28 524.65H821v-2h-3.76a21.36 21.36 0 0 0-21.46 21.26v49.49a21.36 21.36 0 0 0 21.46 21.26h6.25v-2.05h-6.25a17.34 17.34 0 0 1-17.42-17.25v-53.4a17.34 17.34 0 0 1 17.42-17.26" clip-rule="evenodd"/></clipPath><clipPath id="clip-path-97" transform="translate(-534 -436.19)"><path fill="none" d="M797.28 593.35v-49.49a21.37 21.37 0 0 1 21.47-21.26h-1.46a21.37 21.37 0 0 0-21.47 21.26v49.49a21.37 21.37 0 0 0 21.47 21.26h1.46a21.37 21.37 0 0 1-21.47-21.26" clip-rule="evenodd"/></clipPath><clipPath id="clip-path-99" transform="translate(-534 -436.19)"><path fill="none" d="M821 522.6v2h-3.76a17.34 17.34 0 0 0-17.42 17.26v53.4a17.34 17.34 0 0 0 17.42 17.25h6.25v2.05h-6.25a21.36 21.36 0 0 1-21.46-21.26v-49.44a21.36 21.36 0 0 1 21.46-21.26H821m0-2.79h-3.76A24.19 24.19 0 0 0 793 543.86v49.49a24.19 24.19 0 0 0 24.28 24h6.25a2.81 2.81 0 0 0 2.82-2.79v-2.05a2.81 2.81 0 0 0-2.82-2.79h-6.25a14.55 14.55 0 0 1-14.6-14.46v-53.4a14.55 14.55 0 0 1 14.6-14.47H821a2.8 2.8 0 0 0 2.82-2.79v-2a2.8 2.8 0 0 0-2.82-2.79" clip-rule="evenodd"/></clipPath><clipPath id="clip-path-101" transform="translate(-534 -436.19)"><path fill="none" d="M839.24 616a1.41 1.41 0 0 1-1.41-1.4v-2.05a1.41 1.41 0 0 1 1.41-1.4h6.25a16 16 0 0 0 16-15.85v-53.4a16 16 0 0 0-16-15.86h-3.76a1.41 1.41 0 0 1-1.41-1.4v-2a1.41 1.41 0 0 1 1.41-1.4h3.76a22.79 22.79 0 0 1 22.87 22.66v49.49A22.79 22.79 0 0 1 845.49 616z" clip-rule="evenodd"/></clipPath><clipPath id="clip-path-103" transform="translate(-534 -436.19)"><path fill="none" d="M845.49 522.6A21.36 21.36 0 0 1 867 543.86v49.49a21.36 21.36 0 0 1-21.46 21.26h-6.25v-2.05h6.25a17.34 17.34 0 0 0 17.42-17.25v-53.4a17.34 17.34 0 0 0-17.42-17.26h-3.76v-2h3.76m0-2.79h-3.76a2.8 2.8 0 0 0-2.82 2.79v2a2.8 2.8 0 0 0 2.82 2.79h3.76a14.55 14.55 0 0 1 14.6 14.47v53.4a14.55 14.55 0 0 1-14.6 14.46h-6.25a2.81 2.81 0 0 0-2.82 2.79v2.05a2.81 2.81 0 0 0 2.82 2.79h6.25a24.19 24.19 0 0 0 24.28-24v-49.54a24.19 24.19 0 0 0-24.28-24.05" clip-rule="evenodd"/></clipPath><clipPath id="clip-path-105" transform="translate(-534 -436.19)"><path fill="none" d="M851.93 609.27h-39.82l-2.57 14.17h44.96l-2.57-14.17z" clip-rule="evenodd"/></clipPath><clipPath id="clip-path-107" transform="translate(-534 -436.19)"><path fill="none" d="M812.11 609.27l-.97 5.34h41.76l-.97-5.34h-39.82z" clip-rule="evenodd"/></clipPath><clipPath id="clip-path-109" transform="translate(-534 -436.19)"><path fill="none" d="M852.81 622.05h-41.59l2.07-11.38h37.46zm.3-14.17h-42.18l-3.08 17h48.33z"/></clipPath><clipPath id="clip-path-111" transform="translate(-534 -436.19)"><path fill="none" d="M829 517.47h6.11v-9.92a3.06 3.06 0 0 0-6.11 0z" clip-rule="evenodd"/></clipPath><clipPath id="clip-path-113" transform="translate(-534 -436.19)"><path fill="none" d="M832 504.53a3 3 0 0 0-3.06 3v3.94a3.06 3.06 0 0 1 6.11 0v-3.94a3 3 0 0 0-3.05-3" clip-rule="evenodd"/></clipPath><clipPath id="clip-path-115" transform="translate(-534 -436.19)"><path fill="none" d="M830.37 507.55a1.65 1.65 0 0 1 3.29 0v8.53h-3.29zm-2.82 11.32h8.93v-11.32a4.47 4.47 0 0 0-8.93 0z"/></clipPath><clipPath id="clip-path-117" transform="translate(-534 -436.19)"><path fill="none" d="M829.64 615a2.71 2.71 0 1 0 2.71-2.68 2.7 2.7 0 0 0-2.71 2.68" clip-rule="evenodd"/></clipPath><clipPath id="clip-path-119" transform="translate(-534 -436.19)"><path fill="none" d="M817.82 615a2.71 2.71 0 1 0 2.71-2.68 2.69 2.69 0 0 0-2.71 2.68" clip-rule="evenodd"/></clipPath><clipPath id="clip-path-121" transform="translate(-534 -436.19)"><path fill="none" d="M846.88 615a2.71 2.71 0 1 1-2.71-2.68 2.69 2.69 0 0 1 2.71 2.68" clip-rule="evenodd"/></clipPath><clipPath id="clip-path-123" transform="translate(-534 -436.19)"><path fill="none" d="M805.79 623.43h53.3v6.18h-53.3z"/></clipPath><clipPath id="clip-path-125" transform="translate(-534 -436.19)"><path fill="none" d="M807.2 624.82h50.48v3.39H807.2zm-1.41 6.18h53.3a1.4 1.4 0 0 0 1.41-1.39v-6.18a1.41 1.41 0 0 0-1.41-1.4h-53.3a1.41 1.41 0 0 0-1.41 1.4v6.18a1.4 1.4 0 0 0 1.41 1.39z"/></clipPath><clipPath id="clip-path-127" transform="translate(-534 -436.19)"><path fill="none" d="M865.3 623.43a6.21 6.21 0 1 0-6.21 6.14 6.18 6.18 0 0 0 6.21-6.14" clip-rule="evenodd"/></clipPath><clipPath id="clip-path-129" transform="translate(-534 -436.19)"><path fill="none" d="M863.89 623.43a4.8 4.8 0 1 1-4.8-4.75 4.78 4.78 0 0 1 4.8 4.75zm2.82 0a7.62 7.62 0 1 0-7.62 7.54 7.58 7.58 0 0 0 7.62-7.54z"/></clipPath><clipPath id="clip-path-131" transform="translate(-534 -436.19)"><path fill="none" d="M798.74 623.43a6.21 6.21 0 1 1 6.2 6.14 6.18 6.18 0 0 1-6.2-6.14" clip-rule="evenodd"/></clipPath><clipPath id="clip-path-133" transform="translate(-534 -436.19)"><path fill="none" d="M800.15 623.43a4.8 4.8 0 1 0 4.79-4.75 4.77 4.77 0 0 0-4.79 4.75zm-2.82 0a7.62 7.62 0 1 1 7.61 7.54 7.57 7.57 0 0 1-7.61-7.54z"/></clipPath><clipPath id="clip-path-135" transform="translate(-534 -436.19)"><path fill="none" d="M802.72 623.43a2.22 2.22 0 1 1 2.22 2.2 2.21 2.21 0 0 1-2.22-2.2" clip-rule="evenodd"/></clipPath><clipPath id="clip-path-137" transform="translate(-534 -436.19)"><path fill="none" d="M861.31 623.43a2.22 2.22 0 1 0-2.22 2.2 2.2 2.2 0 0 0 2.22-2.2" clip-rule="evenodd"/></clipPath><clipPath id="clip-path-139" transform="translate(-534 -436.19)"><path fill="none" d="M916.21 566.53l-14.41-1.92-1.68 14.5 13.17 16.95 16.08-12.57-13.16-16.96z" clip-rule="evenodd"/></clipPath><clipPath id="clip-path-143" transform="translate(-534 -436.19)"><path fill="none" d="M908.85 573.12l-5.14-4.1-2.38-.31-1.21 10.39 9.65 12.43.39-.31a8.57 8.57 0 0 0 2.32-3.08 12.46 12.46 0 0 0-3.63-15" clip-rule="evenodd"/></clipPath><clipPath id="clip-path-145" transform="translate(-534 -436.19)"><path fill="none" d="M927.12 583.21l-13.55 10.6-11.78-15.17 1.41-12.22 12.15 1.58zm-10-18.18l-16.67-2.22-1.94 16.76L913 598.32l18.61-14.55z"/></clipPath><clipPath id="clip-path-147" transform="translate(-534 -436.19)"><path fill="none" d="M904.29 571.6l-9.24-10.13 3.41-3.14 9.24 10.13a2.32 2.32 0 1 1-3.41 3.14" clip-rule="evenodd"/></clipPath><clipPath id="clip-path-149" transform="translate(-534 -436.19)"><path fill="none" d="M905.47 570.51a.71.71 0 1 0 1-1l-8.16-8.94-1.05 1zm-2.36 2.17l-10.33-11.31 5.78-5.31 1.08 1.18 9.24 10.13a3.92 3.92 0 1 1-5.77 5.31z"/></clipPath><clipPath id="clip-path-151" transform="translate(-534 -436.19)"><path fill="none" d="M897 541.86h-37.84a4.62 4.62 0 0 0-4.62 4.63v4.72a4.62 4.62 0 0 0 4.62 4.63H897a4.62 4.62 0 0 0 4.61-4.63v-4.72a4.62 4.62 0 0 0-4.61-4.63" clip-rule="evenodd"/></clipPath><clipPath id="clip-path-153" transform="translate(-534 -436.19)"><path fill="none" d="M897 541.86h-9.71a4.62 4.62 0 0 1 4.62 4.63v4.72a4.62 4.62 0 0 1-4.62 4.63H897a4.62 4.62 0 0 0 4.61-4.63v-4.72a4.62 4.62 0 0 0-4.61-4.63" clip-rule="evenodd"/></clipPath><clipPath id="clip-path-155" transform="translate(-534 -436.19)"><path fill="none" d="M897 541.86h-37.84a4.62 4.62 0 0 0-4.62 4.63v2.63a4.63 4.63 0 0 1 4.62-4.64H897a4.62 4.62 0 0 1 4.61 4.64v-2.63a4.62 4.62 0 0 0-4.61-4.63" clip-rule="evenodd"/></clipPath><clipPath id="clip-path-157" transform="translate(-534 -436.19)"><path fill="none" d="M845 533.54h86.62v98.29H845z"/></clipPath><clipPath id="clip-path-159" transform="translate(-534 -436.19)"><path fill="none" d="M844 533h68v99h-68z"/></clipPath><clipPath id="clip-path-160" transform="translate(-534 -436.19)"><path fill="none" d="M862.86 541.86h4.7v13.99h-4.7z"/></clipPath><clipPath id="clip-path-161" transform="translate(-534 -436.19)"><path fill="none" d="M845 533h87v99h-87z"/></clipPath><clipPath id="clip-path-162" transform="translate(-534 -436.19)"><path fill="none" d="M870.87 541.86h11.45v13.99h-11.45z"/></clipPath><clipPath id="clip-path-164" transform="translate(-534 -436.19)"><path fill="none" d="M898.19 552.9h-40.25a4.72 4.72 0 0 1-3.39-1.42 4.62 4.62 0 0 0 4.61 4.36H897a4.62 4.62 0 0 0 4.6-4.36 4.71 4.71 0 0 1-3.38 1.42" clip-rule="evenodd"/></clipPath><clipPath id="clip-path-166" transform="translate(-534 -436.19)"><path fill="none" d="M897 543.46a3 3 0 0 1 3 3v4.72a3 3 0 0 1-3 3h-37.84a3 3 0 0 1-3-3v-4.72a3 3 0 0 1 3-3zm0-3.21h-37.84a6.22 6.22 0 0 0-6.22 6.24v4.72a6.22 6.22 0 0 0 6.22 6.24H897a6.23 6.23 0 0 0 6.22-6.24v-4.72a6.23 6.23 0 0 0-6.22-6.24z"/></clipPath><clipPath id="clip-path-168" transform="translate(-534 -436.19)"><path fill="none" d="M893.43 535.14h-30.74a3.43 3.43 0 0 0-3.42 3.43v3.29h37.58v-3.29a3.43 3.43 0 0 0-3.42-3.43" clip-rule="evenodd"/></clipPath><clipPath id="clip-path-170" transform="translate(-534 -436.19)"><path fill="none" d="M867.71 539h-3.53a.7.7 0 0 1 0-1.4h3.53a.7.7 0 1 1 0 1.4" clip-rule="evenodd"/></clipPath><clipPath id="clip-path-172" transform="translate(-534 -436.19)"><path fill="none" d="M874.81 539h-3.53a.7.7 0 0 1 0-1.4h3.53a.7.7 0 0 1 0 1.4" clip-rule="evenodd"/></clipPath><clipPath id="clip-path-174" transform="translate(-534 -436.19)"><path fill="none" d="M881.91 539h-3.53a.7.7 0 1 1 0-1.4h3.53a.7.7 0 0 1 0 1.4" clip-rule="evenodd"/></clipPath><clipPath id="clip-path-176" transform="translate(-534 -436.19)"><path fill="none" d="M889 539h-3.52a.7.7 0 1 1 0-1.4H889a.7.7 0 0 1 0 1.4" clip-rule="evenodd"/></clipPath><clipPath id="clip-path-178" transform="translate(-534 -436.19)"><path fill="none" d="M865.8 535.14h-3.11a3.43 3.43 0 0 0-3.42 3.43v3.29h3.11v-3.29a3.43 3.43 0 0 1 3.42-3.43" clip-rule="evenodd"/></clipPath><clipPath id="clip-path-180" transform="translate(-534 -436.19)"><path fill="none" d="M893.43 535.14h-5.86a3.42 3.42 0 0 1 3.41 3.43v3.29h5.87v-3.29a3.43 3.43 0 0 0-3.42-3.43" clip-rule="evenodd"/></clipPath><clipPath id="clip-path-182" transform="translate(-534 -436.19)"><path fill="none" d="M860.87 540.25v-1.68a1.83 1.83 0 0 1 1.82-1.82h30.74a1.82 1.82 0 0 1 1.82 1.82v1.68zm32.56-6.71h-30.74a5 5 0 0 0-5 5v4.89h40.78v-4.89a5 5 0 0 0-5.04-5z"/></clipPath><clipPath id="clip-path-184" transform="translate(-534 -436.19)"><path fill="none" d="M860 562.35h36.17a3.26 3.26 0 0 0 0-6.51H860a3.26 3.26 0 0 0 0 6.51" clip-rule="evenodd"/></clipPath><clipPath id="clip-path-186" transform="translate(-534 -436.19)"><path fill="none" d="M860 560.74a1.65 1.65 0 0 1 0-3.29h36.17a1.65 1.65 0 0 1 0 3.29zm0 3.22h36.17a4.86 4.86 0 0 0 0-9.72H860a4.86 4.86 0 0 0 0 9.72z"/></clipPath><clipPath id="clip-path-188" transform="translate(-534 -436.19)"><path fill="none" d="M897.16 562.35h-37.89l-10.08 11.59a10.51 10.51 0 0 0-2.39 8.95l8.36 42.53a5.94 5.94 0 0 0 5.83 4.8h34.46a5.94 5.94 0 0 0 5.82-4.8l8.36-42.53a10.51 10.51 0 0 0-2.39-8.95z" clip-rule="evenodd"/></clipPath><clipPath id="clip-path-190" transform="translate(-534 -436.19)"><path fill="none" d="M907.24 573.94l-10.08-11.59h-9.71l10.09 11.59a10.57 10.57 0 0 1 2.39 8.95l-8.37 42.53a5.92 5.92 0 0 1-5.82 4.8h9.71a5.94 5.94 0 0 0 5.82-4.8l8.36-42.53a10.51 10.51 0 0 0-2.39-8.95" clip-rule="evenodd"/></clipPath><clipPath id="clip-path-192" transform="translate(-534 -436.19)"><path fill="none" d="M903.43 580.05a10.58 10.58 0 0 1-10.79 8.14c-4.48 0-8.2-4.14-12.31-8.17a34.38 34.38 0 0 0 23.11 0" clip-rule="evenodd"/></clipPath><clipPath id="clip-path-194" transform="translate(-534 -436.19)"><path fill="none" d="M885.81 583.12c2.7 2.4 4.76 3.49 6.82 3.49a9 9 0 0 0 6.84-2.62 8.78 8.78 0 0 0 1.12-1.41 35.17 35.17 0 0 1-14.78.54zm16 3.1a12.19 12.19 0 0 1-9.15 3.61c-3.15 0-5.92-1.54-9.33-4.65-.58-.53-1.17-1.1-1.9-1.81l-1.89-1.87-.31-.3a1.61 1.61 0 0 1 1.64-2.67 32.76 32.76 0 0 0 22.06 0 1.61 1.61 0 0 1 2.05 2 13.21 13.21 0 0 1-3.2 5.69zm3.16-5.66l-1.52-.48 1.54.43z"/></clipPath><clipPath id="clip-path-196" transform="translate(-534 -436.19)"><path fill="none" d="M903.42 581.66l-7.78 39.55a3.29 3.29 0 0 1-3.22 2.66H864a3.29 3.29 0 0 1-3.22-2.66L853 581.66a4.17 4.17 0 0 1 .22-2.32 12.49 12.49 0 0 1 .82-1.33l1.39-1.59c2-2 5.51-3.94 11.18-3.94s9.8 3.74 13.7 7.57c4.11 4 7.83 8.17 12.31 8.17a10.58 10.58 0 0 0 10.79-8.14 4.2 4.2 0 0 1 0 1.58" clip-rule="evenodd"/></clipPath><clipPath id="clip-path-198" transform="translate(-534 -436.19)"><path fill="none" d="M892.63 589.83c-3.15 0-5.92-1.54-9.32-4.65a54.7 54.7 0 0 1-1.91-1.81l-1.89-1.87-.31-.3c-5.13-5-8.41-7.11-12.58-7.11-4.52 0-7.77 1.3-10 3.44l-1.31 1.47a9.34 9.34 0 0 0-.62 1 2.59 2.59 0 0 0-.1 1.35l7.77 39.55a1.69 1.69 0 0 0 1.65 1.36h28.41a1.69 1.69 0 0 0 1.65-1.36l6.62-33.68a12.55 12.55 0 0 1-8.06 2.61zM905 582l-7.78 39.55a4.88 4.88 0 0 1-4.79 4H864a4.88 4.88 0 0 1-4.79-4L851.44 582a5.78 5.78 0 0 1 .3-3.21 1.22 1.22 0 0 1 .07-.17 14.19 14.19 0 0 1 .94-1.51.52.52 0 0 1 .1-.11l1.38-1.6.1-.1c2.85-2.75 6.91-4.38 12.29-4.38s9.13 2.43 14.82 8l.32.31a184.4 184.4 0 0 0 3.7 3.59c2.87 2.62 5 3.81 7.17 3.81a9 9 0 0 0 6.85-2.62 10.06 10.06 0 0 0 2.39-4.34 1.6 1.6 0 0 1 3.12.12A5.81 5.81 0 0 1 905 582z"/></clipPath><clipPath id="clip-path-200" transform="translate(-534 -436.19)"><path fill="none" d="M864.08 625.42l-8.36-42.53a10.51 10.51 0 0 1 2.39-8.95l10.08-11.59h-4.67l-10.09 11.59a10.53 10.53 0 0 0-2.38 8.95l8.36 42.53a5.94 5.94 0 0 0 5.82 4.8h4.67a5.94 5.94 0 0 1-5.82-4.8" clip-rule="evenodd"/></clipPath><clipPath id="clip-path-202" transform="translate(-534 -436.19)"><path fill="none" d="M861.69 562.67l2.85-6.5-1.47-.65-2.85 6.51 1.47.64z"/></clipPath><clipPath id="clip-path-204" transform="translate(-534 -436.19)"><path fill="none" d="M866.91 562.67l2.86-6.5-1.47-.65-2.85 6.51 1.46.64z"/></clipPath><clipPath id="clip-path-206" transform="translate(-534 -436.19)"><path fill="none" d="M872.14 562.67l2.85-6.5-1.46-.65-2.85 6.51 1.46.64z"/></clipPath><clipPath id="clip-path-208" transform="translate(-534 -436.19)"><path fill="none" d="M877.37 562.67l2.85-6.5-1.46-.65-2.86 6.51 1.47.64z"/></clipPath><clipPath id="clip-path-210" transform="translate(-534 -436.19)"><path fill="none" d="M882.6 562.67l2.85-6.5-1.47-.65-2.85 6.51 1.47.64z"/></clipPath><clipPath id="clip-path-212" transform="translate(-534 -436.19)"><path fill="none" d="M887.83 562.67l2.85-6.5-1.47-.65-2.85 6.51 1.47.64z"/></clipPath><clipPath id="clip-path-214" transform="translate(-534 -436.19)"><path fill="none" d="M893.05 562.67l2.85-6.5-1.46-.65-2.85 6.51 1.46.64z"/></clipPath><clipPath id="clip-path-216" transform="translate(-534 -436.19)"><path fill="none" d="M888 605a1.57 1.57 0 1 1 1.57 1.58A1.57 1.57 0 0 1 888 605zm-3.2 0a4.77 4.77 0 1 0 4.77-4.78 4.77 4.77 0 0 0-4.81 4.78z"/></clipPath><clipPath id="clip-path-218" transform="translate(-534 -436.19)"><path fill="none" d="M874.85 600a1.79 1.79 0 1 0 1.79-1.8 1.8 1.8 0 0 0-1.79 1.8" clip-rule="evenodd"/></clipPath><clipPath id="clip-path-220" transform="translate(-534 -436.19)"><path fill="none" d="M872.47 614.07a1.79 1.79 0 1 0 1.79-1.8 1.79 1.79 0 0 0-1.79 1.8" clip-rule="evenodd"/></clipPath><clipPath id="clip-path-222" transform="translate(-534 -436.19)"><path fill="none" d="M862 602.32a1.8 1.8 0 1 0 1.79-1.8 1.79 1.79 0 0 0-1.79 1.8" clip-rule="evenodd"/></clipPath><clipPath id="clip-path-224" transform="translate(-534 -436.19)"><path fill="none" d="M865.78 586.76a1.57 1.57 0 1 1 1.57 1.57 1.57 1.57 0 0 1-1.57-1.57zm-3.2 0a4.77 4.77 0 1 0 4.77-4.79 4.79 4.79 0 0 0-4.77 4.79z"/></clipPath><clipPath id="clip-path-226" transform="translate(-534 -436.19)"><path fill="none" d="M896.43 564l9.57 11a8.94 8.94 0 0 1 2 7.59l-8.36 42.53a4.34 4.34 0 0 1-4.25 3.51H861a4.34 4.34 0 0 1-4.26-3.51l-8.36-42.53a9 9 0 0 1 2-7.59l9.62-11zm1.46-3.22h-39.34L848 572.88a12.14 12.14 0 0 0-2.75 10.32l8.36 42.53a7.55 7.55 0 0 0 7.4 6.1h34.46a7.54 7.54 0 0 0 7.39-6.1l8.36-42.53a12.13 12.13 0 0 0-2.75-10.32l-10.08-11.59z"/></clipPath><clipPath id="clip-path-232" transform="translate(-534 -436.19)"><path fill="none" d="M893.4 550.09h-17.72a.81.81 0 0 0 0 1.61h17.72a.81.81 0 0 0 0-1.61z"/></clipPath><clipPath id="clip-path-234" transform="translate(-534 -436.19)"><path fill="none" d="M865.28 564.06h22.42v64.27h-22.42z"/></clipPath><clipPath id="clip-path-236" transform="translate(-534 -436.19)"><path fill="none" d="M865 564h23v65h-23z"/></clipPath><clipPath id="clip-path-237" transform="translate(-534 -436.19)"><path fill="none" d="M883.11 564.06h-13.24l-4.15 14.76a11.7 11.7 0 0 0-.4 4.08l3.44 45.43h15.46l3.45-45.43a12 12 0 0 0-.41-4.08z" clip-rule="evenodd"/></clipPath><clipPath id="clip-path-239" transform="translate(-534 -436.19)"><path fill="none" d="M696.05 629.06H667a2 2 0 0 1-2-2V623a2 2 0 0 1 2-2h29.09a2 2 0 0 1 2 2v4.11a2 2 0 0 1-2 2" clip-rule="evenodd"/></clipPath><clipPath id="clip-path-241" transform="translate(-534 -436.19)"><path fill="none" d="M696.05 627.45a.36.36 0 0 0 .36-.36V623a.36.36 0 0 0-.36-.35H667a.36.36 0 0 0-.36.35v4.11a.36.36 0 0 0 .36.36zm0 3.23H667a3.58 3.58 0 0 1-3.57-3.59V623a3.58 3.58 0 0 1 3.57-3.59h29.09a3.58 3.58 0 0 1 3.57 3.59v4.11a3.58 3.58 0 0 1-3.61 3.57z"/></clipPath><clipPath id="clip-path-243" transform="translate(-534 -436.19)"><path fill="none" d="M665.43 604.9h-29.09a2 2 0 0 1-2-2v-4.11a2 2 0 0 1 2-2h29.09a2 2 0 0 1 2 2v4.11a2 2 0 0 1-2 2" clip-rule="evenodd"/></clipPath><clipPath id="clip-path-245" transform="translate(-534 -436.19)"><path fill="none" d="M665.43 602.68h-29.09a2 2 0 0 1-2-2v2.22a2 2 0 0 0 2 2h29.09a2 2 0 0 0 2-2v-2.22a2 2 0 0 1-2 2" clip-rule="evenodd"/></clipPath><clipPath id="clip-path-247" transform="translate(-534 -436.19)"><path fill="none" d="M649.45 596.85h1.61v3.62h-1.61z"/></clipPath><clipPath id="clip-path-249" transform="translate(-534 -436.19)"><path fill="none" d="M653.09 596.85h1.61v4.95h-1.61z"/></clipPath><clipPath id="clip-path-251" transform="translate(-534 -436.19)"><path fill="none" d="M665.43 596.85h-4.3a2 2 0 0 1 2 2v4.11a2 2 0 0 1-2 2h4.3a2 2 0 0 0 2-2v-4.11a2 2 0 0 0-2-2" clip-rule="evenodd"/></clipPath><clipPath id="clip-path-253" transform="translate(-534 -436.19)"><path fill="none" d="M643.64 602.93v-4.11a2 2 0 0 1 2-2h-5a2 2 0 0 0-2 2v4.11a2 2 0 0 0 2 2h5a2 2 0 0 1-2-2" clip-rule="evenodd"/></clipPath><clipPath id="clip-path-255" transform="translate(-534 -436.19)"><path fill="none" d="M665.43 603.29a.36.36 0 0 0 .36-.36v-4.11a.36.36 0 0 0-.36-.36h-29.09a.36.36 0 0 0-.36.36v4.11a.36.36 0 0 0 .36.36zm0 3.23h-29.09a3.58 3.58 0 0 1-3.57-3.59v-4.11a3.58 3.58 0 0 1 3.57-3.59h29.09a3.58 3.58 0 0 1 3.57 3.59v4.11a3.58 3.58 0 0 1-3.57 3.59z"/></clipPath><clipPath id="clip-path-257" transform="translate(-534 -436.19)"><path fill="none" d="M665.43 613h-29.09a2 2 0 0 1-2-2v-4.1a2 2 0 0 1 2-2h29.09a2 2 0 0 1 2 2v4.1a2 2 0 0 1-2 2" clip-rule="evenodd"/></clipPath><clipPath id="clip-path-259" transform="translate(-534 -436.19)"><path fill="none" d="M665.43 610.74h-29.09a2 2 0 0 1-2-2V611a2 2 0 0 0 2 2h29.09a2 2 0 0 0 2-2v-2.22a2 2 0 0 1-2 2" clip-rule="evenodd"/></clipPath><clipPath id="clip-path-261" transform="translate(-534 -436.19)"><path fill="none" d="M653.09 604.9h1.61v4.95h-1.61z"/></clipPath><clipPath id="clip-path-263" transform="translate(-534 -436.19)"><path fill="none" d="M665.43 604.9h-4.3a2 2 0 0 1 2 2v4.1a2 2 0 0 1-2 2h4.3a2 2 0 0 0 2-2v-4.1a2 2 0 0 0-2-2" clip-rule="evenodd"/></clipPath><clipPath id="clip-path-265" transform="translate(-534 -436.19)"><path fill="none" d="M646.62 611v-4.1a2 2 0 0 1 2-2h-5a2 2 0 0 0-2 2v4.1a2 2 0 0 0 2 2h5a2 2 0 0 1-2-2" clip-rule="evenodd"/></clipPath><clipPath id="clip-path-267" transform="translate(-534 -436.19)"><path fill="none" d="M665.43 611.34a.36.36 0 0 0 .36-.36v-4.1a.36.36 0 0 0-.36-.36h-29.09a.36.36 0 0 0-.36.36V611a.36.36 0 0 0 .36.36zm0 3.23h-29.09a3.58 3.58 0 0 1-3.57-3.59v-4.1a3.58 3.58 0 0 1 3.57-3.59h29.09a3.58 3.58 0 0 1 3.57 3.59V611a3.58 3.58 0 0 1-3.57 3.57z"/></clipPath><clipPath id="clip-path-269" transform="translate(-534 -436.19)"><path fill="none" d="M665.43 621h-29.09a2 2 0 0 1-2-2v-4.11a2 2 0 0 1 2-2h29.09a2 2 0 0 1 2 2V619a2 2 0 0 1-2 2" clip-rule="evenodd"/></clipPath><clipPath id="clip-path-271" transform="translate(-534 -436.19)"><path fill="none" d="M665.43 618.79h-29.09a2 2 0 0 1-2-2V619a2 2 0 0 0 2 2h29.09a2 2 0 0 0 2-2v-2.22a2 2 0 0 1-2 2" clip-rule="evenodd"/></clipPath><clipPath id="clip-path-273" transform="translate(-534 -436.19)"><path fill="none" d="M649.45 612.95h1.61v3.62h-1.61z"/></clipPath><clipPath id="clip-path-275" transform="translate(-534 -436.19)"><path fill="none" d="M653.09 612.95h1.61v4.95h-1.61z"/></clipPath><clipPath id="clip-path-277" transform="translate(-534 -436.19)"><path fill="none" d="M665.43 613h-4.3a2 2 0 0 1 2 2v4a2 2 0 0 1-2 2h4.3a2 2 0 0 0 2-2v-4.11a2 2 0 0 0-2-2" clip-rule="evenodd"/></clipPath><clipPath id="clip-path-279" transform="translate(-534 -436.19)"><path fill="none" d="M643.64 619v-4.11a2 2 0 0 1 2-2h-5a2 2 0 0 0-2 2V619a2 2 0 0 0 2 2h5a2 2 0 0 1-2-2" clip-rule="evenodd"/></clipPath><clipPath id="clip-path-281" transform="translate(-534 -436.19)"><path fill="none" d="M665.43 619.39a.36.36 0 0 0 .36-.35v-4.11a.36.36 0 0 0-.36-.36h-29.09a.36.36 0 0 0-.36.36V619a.36.36 0 0 0 .36.35zm0 3.24h-29.09a3.58 3.58 0 0 1-3.57-3.59v-4.11a3.58 3.58 0 0 1 3.57-3.59h29.09a3.58 3.58 0 0 1 3.57 3.59V619a3.58 3.58 0 0 1-3.57 3.63z"/></clipPath><clipPath id="clip-path-283" transform="translate(-534 -436.19)"><path fill="none" d="M665.43 629.06h-29.09a2 2 0 0 1-2-2V623a2 2 0 0 1 2-2h29.09a2 2 0 0 1 2 2v4.11a2 2 0 0 1-2 2" clip-rule="evenodd"/></clipPath><clipPath id="clip-path-285" transform="translate(-534 -436.19)"><path fill="none" d="M665.43 626.85h-29.09a2 2 0 0 1-2-2v2.22a2 2 0 0 0 2 2h29.09a2 2 0 0 0 2-2v-2.22a2 2 0 0 1-2 2" clip-rule="evenodd"/></clipPath><clipPath id="clip-path-287" transform="translate(-534 -436.19)"><path fill="none" d="M656.61 621.01h1.61v3.62h-1.61z"/></clipPath><clipPath id="clip-path-289" transform="translate(-534 -436.19)"><path fill="none" d="M653.09 621.01h1.61v4.95h-1.61z"/></clipPath><clipPath id="clip-path-291" transform="translate(-534 -436.19)"><path fill="none" d="M665.43 621h-4.3a2 2 0 0 1 2 2v4.11a2 2 0 0 1-2 2h4.3a2 2 0 0 0 2-2V623a2 2 0 0 0-2-2" clip-rule="evenodd"/></clipPath><clipPath id="clip-path-293" transform="translate(-534 -436.19)"><path fill="none" d="M646.62 627.09V623a2 2 0 0 1 2-2h-5a2 2 0 0 0-2 2v4.11a2 2 0 0 0 2 2h5a2 2 0 0 1-2-2" clip-rule="evenodd"/></clipPath><clipPath id="clip-path-295" transform="translate(-534 -436.19)"><path fill="none" d="M665.43 627.45a.36.36 0 0 0 .36-.36V623a.36.36 0 0 0-.36-.35h-29.09a.36.36 0 0 0-.36.35v4.11a.36.36 0 0 0 .36.36zm0 3.23h-29.09a3.58 3.58 0 0 1-3.57-3.59V623a3.58 3.58 0 0 1 3.57-3.59h29.09A3.58 3.58 0 0 1 669 623v4.11a3.58 3.58 0 0 1-3.57 3.57z"/></clipPath><clipPath id="clip-path-297" transform="translate(-534 -436.19)"><path fill="none" d="M1050.72 657.48h-28.9a2 2 0 0 1-2-2v-4.18a2 2 0 0 1 2-2h28.9a2 2 0 0 1 2 2v4.18a2 2 0 0 1-2 2" clip-rule="evenodd"/></clipPath><clipPath id="clip-path-299" transform="translate(-534 -436.19)"><path fill="none" d="M1050.72 655.22h-28.9a2 2 0 0 1-2-2v2.26a2 2 0 0 0 2 2h28.9a2 2 0 0 0 2-2v-2.28a2 2 0 0 1-2 2" clip-rule="evenodd"/></clipPath><clipPath id="clip-path-301" transform="translate(-534 -436.19)"><path fill="none" d="M1038.46 649.26h1.6v5.05h-1.6z"/></clipPath><clipPath id="clip-path-303" transform="translate(-534 -436.19)"><path fill="none" d="M1050.72 649.26h-4.27a2 2 0 0 1 2 2v4.18a2 2 0 0 1-2 2h4.27a2 2 0 0 0 2-2v-4.18a2 2 0 0 0-2-2" clip-rule="evenodd"/></clipPath><clipPath id="clip-path-305" transform="translate(-534 -436.19)"><path fill="none" d="M1032 655.46v-4.18a2 2 0 0 1 2-2h-4.94a2 2 0 0 0-2 2v4.18a2 2 0 0 0 2 2h4.94a2 2 0 0 1-2-2" clip-rule="evenodd"/></clipPath><clipPath id="clip-path-307" transform="translate(-534 -436.19)"><path fill="none" d="M1050.72 655.83a.36.36 0 0 0 .36-.37v-4.18a.37.37 0 0 0-.36-.37h-28.9a.37.37 0 0 0-.36.37v4.18a.36.36 0 0 0 .36.37zm0 3.3h-28.9a3.61 3.61 0 0 1-3.55-3.67v-4.18a3.61 3.61 0 0 1 3.55-3.66h28.9a3.61 3.61 0 0 1 3.55 3.66v4.18a3.61 3.61 0 0 1-3.55 3.67z"/></clipPath><clipPath id="clip-path-309" transform="translate(-534 -436.19)"><path fill="none" d="M1050.72 665.69h-28.9a2 2 0 0 1-2-2v-4.19a2 2 0 0 1 2-2h28.9a2 2 0 0 1 2 2v4.19a2 2 0 0 1-2 2" clip-rule="evenodd"/></clipPath><clipPath id="clip-path-311" transform="translate(-534 -436.19)"><path fill="none" d="M1050.72 663.43h-28.9a2 2 0 0 1-2-2v2.26a2 2 0 0 0 2 2h28.9a2 2 0 0 0 2-2v-2.26a2 2 0 0 1-2 2" clip-rule="evenodd"/></clipPath><clipPath id="clip-path-313" transform="translate(-534 -436.19)"><path fill="none" d="M1034.84 657.48h1.6v3.69h-1.6z"/></clipPath><clipPath id="clip-path-315" transform="translate(-534 -436.19)"><path fill="none" d="M1038.46 657.48h1.6v5.05h-1.6z"/></clipPath><clipPath id="clip-path-317" transform="translate(-534 -436.19)"><path fill="none" d="M1050.72 657.48h-4.27a2 2 0 0 1 2 2v4.19a2 2 0 0 1-2 2h4.27a2 2 0 0 0 2-2v-4.19a2 2 0 0 0-2-2" clip-rule="evenodd"/></clipPath><clipPath id="clip-path-319" transform="translate(-534 -436.19)"><path fill="none" d="M1029.08 663.68v-4.19a2 2 0 0 1 2-2h-4.94a2 2 0 0 0-1.95 2v4.19a2 2 0 0 0 1.95 2h4.86a2 2 0 0 1-2-2" clip-rule="evenodd"/></clipPath><clipPath id="clip-path-321" transform="translate(-534 -436.19)"><path fill="none" d="M1050.72 664a.36.36 0 0 0 .36-.36v-4.19a.36.36 0 0 0-.36-.36h-28.9a.36.36 0 0 0-.36.36v4.19a.36.36 0 0 0 .36.36zm0 3.3h-28.9a3.61 3.61 0 0 1-3.55-3.66v-4.19a3.61 3.61 0 0 1 3.55-3.66h28.9a3.61 3.61 0 0 1 3.55 3.66v4.19a3.61 3.61 0 0 1-3.55 3.7z"/></clipPath><clipPath id="clip-path-323" transform="translate(-534 -436.19)"><path fill="none" d="M1046.22 649.08h-28.91a2 2 0 0 1-1.95-2v-4.19a2 2 0 0 1 1.95-2h28.91a2 2 0 0 1 2 2v4.19a2 2 0 0 1-2 2" clip-rule="evenodd"/></clipPath><clipPath id="clip-path-325" transform="translate(-534 -436.19)"><path fill="none" d="M1046.22 646.82h-28.91a2 2 0 0 1-1.95-2v2.26a2 2 0 0 0 1.95 2h28.91a2 2 0 0 0 2-2v-2.26a2 2 0 0 1-2 2" clip-rule="evenodd"/></clipPath><clipPath id="clip-path-327" transform="translate(-534 -436.19)"><path fill="none" d="M1037.45 640.87h1.6v3.69h-1.6z"/></clipPath><clipPath id="clip-path-329" transform="translate(-534 -436.19)"><path fill="none" d="M1033.96 640.87h1.6v5.05h-1.6z"/></clipPath><clipPath id="clip-path-331" transform="translate(-534 -436.19)"><path fill="none" d="M1046.22 640.87h-4.28a2 2 0 0 1 2 2v4.19a2 2 0 0 1-2 2h4.28a2 2 0 0 0 2-2v-4.19a2 2 0 0 0-2-2" clip-rule="evenodd"/></clipPath><clipPath id="clip-path-333" transform="translate(-534 -436.19)"><path fill="none" d="M1027.53 647.07v-4.19a2 2 0 0 1 2-2h-4.93a2 2 0 0 0-1.95 2v4.19a2 2 0 0 0 1.95 2h4.93a2 2 0 0 1-2-2" clip-rule="evenodd"/></clipPath><clipPath id="clip-path-335" transform="translate(-534 -436.19)"><path fill="none" d="M1046.22 647.44a.37.37 0 0 0 .35-.37v-4.19a.36.36 0 0 0-.35-.36h-28.91a.36.36 0 0 0-.35.36v4.19a.37.37 0 0 0 .35.37zm0 3.29h-28.91a3.61 3.61 0 0 1-3.55-3.66v-4.19a3.61 3.61 0 0 1 3.55-3.66h28.91a3.61 3.61 0 0 1 3.55 3.66v4.19a3.61 3.61 0 0 1-3.55 3.66z"/></clipPath><clipPath id="clip-path-337" transform="translate(-534 -436.19)"><path fill="none" d="M692 630.65v71.28h-42.85a16.12 16.12 0 0 1-16.09-16.14v-56.17l-15.55-20h58.94A15.56 15.56 0 0 1 692 624.94l-6.75 5.71z" clip-rule="evenodd"/></clipPath><clipPath id="clip-path-339" transform="translate(-534 -436.19)"><path fill="none" d="M689.47 616.05h-6.75a1.34 1.34 0 1 0 0 2.68h6.75a1.34 1.34 0 1 0 0-2.68z"/></clipPath><clipPath id="clip-path-341" transform="translate(-534 -436.19)"><path fill="none" d="M646.06 618.2h-2.44a1.34 1.34 0 1 0 0 2.68h2.44a1.34 1.34 0 1 0 0-2.68z"/></clipPath><clipPath id="clip-path-343" transform="translate(-534 -436.19)"><path fill="none" d="M685.71 674h-2.44a1.34 1.34 0 1 0 0 2.68h2.44a1.34 1.34 0 1 0 0-2.68z"/></clipPath><clipPath id="clip-path-345" transform="translate(-534 -436.19)"><path fill="none" d="M654.25 689.21a16.12 16.12 0 0 1-16.09-16.14v-45.5a31.07 31.07 0 0 0-5.71-18h-14.94l15.55 20v56.17a16.12 16.12 0 0 0 16.09 16.14H692v-12.67z" clip-rule="evenodd"/></clipPath><clipPath id="clip-path-347" transform="translate(-534 -436.19)"><path fill="none" d="M685.41 631.8a1.39 1.39 0 0 1-.9-2.46l6.26-5.26a14.21 14.21 0 0 0-14.2-13.29h-56.4L634 628.53a1.38 1.38 0 0 1 .3.85v56.1a14.75 14.75 0 0 0 14.78 14.73h41.72V631.8zm3.83-2.78h3a1.4 1.4 0 0 1 1.4 1.39v71.2a1.4 1.4 0 0 1-1.4 1.39h-43.12a17.55 17.55 0 0 1-17.58-17.52v-55.62l-15.34-19.61a1.39 1.39 0 0 1 1.1-2.25h59.27a17 17 0 0 1 17 16.69 1.42 1.42 0 0 1-.5 1.09z"/></clipPath><clipPath id="clip-path-349" transform="translate(-534 -436.19)"><path fill="none" d="M618.05 609.61a15.5 15.5 0 0 0-15.54 15.47v4.39h31.07v-4.39a15.5 15.5 0 0 0-15.53-15.47" clip-rule="evenodd"/></clipPath><clipPath id="clip-path-351" transform="translate(-534 -436.19)"><path fill="none" d="M603.72 627.78v-3a14.33 14.33 0 0 1 28.65 0v3zM618.05 608a17 17 0 0 0-17.15 16.79v4.37a1.4 1.4 0 0 0 1.41 1.38h31.47a1.4 1.4 0 0 0 1.41-1.38v-4.37A17 17 0 0 0 618.05 608z"/></clipPath><clipPath id="clip-path-353" transform="translate(-534 -436.19)"><path fill="none" d="M689.75 681.53h-25v4.39a15.53 15.53 0 0 1-15.59 15.47h56.22a15.53 15.53 0 0 0 15.59-15.47v-4.39z" clip-rule="evenodd"/></clipPath><clipPath id="clip-path-355" transform="translate(-534 -436.19)"><path fill="none" d="M713.21 681.53a15.54 15.54 0 0 1-15.56 14.63h-36.84a15.63 15.63 0 0 1-11.69 5.23h56.22a15.53 15.53 0 0 0 15.59-15.47v-4.39z" clip-rule="evenodd"/></clipPath><clipPath id="clip-path-357" transform="translate(-534 -436.19)"><path fill="none" d="M648.91 700.24a1.38 1.38 0 1 0 0 2.76 17 17 0 0 0 9.32-2.76zm70.3-14a14.1 14.1 0 0 1-14.17 14h-46.81a16.74 16.74 0 0 0 7.64-14v-3h53.34zm1.4-5.75h-56.13a1.39 1.39 0 0 0-1.4 1.38v4.37a14.1 14.1 0 0 1-14.17 14V703H705a16.88 16.88 0 0 0 17-16.79v-4.37a1.38 1.38 0 0 0-1.39-1.38z"/></clipPath><clipPath id="clip-path-359" transform="translate(-534 -436.19)"><path fill="none" d="M680.19 659.23a.63.63 0 0 1 .2-.26.66.66 0 0 0-.21.26zm-.09.16c-2.94 7.15-8.2 10.74-15.39 10.74a14.52 14.52 0 0 1-13-20.86l.34-.68.41-.84 1-2.11c2.09-5 2.86-9.79 1.56-14.42a16.49 16.49 0 0 0-1.11-2.85 10.26 10.26 0 0 1 7.18 5.84 15 15 0 0 1 1.2 4c.09.52.14 1 .19 1.52 0 .28.06 1 .06 1a2.43 2.43 0 0 0 0 .3 1.26 1.26 0 0 0 .2.51 1.38 1.38 0 0 0 2.16.23c3.08-3.09 4.34-6.17 3.92-10.53a13.77 13.77 0 0 1 4.34 13.56 1.39 1.39 0 0 0 2 1.5 8.69 8.69 0 0 0 1-.69 12.18 12.18 0 0 0 2-2 13.36 13.36 0 0 0 2-3.74 23.79 23.79 0 0 1-.06 19.52zm2.55 1.1a1.41 1.41 0 0 0 .11-.54 6.4 6.4 0 0 1-.2.72 7.15 7.15 0 0 0 .2-.72h-1.39l1.27.56zM667.58 627a1.38 1.38 0 0 0-2 1.56c.94 3.89.77 6.43-.64 8.76a17.54 17.54 0 0 0-1.35-4.29c-2.14-4.54-6.16-7.44-12.37-7.87a1.4 1.4 0 0 0-1.2 2.24 13.54 13.54 0 0 1 2.32 4.59c1.1 3.91.43 8.1-1.44 12.58-.28.66-.57 1.3-.9 2l-.4.81-.34.69a17.3 17.3 0 0 0 15.43 24.88c8.31 0 14.58-4.26 17.94-12.43 3.63-8.31 3.22-17.78-1.92-25.38a1.38 1.38 0 0 0-2.53.69 11 11 0 0 1-1.88 5.6 16.14 16.14 0 0 0-8.72-14.43z"/></clipPath><clipPath id="clip-path-361" transform="translate(-534 -436.19)"><path fill="none" d="M659.46 630.93c1.38 2.05 1.35 6 .24 7.14a.91.91 0 0 0 .06 1.34 1 1 0 0 0 1.42 0c1.77-1.83 1.81-6.72 0-9.45a1 1 0 0 0-1.39-.29.92.92 0 0 0-.33 1.26z"/></clipPath><clipPath id="clip-path-363" transform="translate(-534 -436.19)"><path fill="none" d="M672.9 635.93a9.79 9.79 0 0 1-.76 5.56 8.7 8.7 0 0 1-.59 1.11 3.5 3.5 0 0 1-.25.35 1 1 0 0 0 .13 1.33.89.89 0 0 0 1.28-.12 9.4 9.4 0 0 0 1.09-1.87 11.79 11.79 0 0 0 .91-6.66.92.92 0 0 0-1.05-.78.94.94 0 0 0-.76 1.08z"/></clipPath><clipPath id="clip-path-365" transform="translate(-534 -436.19)"><path fill="none" d="M681.74 640.9c.78 2.43-.14 7.4-1.36 9.08a.93.93 0 0 0 .23 1.32 1 1 0 0 0 1.35-.22c1.56-2.15 2.59-7.74 1.62-10.75a1 1 0 0 0-1.21-.62 1 1 0 0 0-.63 1.19z"/></clipPath><clipPath id="clip-path-367" transform="translate(-534 -436.19)"><path fill="none" d="M671.19 662.31a8.48 8.48 0 1 1 0-12 8.45 8.45 0 0 1 0 12zm-14-14a11.26 11.26 0 1 0 15.92 0 11.29 11.29 0 0 0-15.87.02z"/></clipPath><clipPath id="clip-path-369" transform="translate(-534 -436.19)"><path fill="none" d="M660.22 655.23h3a1.09 1.09 0 0 0 0-2.15h-3a1.09 1.09 0 0 0 0 2.15z"/></clipPath><clipPath id="clip-path-371" transform="translate(-534 -436.19)"><path fill="none" d="M667.18 655.23h3a1.09 1.09 0 0 0 0-2.15h-3a1.09 1.09 0 0 0 0 2.15z"/></clipPath><clipPath id="clip-path-373" transform="translate(-534 -436.19)"><path fill="none" d="M662 660.33a3 3 0 1 0 2.95-3 2.95 2.95 0 0 0-2.95 3" clip-rule="evenodd"/></clipPath><clipPath id="clip-path-375" transform="translate(-534 -436.19)"><path fill="none" d="M624.3 650.94h-8.59c-2.26 1.94-4.58.08-7.32 0h-6.67c-2.65.55-4.05 1-7 0h-5.49a7.67 7.67 0 0 0-7.67 7.68v5.86c1.22 4.66.29 8.84 0 13.68 0 .4.07.8.11 1.21.43 3.61 1.4 7.35-.1 10.91V693.68a7.67 7.67 0 0 0 7.67 7.68h3.39c4.08-.64 7.79-1.1 12.11 0h10.85c2.92.29 5.71-1.56 8.67 0a7.68 7.68 0 0 0 7.68-7.68v-2.83c-.9-4.06-1.36-7.31 0-11.34v-6.38-1c-2.27-3.93-.42-7.64 0-11.28v-2.24a7.68 7.68 0 0 0-7.68-7.68" clip-rule="evenodd"/></clipPath><clipPath id="clip-path-377" transform="translate(-534 -436.19)"><path fill="none" d="M632 693.88v-2.61a27.17 27.17 0 0 1-1-4.91 20.19 20.19 0 0 0 1 7.52" clip-rule="evenodd"/></clipPath><clipPath id="clip-path-379" transform="translate(-534 -436.19)"><path fill="none" d="M624.3 650.94h-8.59c-2.26 2-4.58.08-7.32 0h-6.67c-2.65.58-4.05 1.06-7 0h-5.49a7.85 7.85 0 0 0-7.67 8v2.71a7.85 7.85 0 0 1 7.67-8h5.49c2.9 1.06 4.3.58 7 0h6.67c2.74.09 5.06 2 7.32 0h8.59a7.83 7.83 0 0 1 7.7 7.75V659a7.86 7.86 0 0 0-7.68-8" clip-rule="evenodd"/></clipPath><clipPath id="clip-path-381" transform="translate(-534 -436.19)"><path fill="none" d="M631 669.19a10.14 10.14 0 0 0 1 5.92v1-2.75-1a9.41 9.41 0 0 1-1-3.17" clip-rule="evenodd"/></clipPath><clipPath id="clip-path-383" transform="translate(-534 -436.19)"><path fill="none" d="M624.64 690.66H616c-2.27 2-4.6.09-7.36 0H602c-2.67.55-4.07 1-7 0h-5.5a5.62 5.62 0 1 0 0 10.7h3.4c4.09-.64 7.82-1.11 12.16 0h10.9c2.93.3 5.73-1.57 8.7 0a5.62 5.62 0 1 0 0-10.7" clip-rule="evenodd"/></clipPath><clipPath id="clip-path-385" transform="translate(-534 -436.19)"><path fill="none" d="M631.98 672.17l-1.26-9.42-3.03 14.61 3.72 5.25.57-10.44z" clip-rule="evenodd"/></clipPath><clipPath id="clip-path-387" transform="translate(-534 -436.19)"><path fill="none" d="M608.94 660.6l1.72-6.44 2.03 5.96-3.75.48z" clip-rule="evenodd"/></clipPath><clipPath id="clip-path-389" transform="translate(-534 -436.19)"><path fill="none" d="M632 693.88l-7.85-4.83a4.49 4.49 0 0 1-4.48 4.48l4.83 7.86a7.5 7.5 0 0 0 7.5-7.51" clip-rule="evenodd"/></clipPath><clipPath id="clip-path-391" transform="translate(-534 -436.19)"><path fill="none" d="M632 658.44l-7.85 4.84a4.49 4.49 0 0 0-4.48-4.48l4.83-7.86a7.5 7.5 0 0 1 7.5 7.5" clip-rule="evenodd"/></clipPath><clipPath id="clip-path-393" transform="translate(-534 -436.19)"><path fill="none" d="M623.83 685.19v4.09a4.62 4.62 0 0 1-4.65 4.6h-6.5a7.88 7.88 0 0 0-6.55 0H601l-1.29-2.1-1.71 2.09h-4.87a3 3 0 0 1-.6-.12 4.59 4.59 0 0 1-3.41-4.43v-7.61a17.27 17.27 0 0 0 0-3.81v-4.5c.14-1.85.61-3.71 0-5.76a6.61 6.61 0 0 1 0-.76v-2.76a4.61 4.61 0 0 1 4.64-4.59h7.63c2.43.4 4.78.86 7.2 0h10.6a4.62 4.62 0 0 1 4.65 4.59v2.08c-.75 2.09-.28 3.95 0 6.14v1.51a9.89 9.89 0 0 0-.47 4.56c0 .22.08.44.13.67a17.18 17.18 0 0 1 .35 6.08" clip-rule="evenodd"/></clipPath><clipPath id="clip-path-395" transform="translate(-534 -436.19)"><path fill="none" d="M601.16 657.38l2.95 4.29-5.36-3.06 2.41-1.23z" clip-rule="evenodd"/></clipPath><clipPath id="clip-path-397" transform="translate(-534 -436.19)"><path fill="none" d="M606.09 658.45l1.77 2.69-3.21-1.92 1.44-.77z" clip-rule="evenodd"/></clipPath><clipPath id="clip-path-399" transform="translate(-534 -436.19)"><path fill="none" d="M618.89 690.88a1.07 1.07 0 1 0 0-1.52 1.09 1.09 0 0 0 0 1.52" clip-rule="evenodd"/></clipPath><clipPath id="clip-path-401" transform="translate(-534 -436.19)"><path fill="none" d="M614.32 691a1.07 1.07 0 1 0 1.29-.8 1.07 1.07 0 0 0-1.29.8" clip-rule="evenodd"/></clipPath><clipPath id="clip-path-403" transform="translate(-534 -436.19)"><path fill="none" d="M600.4 656.05a1.06 1.06 0 0 0 1.31.75 1.07 1.07 0 1 0-1.31-.75" clip-rule="evenodd"/></clipPath><clipPath id="clip-path-405" transform="translate(-534 -436.19)"><path fill="none" d="M614.29 663a1.88 1.88 0 1 0 1.88-1.87 1.88 1.88 0 0 0-1.88 1.87" clip-rule="evenodd"/></clipPath><clipPath id="clip-path-407" transform="translate(-534 -436.19)"><path fill="none" d="M619.12 664.09a.8.8 0 1 0 .8-.81.8.8 0 0 0-.8.81" clip-rule="evenodd"/></clipPath><clipPath id="clip-path-409" transform="translate(-534 -436.19)"><path fill="none" d="M617.43 680.83l1.69-2.2-5.42-4.06 5.42-4.07-1.69-2.2-6 4.53-4.4-3.31a10.18 10.18 0 0 0-3.32-1.67 5.7 5.7 0 0 0-1.62-.27 7 7 0 0 0-.84 13.92 5.4 5.4 0 0 0 1.76-.11 10.32 10.32 0 0 0 4.17-1.9l4.25-3.19zm-12-3.55a7.43 7.43 0 0 1-3 1.4 3.55 3.55 0 0 1-.89.08 4.28 4.28 0 0 1-3.73-4 4.23 4.23 0 0 1 4.25-4.4 3.88 3.88 0 0 1 .84.16 7.49 7.49 0 0 1 2.42 1.23l3.77 2.84z"/></clipPath><clipPath id="clip-path-411" transform="translate(-534 -436.19)"><path fill="none" d="M600.36 674.29a1.88 1.88 0 1 0 1.88-1.88 1.88 1.88 0 0 0-1.88 1.88" clip-rule="evenodd"/></clipPath><clipPath id="clip-path-413" transform="translate(-534 -436.19)"><path fill="none" d="M597.15 683.68h21.43v2.68h-21.43z"/></clipPath><clipPath id="clip-path-415" transform="translate(-534 -436.19)"><path fill="none" d="M630.29 663.67c-.93 4.25-1 6.45.48 9.12v6.75c-1.22 3.69-1.12 6.66 0 11.69v2.67a6.31 6.31 0 0 1-6 6.28c-1.66-.78-3.17-.78-5.55-.35l-.4.08a10.36 10.36 0 0 1-3 .28h-10.89c-3.84-.94-6.93-.85-12.49 0h-3.3a6.3 6.3 0 0 1-6.33-6.28v-3.09a13.84 13.84 0 0 0 .71-6.77c-.07-.74-.16-1.35-.34-2.63-.15-1-.2-1.42-.27-1.95 0-.37-.07-.71-.1-1.05.05-.87.12-1.66.26-3.08.25-2.57.32-3.5.35-4.84a22.09 22.09 0 0 0-.61-5.9v-5.67a6.3 6.3 0 0 1 6.33-6.27h5.3a10.09 10.09 0 0 0 4.24.56 14.68 14.68 0 0 0 1.61-.24l1.54-.32h6.57a9.32 9.32 0 0 1 2.16.39 10.3 10.3 0 0 0 2.85.49 4.9 4.9 0 0 0 2.86-.88h8.17a6.31 6.31 0 0 1 6.34 6.27v2.15c-.09.67-.2 1.24-.49 2.59zm-11 39l.39-.07c2-.36 3-.34 4.07.23a1.33 1.33 0 0 0 .65.16 9.09 9.09 0 0 0 9.14-9.06v-2.82a1.53 1.53 0 0 0 0-.3c-1.07-4.77-1.15-7.32 0-10.57a1.31 1.31 0 0 0 .07-.44v-6.4-1a1.37 1.37 0 0 0-.19-.66c-1.19-2-1.18-3.68-.35-7.46a29.76 29.76 0 0 0 .54-2.94.86.86 0 0 0 0-.16v-2.24a9.1 9.1 0 0 0-9.14-9.06h-8.73a1.45 1.45 0 0 0-.84.34c-.83.7-1.43.7-3.6.14a11.66 11.66 0 0 0-2.82-.48h-6.77a1.43 1.43 0 0 0-.29 0l-1.65.35a12.1 12.1 0 0 1-1.31.2 7.47 7.47 0 0 1-3.3-.5 1.44 1.44 0 0 0-.46-.08h-5.53a9.1 9.1 0 0 0-9.14 9.06v5.86a1.33 1.33 0 0 0 0 .34 18.83 18.83 0 0 1 .56 5.31c0 1.25-.1 2.14-.33 4.63a84.5 84.5 0 0 0-.28 3.28v.19c0 .4.07.81.13 1.26s.12 1 .27 2c.18 1.23.26 1.81.33 2.5a11 11 0 0 1-.61 5.67 1.72 1.72 0 0 0-.11.5v3.42a9.09 9.09 0 0 0 9.14 9.06H592.76c5.36-.82 8.15-.9 11.64 0a1.39 1.39 0 0 0 .35 0h10.88a12.5 12.5 0 0 0 3.7-.29z"/></clipPath></defs><g id="Layer_2" data-name="Layer 2"><g id="Layer_1-2" data-name="Layer 1"><g clip-path="url(#clip-path)" opacity=".4"><g clip-path="url(#clip-path-2)"><g clip-path="url(#clip-path-3)"><path fill="#c1a9cd" d="M186.44 19.71h224.11v224.65H186.44z" opacity=".4"/></g></g><g clip-path="url(#clip-path-4)"><g clip-path="url(#clip-path-3)"><path fill="#c1a9cd" d="M166 0h264.81v264.74H166z" opacity=".4"/></g></g></g><g clip-path="url(#clip-path-6)"><g clip-path="url(#clip-path-7)"><path fill="#917c8d" d="M41.82 189.43h492.26v45.31H41.82z"/></g></g><g clip-path="url(#clip-path-8)"><g clip-path="url(#clip-path-7)"><path fill="#611d34" d="M188.59 206.37h13.22v15.11h-13.22z"/></g></g><g clip-path="url(#clip-path-10)"><g clip-path="url(#clip-path-7)"><path fill="#611d34" d="M237.01 200.4h15.08v13.24h-15.08z"/></g></g><g clip-path="url(#clip-path-12)"><g clip-path="url(#clip-path-7)"><path fill="#611d34" d="M274.99 218.4h13.22v15.11h-13.22z"/></g></g><g clip-path="url(#clip-path-14)"><g clip-path="url(#clip-path-7)"><path fill="#611d34" d="M317.23 200.4h13.22v15.11h-13.22z"/></g></g><g clip-path="url(#clip-path-16)"><g clip-path="url(#clip-path-7)"><path fill="#611d34" d="M381.67 213.29h13.22v15.11h-13.22z"/></g></g><g clip-path="url(#clip-path-18)"><g clip-path="url(#clip-path-7)"><path fill="#611d34" d="M402.58 202.05h15.08v13.24h-15.08z"/></g></g><g clip-path="url(#clip-path-20)"><g clip-path="url(#clip-path-7)"><path fill="#6a586e" d="M41.82 215.84h492.26v20.73H41.82z"/></g></g><g clip-path="url(#clip-path-22)"><g clip-path="url(#clip-path-7)"><path fill="#6a586e" d="M41.82 205.86h492.26v28.88H41.82z"/></g></g><g clip-path="url(#clip-path-24)"><g clip-path="url(#clip-path-7)"><path fill="#cbb3d3" d="M41.82 189.43h492.26v33.4H41.82z"/></g></g><g clip-path="url(#clip-path-26)"><g clip-path="url(#clip-path-7)"><path fill="#611d34" d="M40.21 187.81H535.7v48.55H40.21z"/></g></g><g clip-path="url(#clip-path-28)"><g clip-path="url(#clip-path-7)"><path fill="#917c8d" d="M1.61 224.74h572.68v45.31H1.61z"/></g></g><g clip-path="url(#clip-path-30)"><g clip-path="url(#clip-path-7)"><path fill="#6a586e" d="M4.79 251.08h566.32v20.47H4.79z"/></g></g><g clip-path="url(#clip-path-32)"><g clip-path="url(#clip-path-7)"><path fill="#6a586e" d="M1.61 241.16h572.68v28.88H1.61z"/></g></g><g clip-path="url(#clip-path-34)"><g clip-path="url(#clip-path-7)"><path fill="#cbb3d3" d="M1.61 224.74h572.68v33.51H1.61z"/></g></g><g clip-path="url(#clip-path-36)"><g clip-path="url(#clip-path-7)"><path fill="#611d34" d="M0 223.12h575.9v48.55H0z"/></g></g><g clip-path="url(#clip-path-38)"><g clip-path="url(#clip-path-7)"><path fill="#611d34" d="M225.23 255.55h13.22v15.11h-13.22z"/></g></g><g clip-path="url(#clip-path-40)"><g clip-path="url(#clip-path-7)"><path fill="#611d34" d="M198.02 237.55h13.22v15.11h-13.22z"/></g></g><g clip-path="url(#clip-path-42)"><g clip-path="url(#clip-path-7)"><path fill="#611d34" d="M371.8 240.77h15.08v13.24H371.8z"/></g></g><g clip-path="url(#clip-path-44)"><g clip-path="url(#clip-path-7)"><path fill="#611d34" d="M510.7 238.24h15.08v13.24H510.7z"/></g></g><g clip-path="url(#clip-path-46)"><g clip-path="url(#clip-path-7)"><path fill="#611d34" d="M247.17 239.44h15.87v15.9h-15.87z"/></g></g><g clip-path="url(#clip-path-48)"><g clip-path="url(#clip-path-7)"><path fill="#611d34" d="M404.59 244.6h13.22v15.11h-13.22z"/></g></g><g clip-path="url(#clip-path-50)"><g clip-path="url(#clip-path-7)"><path fill="#fe9d09" d="M257.77 86.49h80.54v50.69h-80.54z"/></g></g><g clip-path="url(#clip-path-52)"><g clip-path="url(#clip-path-7)"><path fill="#ffebe0" d="M264.23 92.37h32.08v42.12h-32.08z"/></g></g><g clip-path="url(#clip-path-54)"><g clip-path="url(#clip-path-7)"><path fill="#8f4742" d="M280.37 87.09h57.84v50.59h-57.84z"/></g></g><g clip-path="url(#clip-path-56)"><g clip-path="url(#clip-path-7)"><path fill="#611d34" d="M256.77 85.7h82.85v53.38h-82.85z"/></g></g><g clip-path="url(#clip-path-58)"><g clip-path="url(#clip-path-7)"><path fill="#fe9d09" d="M257.77 127.17h80.54v50.69h-80.54z"/></g></g><g clip-path="url(#clip-path-60)"><g clip-path="url(#clip-path-7)"><path fill="#ffd843" d="M279.05 98.69h38.31v67.46h-38.31z"/></g></g><g clip-path="url(#clip-path-62)"><g clip-path="url(#clip-path-7)"><path fill="#ffebe0" d="M264.02 130.24h32.36v42.45h-32.36z"/></g></g><g clip-path="url(#clip-path-64)"><g clip-path="url(#clip-path-7)"><path fill="#8f4742" d="M280.48 127.42h58.01v50.67h-58.01z"/></g></g><g clip-path="url(#clip-path-66)"><g clip-path="url(#clip-path-7)"><path fill="#611d34" d="M256.8 126.02h83.1v53.46h-83.1z"/></g></g><g clip-path="url(#clip-path-68)"><g clip-path="url(#clip-path-7)"><path fill="#9373a3" d="M277.64 76.28h40.75v22.3h-40.75z"/></g></g><g clip-path="url(#clip-path-70)"><g clip-path="url(#clip-path-7)"><path fill="#ffebe0" d="M277.64 76.28h40.75v12.49h-40.75z"/></g></g><g clip-path="url(#clip-path-72)"><g clip-path="url(#clip-path-7)"><path fill="#611d34" d="M276.23 74.89h43.57v25.09h-43.57z"/></g></g><g clip-path="url(#clip-path-74)"><g clip-path="url(#clip-path-7)"><path fill="#9373a3" d="M289.73 80.54h16.57v102.88h-16.57z"/></g></g><g clip-path="url(#clip-path-76)"><g clip-path="url(#clip-path-7)"><path fill="#611d34" d="M288.32 79.14h19.39v105.67h-19.39z"/></g></g><g clip-path="url(#clip-path-78)"><g clip-path="url(#clip-path-7)"><g clip-path="url(#clip-path-80)"><g clip-path="url(#clip-path-81)"><g clip-path="url(#clip-path-80)"><path fill="#9373a3" d="M259.31 106.54h77.42v15.09h-77.42z"/></g></g><g clip-path="url(#clip-path-83)"><g clip-path="url(#clip-path-80)"><path fill="#611d34" d="M257.9 105.15h80.24v17.88H257.9z"/></g></g><g clip-path="url(#clip-path-85)"><g clip-path="url(#clip-path-80)"><path fill="#9373a3" d="M259.31 143.19h77.42v15.09h-77.42z"/></g></g><g clip-path="url(#clip-path-87)"><g clip-path="url(#clip-path-80)"><path fill="#611d34" d="M257.9 141.8h80.24v17.88H257.9z"/></g></g><g clip-path="url(#clip-path-89)"><g clip-path="url(#clip-path-80)"><path fill="#cbb3d3" d="M272.22 32.26h51.9v51.49h-51.9z"/></g></g><g clip-path="url(#clip-path-91)"><g clip-path="url(#clip-path-80)"><path fill="#611d34" d="M273.25 59.42h49.78v24.32h-49.78z"/></g></g><g clip-path="url(#clip-path-93)"><g clip-path="url(#clip-path-80)"><path fill="#611d34" d="M270.81 30.86h54.72v54.28h-54.72z"/></g></g><g clip-path="url(#clip-path-95)"><g clip-path="url(#clip-path-80)"><path fill="#9373a3" d="M256.82 81.41h37.71v102.01h-37.71z"/></g></g><g clip-path="url(#clip-path-97)"><g clip-path="url(#clip-path-80)"><path fill="#ffebe0" d="M256.82 81.41h32.93v102.01h-32.93z"/></g></g><g clip-path="url(#clip-path-99)"><g clip-path="url(#clip-path-80)"><path fill="#611d34" d="M254 78.62h43.35v107.59H254z"/></g></g><g clip-path="url(#clip-path-101)"><g clip-path="url(#clip-path-80)"><path fill="#9373a3" d="M298.83 80.01h40.53v104.8h-40.53z"/></g></g><g clip-path="url(#clip-path-103)"><g clip-path="url(#clip-path-80)"><path fill="#611d34" d="M297.42 78.62h43.35v107.59h-43.35z"/></g></g><g clip-path="url(#clip-path-105)"><g clip-path="url(#clip-path-80)"><path fill="#9373a3" d="M270.54 168.08h54.96v24.17h-54.96z"/></g></g><g clip-path="url(#clip-path-107)"><g clip-path="url(#clip-path-80)"><path fill="#cbb3d3" d="M272.14 168.08h51.76v15.34h-51.76z"/></g></g><g clip-path="url(#clip-path-109)"><g clip-path="url(#clip-path-80)"><path fill="#611d34" d="M268.85 166.69h58.33v26.96h-58.33z"/></g></g><g clip-path="url(#clip-path-111)"><g clip-path="url(#clip-path-80)"><path fill="#9373a3" d="M289.96 63.33h16.11v22.95h-16.11z"/></g></g><g clip-path="url(#clip-path-113)"><g clip-path="url(#clip-path-80)"><path fill="#cbb3d3" d="M289.96 63.33h16.11v16.96h-16.11z"/></g></g><g clip-path="url(#clip-path-115)"><g clip-path="url(#clip-path-80)"><path fill="#611d34" d="M288.55 61.94h18.93v25.74h-18.93z"/></g></g><g clip-path="url(#clip-path-117)"><g clip-path="url(#clip-path-80)"><path fill="#611d34" d="M290.64 171.15h15.41v15.36h-15.41z"/></g></g><g clip-path="url(#clip-path-119)"><g clip-path="url(#clip-path-80)"><path fill="#611d34" d="M278.82 171.15h15.41v15.36h-15.41z"/></g></g><g clip-path="url(#clip-path-121)"><g clip-path="url(#clip-path-80)"><path fill="#611d34" d="M302.47 171.15h15.41v15.36h-15.41z"/></g></g><g clip-path="url(#clip-path-123)"><g clip-path="url(#clip-path-80)"><path fill="#cbb3d3" d="M266.79 182.23h63.3v16.18h-63.3z"/></g></g><g clip-path="url(#clip-path-125)"><g clip-path="url(#clip-path-80)"><path fill="#611d34" d="M265.38 180.84h66.12v18.97h-66.12z"/></g></g><g clip-path="url(#clip-path-127)"><g clip-path="url(#clip-path-80)"><path fill="#cbb3d3" d="M313.89 176.09h22.41v22.29h-22.41z"/></g></g><g clip-path="url(#clip-path-129)"><g clip-path="url(#clip-path-80)"><path fill="#611d34" d="M312.48 174.7h25.23v25.08h-25.23z"/></g></g><g clip-path="url(#clip-path-131)"><g clip-path="url(#clip-path-80)"><path fill="#cbb3d3" d="M259.74 176.09h22.41v22.29h-22.41z"/></g></g><g clip-path="url(#clip-path-133)"><g clip-path="url(#clip-path-80)"><path fill="#611d34" d="M258.33 174.7h25.23v25.08h-25.23z"/></g></g><g clip-path="url(#clip-path-135)"><g clip-path="url(#clip-path-80)"><path fill="#611d34" d="M263.72 180.04h14.44v14.4h-14.44z"/></g></g><g clip-path="url(#clip-path-137)"><g clip-path="url(#clip-path-80)"><path fill="#611d34" d="M317.87 180.04h14.44v14.4h-14.44z"/></g></g></g></g></g><g clip-path="url(#clip-path-139)"><g clip-path="url(#clip-path-7)"><path fill="#c2aa9b" d="M361.12 123.42h39.25v41.45h-39.25z"/></g></g><g clip-path="url(#clip-path-139)"><g clip-path="url(#clip-path-7)"><path fill="#b55a54" d="M361.12 123.42h39.25v41.45h-39.25z"/></g></g><g clip-path="url(#clip-path-143)"><g clip-path="url(#clip-path-7)"><path fill="#8f4742" d="M361.12 127.51h23.52v32.82h-23.52z"/></g></g><g clip-path="url(#clip-path-145)"><g clip-path="url(#clip-path-7)"><path fill="#611d34" d="M359.46 121.61h43.16v45.51h-43.16z"/></g></g><g clip-path="url(#clip-path-147)"><g clip-path="url(#clip-path-7)"><path fill="#fe9d09" d="M356.05 117.14h23.27v24.02h-23.27z"/></g></g><g clip-path="url(#clip-path-149)"><g clip-path="url(#clip-path-7)"><path fill="#611d34" d="M353.78 114.87h27.13v27.9h-27.13z"/></g></g><g clip-path="url(#clip-path-151)"><g clip-path="url(#clip-path-7)"><path fill="#ffebe0" d="M315.54 100.66h57.04v23.99h-57.04z"/></g></g><g clip-path="url(#clip-path-153)"><g clip-path="url(#clip-path-7)"><path fill="#c2aa9b" d="M348.26 100.66h24.32v23.99h-24.32z"/></g></g><g clip-path="url(#clip-path-155)"><g clip-path="url(#clip-path-7)"><path fill="#fff" d="M315.54 100.66h57.04v17.26h-57.04z"/></g></g><g clip-path="url(#clip-path-157)"><g clip-path="url(#clip-path-7)"><g clip-path="url(#clip-path-159)"><g clip-path="url(#clip-path-160)"><g clip-path="url(#clip-path-161)"><path fill="#fff" d="M323.86 100.66h14.7v23.99h-14.7z"/></g></g><g clip-path="url(#clip-path-162)"><g clip-path="url(#clip-path-161)"><path fill="#fff" d="M331.87 100.66h21.45v23.99h-21.45z"/></g></g><g clip-path="url(#clip-path-164)"><g clip-path="url(#clip-path-161)"><path fill="#c2aa9b" d="M315.55 110.29h57.02v14.37h-57.02z"/></g></g><g clip-path="url(#clip-path-166)"><g clip-path="url(#clip-path-161)"><path fill="#611d34" d="M313.94 99.06h60.25v27.2h-60.25z"/></g></g><g clip-path="url(#clip-path-168)"><g clip-path="url(#clip-path-161)"><path fill="#b55a54" d="M320.27 93.95h47.58v16.71h-47.58z"/></g></g><g clip-path="url(#clip-path-170)"><g clip-path="url(#clip-path-161)"><path fill="#8f4742" d="M324.48 96.4h14.92v11.4h-14.92z"/></g></g><g clip-path="url(#clip-path-172)"><g clip-path="url(#clip-path-161)"><path fill="#8f4742" d="M331.58 96.4h14.92v11.4h-14.92z"/></g></g><g clip-path="url(#clip-path-174)"><g clip-path="url(#clip-path-161)"><path fill="#8f4742" d="M338.68 96.4h14.92v11.4h-14.92z"/></g></g><g clip-path="url(#clip-path-176)"><g clip-path="url(#clip-path-161)"><path fill="#8f4742" d="M345.79 96.4h14.92v11.4h-14.92z"/></g></g><g clip-path="url(#clip-path-178)"><g clip-path="url(#clip-path-161)"><path fill="#fff" d="M320.27 93.95h16.53v16.71h-16.53z"/></g></g><g clip-path="url(#clip-path-180)"><g clip-path="url(#clip-path-161)"><path fill="#8f4742" d="M348.57 93.95h19.29v16.71h-19.29z"/></g></g><g clip-path="url(#clip-path-182)"><g clip-path="url(#clip-path-161)"><path fill="#611d34" d="M318.67 92.34h50.78v19.93h-50.78z"/></g></g><g clip-path="url(#clip-path-184)"><g clip-path="url(#clip-path-161)"><path fill="#fe9d09" d="M317.74 114.65h52.65v16.51h-52.65z"/></g></g><g clip-path="url(#clip-path-186)"><g clip-path="url(#clip-path-161)"><path fill="#611d34" d="M316.14 113.05h55.85v19.72h-55.85z"/></g></g><g clip-path="url(#clip-path-188)"><g clip-path="url(#clip-path-161)"><path fill="#ffebe0" d="M307.6 121.16h73.23v77.87H307.6z"/></g></g><g clip-path="url(#clip-path-190)"><g clip-path="url(#clip-path-161)"><path fill="#c2aa9b" d="M346.74 121.16h34.09v77.87h-34.09z"/></g></g><g clip-path="url(#clip-path-192)"><g clip-path="url(#clip-path-161)"><path fill="#479796" d="M341.32 138.86h33.1v18.17h-33.1z"/></g></g><g clip-path="url(#clip-path-194)"><g clip-path="url(#clip-path-161)"><path fill="#611d34" d="M339.71 137.24h36.32v21.39h-36.32z"/></g></g><g clip-path="url(#clip-path-196)"><g clip-path="url(#clip-path-161)"><path fill="#66d4bb" d="M313.94 131.29h60.55v61.38h-60.55z"/></g></g><g clip-path="url(#clip-path-198)"><g clip-path="url(#clip-path-161)"><path fill="#611d34" d="M312.34 129.68h63.76v64.6h-63.76z"/></g></g><g clip-path="url(#clip-path-200)"><g clip-path="url(#clip-path-161)"><path fill="#fff" d="M311.85 121.16h29.06v77.87h-29.06z"/></g></g><g clip-path="url(#clip-path-202)"><g clip-path="url(#clip-path-161)"><path fill="#ffd843" d="M321.22 114.33h14.32v17.15h-14.32z"/></g></g><g clip-path="url(#clip-path-204)"><g clip-path="url(#clip-path-161)"><path fill="#ffd843" d="M326.45 114.33h14.32v17.15h-14.32z"/></g></g><g clip-path="url(#clip-path-206)"><g clip-path="url(#clip-path-161)"><path fill="#ffd843" d="M331.68 114.33H346v17.15h-14.32z"/></g></g><g clip-path="url(#clip-path-208)"><g clip-path="url(#clip-path-161)"><path fill="#ffd843" d="M336.9 114.33h14.32v17.15H336.9z"/></g></g><g clip-path="url(#clip-path-210)"><g clip-path="url(#clip-path-161)"><path fill="#ffd843" d="M342.13 114.33h14.32v17.15h-14.32z"/></g></g><g clip-path="url(#clip-path-212)"><g clip-path="url(#clip-path-161)"><path fill="#ffd843" d="M347.36 114.33h14.32v17.15h-14.32z"/></g></g><g clip-path="url(#clip-path-214)"><g clip-path="url(#clip-path-161)"><path fill="#ffd843" d="M352.59 114.33h14.32v17.15h-14.32z"/></g></g><g clip-path="url(#clip-path-216)"><g clip-path="url(#clip-path-161)"><path fill="#479796" d="M345.76 158.97h19.54v19.57h-19.54z"/></g></g><g clip-path="url(#clip-path-218)"><g clip-path="url(#clip-path-161)"><path fill="#611d34" d="M335.85 156.98h13.58v13.59h-13.58z"/></g></g><g clip-path="url(#clip-path-220)"><g clip-path="url(#clip-path-161)"><path fill="#611d34" d="M333.47 171.08h13.58v13.59h-13.58z"/></g></g><g clip-path="url(#clip-path-222)"><g clip-path="url(#clip-path-161)"><path fill="#479796" d="M323.01 159.33h13.58v13.59h-13.58z"/></g></g><g clip-path="url(#clip-path-224)"><g clip-path="url(#clip-path-161)"><path fill="#479796" d="M323.58 140.78h19.54v19.57h-19.54z"/></g></g><g clip-path="url(#clip-path-226)"><g clip-path="url(#clip-path-161)"><path fill="#611d34" d="M306 119.55h76.43v81.08H306z"/></g></g><g clip-path="url(#clip-path-226)"><g clip-path="url(#clip-path-161)"><path fill="#611d34" d="M306 119.55h76.43v81.08H306z"/></g></g><g clip-path="url(#clip-path-186)"><g clip-path="url(#clip-path-161)"><path fill="#611d34" d="M316.14 113.05h55.85v19.72h-55.85z"/></g></g><g clip-path="url(#clip-path-232)"><g clip-path="url(#clip-path-161)"><path fill="#611d34" d="M335.88 108.9h29.32v11.61h-29.32z"/></g></g></g></g></g><g clip-path="url(#clip-path-234)"><g clip-path="url(#clip-path-7)"><g clip-path="url(#clip-path-236)"><g clip-path="url(#clip-path-237)"><g clip-path="url(#clip-path-236)"><path fill="#fff" d="M326.28 122.87h32.42v74.27h-32.42z" opacity=".4"/></g></g></g></g></g><g clip-path="url(#clip-path-239)"><g clip-path="url(#clip-path-7)"><path fill="#ffd843" d="M125.99 179.82h43.02v18.05h-43.02z"/></g></g><g clip-path="url(#clip-path-241)"><g clip-path="url(#clip-path-7)"><path fill="#611d34" d="M124.39 178.2h46.24v21.29h-46.24z"/></g></g><g clip-path="url(#clip-path-243)"><g clip-path="url(#clip-path-7)"><path fill="#ffd843" d="M95.37 155.65h43.02v18.05H95.37z"/></g></g><g clip-path="url(#clip-path-245)"><g clip-path="url(#clip-path-7)"><path fill="#fe9d09" d="M95.37 159.52h43.02v14.19H95.37z"/></g></g><g clip-path="url(#clip-path-247)"><g clip-path="url(#clip-path-7)"><path fill="#611d34" d="M110.45 155.65h11.61v13.62h-11.61z"/></g></g><g clip-path="url(#clip-path-249)"><g clip-path="url(#clip-path-7)"><path fill="#611d34" d="M114.09 155.65h11.61v14.95h-11.61z"/></g></g><g clip-path="url(#clip-path-251)"><g clip-path="url(#clip-path-7)"><path fill="#fe9d09" d="M122.13 155.65h16.27v18.05h-16.27z"/></g></g><g clip-path="url(#clip-path-253)"><g clip-path="url(#clip-path-7)"><path fill="#fff" d="M99.68 155.65h16.93v18.05H99.68z"/></g></g><g clip-path="url(#clip-path-255)"><g clip-path="url(#clip-path-7)"><path fill="#611d34" d="M93.77 154.04h46.24v21.29H93.77z"/></g></g><g clip-path="url(#clip-path-257)"><g clip-path="url(#clip-path-7)"><path fill="#ffd843" d="M95.37 163.71h43.02v18.05H95.37z"/></g></g><g clip-path="url(#clip-path-259)"><g clip-path="url(#clip-path-7)"><path fill="#fe9d09" d="M95.37 167.57h43.02v14.19H95.37z"/></g></g><g clip-path="url(#clip-path-261)"><g clip-path="url(#clip-path-7)"><path fill="#611d34" d="M114.09 163.71h11.61v14.95h-11.61z"/></g></g><g clip-path="url(#clip-path-263)"><g clip-path="url(#clip-path-7)"><path fill="#fe9d09" d="M122.13 163.71h16.27v18.05h-16.27z"/></g></g><g clip-path="url(#clip-path-265)"><g clip-path="url(#clip-path-7)"><path fill="#fff" d="M102.66 163.71h16.93v18.05h-16.93z"/></g></g><g clip-path="url(#clip-path-267)"><g clip-path="url(#clip-path-7)"><path fill="#611d34" d="M93.77 162.09h46.24v21.29H93.77z"/></g></g><g clip-path="url(#clip-path-269)"><g clip-path="url(#clip-path-7)"><path fill="#ffd843" d="M95.37 171.76h43.02v18.05H95.37z"/></g></g><g clip-path="url(#clip-path-271)"><g clip-path="url(#clip-path-7)"><path fill="#fe9d09" d="M95.37 175.63h43.02v14.19H95.37z"/></g></g><g clip-path="url(#clip-path-273)"><g clip-path="url(#clip-path-7)"><path fill="#611d34" d="M110.45 171.76h11.61v13.62h-11.61z"/></g></g><g clip-path="url(#clip-path-275)"><g clip-path="url(#clip-path-7)"><path fill="#611d34" d="M114.09 171.76h11.61v14.95h-11.61z"/></g></g><g clip-path="url(#clip-path-277)"><g clip-path="url(#clip-path-7)"><path fill="#fe9d09" d="M122.13 171.76h16.27v18.05h-16.27z"/></g></g><g clip-path="url(#clip-path-279)"><g clip-path="url(#clip-path-7)"><path fill="#fff" d="M99.68 171.76h16.93v18.05H99.68z"/></g></g><g clip-path="url(#clip-path-281)"><g clip-path="url(#clip-path-7)"><path fill="#611d34" d="M93.77 170.15h46.24v21.29H93.77z"/></g></g><g clip-path="url(#clip-path-283)"><g clip-path="url(#clip-path-7)"><path fill="#ffd843" d="M95.37 179.82h43.02v18.05H95.37z"/></g></g><g clip-path="url(#clip-path-285)"><g clip-path="url(#clip-path-7)"><path fill="#fe9d09" d="M95.37 183.68h43.02v14.19H95.37z"/></g></g><g clip-path="url(#clip-path-287)"><g clip-path="url(#clip-path-7)"><path fill="#611d34" d="M117.61 179.82h11.61v13.62h-11.61z"/></g></g><g clip-path="url(#clip-path-289)"><g clip-path="url(#clip-path-7)"><path fill="#611d34" d="M114.09 179.82h11.61v14.95h-11.61z"/></g></g><g clip-path="url(#clip-path-291)"><g clip-path="url(#clip-path-7)"><path fill="#fe9d09" d="M122.13 179.82h16.27v18.05h-16.27z"/></g></g><g clip-path="url(#clip-path-293)"><g clip-path="url(#clip-path-7)"><path fill="#fff" d="M102.66 179.82h16.93v18.05h-16.93z"/></g></g><g clip-path="url(#clip-path-295)"><g clip-path="url(#clip-path-7)"><path fill="#611d34" d="M93.77 178.2h46.24v21.29H93.77z"/></g></g><g clip-path="url(#clip-path-297)"><g clip-path="url(#clip-path-7)"><path fill="#ffd843" d="M480.86 208.07h42.81v18.21h-42.81z"/></g></g><g clip-path="url(#clip-path-299)"><g clip-path="url(#clip-path-7)"><path fill="#fe9d09" d="M480.86 212.01h42.81v14.28h-42.81z"/></g></g><g clip-path="url(#clip-path-301)"><g clip-path="url(#clip-path-7)"><path fill="#611d34" d="M499.46 208.07h11.6v15.05h-11.6z"/></g></g><g clip-path="url(#clip-path-303)"><g clip-path="url(#clip-path-7)"><path fill="#fe9d09" d="M507.45 208.07h16.23v18.21h-16.23z"/></g></g><g clip-path="url(#clip-path-305)"><g clip-path="url(#clip-path-7)"><path fill="#fff" d="M488.1 208.07h16.89v18.21H488.1z"/></g></g><g clip-path="url(#clip-path-307)"><g clip-path="url(#clip-path-7)"><path fill="#611d34" d="M479.27 206.43h46.01v21.51h-46.01z"/></g></g><g clip-path="url(#clip-path-309)"><g clip-path="url(#clip-path-7)"><path fill="#ffd843" d="M480.86 216.29h42.81v18.21h-42.81z"/></g></g><g clip-path="url(#clip-path-311)"><g clip-path="url(#clip-path-7)"><path fill="#fe9d09" d="M480.86 220.22h42.81v14.28h-42.81z"/></g></g><g clip-path="url(#clip-path-313)"><g clip-path="url(#clip-path-7)"><path fill="#611d34" d="M495.84 216.29h11.6v13.69h-11.6z"/></g></g><g clip-path="url(#clip-path-315)"><g clip-path="url(#clip-path-7)"><path fill="#611d34" d="M499.46 216.29h11.6v15.05h-11.6z"/></g></g><g clip-path="url(#clip-path-317)"><g clip-path="url(#clip-path-7)"><path fill="#fe9d09" d="M507.45 216.29h16.23v18.21h-16.23z"/></g></g><g clip-path="url(#clip-path-319)"><g clip-path="url(#clip-path-7)"><path fill="#fff" d="M485.14 216.29h16.89v18.21h-16.89z"/></g></g><g clip-path="url(#clip-path-321)"><g clip-path="url(#clip-path-7)"><path fill="#611d34" d="M479.27 214.64h46.01v21.51h-46.01z"/></g></g><g clip-path="url(#clip-path-323)"><g clip-path="url(#clip-path-7)"><path fill="#ffd843" d="M476.36 199.68h42.81v18.21h-42.81z"/></g></g><g clip-path="url(#clip-path-325)"><g clip-path="url(#clip-path-7)"><path fill="#fe9d09" d="M476.36 203.62h42.81v14.28h-42.81z"/></g></g><g clip-path="url(#clip-path-327)"><g clip-path="url(#clip-path-7)"><path fill="#611d34" d="M498.45 199.68h11.6v13.69h-11.6z"/></g></g><g clip-path="url(#clip-path-329)"><g clip-path="url(#clip-path-7)"><path fill="#611d34" d="M494.96 199.68h11.6v15.05h-11.6z"/></g></g><g clip-path="url(#clip-path-331)"><g clip-path="url(#clip-path-7)"><path fill="#fe9d09" d="M502.94 199.68h16.23v18.21h-16.23z"/></g></g><g clip-path="url(#clip-path-333)"><g clip-path="url(#clip-path-7)"><path fill="#fff" d="M483.6 199.68h16.89v18.21H483.6z"/></g></g><g clip-path="url(#clip-path-335)"><g clip-path="url(#clip-path-7)"><path fill="#611d34" d="M474.76 198.03h46.01v21.51h-46.01z"/></g></g><g clip-path="url(#clip-path-337)"><g clip-path="url(#clip-path-7)"><path fill="#ffebe0" d="M78.51 168.42h84.48v102.32H78.51z"/></g></g><g clip-path="url(#clip-path-339)"><g clip-path="url(#clip-path-7)"><path fill="#c2aa9b" d="M142.28 174.86h19.65v12.68h-19.65z"/></g></g><g clip-path="url(#clip-path-341)"><g clip-path="url(#clip-path-7)"><path fill="#c2aa9b" d="M103.16 177.01h15.36v12.68h-15.36z"/></g></g><g clip-path="url(#clip-path-343)"><g clip-path="url(#clip-path-7)"><path fill="#c2aa9b" d="M142.81 232.83h15.36v12.68h-15.36z"/></g></g><g clip-path="url(#clip-path-345)"><g clip-path="url(#clip-path-7)"><path fill="#c2aa9b" d="M78.51 168.42h84.48v102.32H78.51z"/></g></g><g clip-path="url(#clip-path-347)"><g clip-path="url(#clip-path-7)"><path fill="#611d34" d="M76.9 166.81h87.7v105H76.9z"/></g></g><g clip-path="url(#clip-path-349)"><g clip-path="url(#clip-path-7)"><path fill="#c2aa9b" d="M63.51 168.42h41.08v29.86H63.51z"/></g></g><g clip-path="url(#clip-path-351)"><g clip-path="url(#clip-path-7)"><path fill="#611d34" d="M61.9 166.81h44.29v32.54H61.9z"/></g></g><g clip-path="url(#clip-path-353)"><g clip-path="url(#clip-path-7)"><path fill="#c2aa9b" d="M110.12 240.34h81.8v29.86h-81.8z"/></g></g><g clip-path="url(#clip-path-355)"><g clip-path="url(#clip-path-7)"><path fill="#78647d" d="M110.12 240.34h81.8v29.86h-81.8z"/></g></g><g clip-path="url(#clip-path-357)"><g clip-path="url(#clip-path-7)"><path fill="#611d34" d="M108.52 239.27H193v32.54h-84.48z"/></g></g><g clip-path="url(#clip-path-359)"><g clip-path="url(#clip-path-7)"><path fill="#ea5477" d="M108.52 183.98h47.51v57.77h-47.51z"/></g></g><g clip-path="url(#clip-path-361)"><g clip-path="url(#clip-path-7)"><path fill="#ea5477" d="M120.31 188.28h13.22v20.2h-13.22z"/></g></g><g clip-path="url(#clip-path-363)"><g clip-path="url(#clip-path-7)"><path fill="#ea5477" d="M132.09 193.64h13.75v19.66h-13.75z"/></g></g><g clip-path="url(#clip-path-365)"><g clip-path="url(#clip-path-7)"><path fill="#ea5477" d="M141.2 198.48h13.75v21.81H141.2z"/></g></g><g clip-path="url(#clip-path-367)"><g clip-path="url(#clip-path-7)"><path fill="#c2aa9b" d="M114.95 203.84h32.51v32.54h-32.51z"/></g></g><g clip-path="url(#clip-path-369)"><g clip-path="url(#clip-path-7)"><path fill="#c2aa9b" d="M120.31 211.89h14.82v12.15h-14.82z"/></g></g><g clip-path="url(#clip-path-371)"><g clip-path="url(#clip-path-7)"><path fill="#c2aa9b" d="M127.27 211.89h14.82v12.15h-14.82z"/></g></g><g clip-path="url(#clip-path-373)"><g clip-path="url(#clip-path-7)"><path fill="#c2aa9b" d="M122.98 216.19h15.89v15.9h-15.89z"/></g></g><g clip-path="url(#clip-path-375)"><g clip-path="url(#clip-path-7)"><path fill="#9373a3" d="M42.61 209.75h60.37v60.45H42.61z"/></g></g><g clip-path="url(#clip-path-377)"><g clip-path="url(#clip-path-7)"><path fill="#a988ba" d="M91.91 245.17h11.07v17.51H91.91z"/></g></g><g clip-path="url(#clip-path-379)"><g clip-path="url(#clip-path-7)"><path fill="#ffebe0" d="M42.61 209.75h60.37v20.73H42.61z"/></g></g><g clip-path="url(#clip-path-381)"><g clip-path="url(#clip-path-7)"><path fill="#a988ba" d="M91.91 227.99h11.07v16.98H91.91z"/></g></g><g clip-path="url(#clip-path-383)"><g clip-path="url(#clip-path-7)"><path fill="#9a79ab" d="M43.14 249.46h59.83v20.73H43.14z"/></g></g><g clip-path="url(#clip-path-385)"><g clip-path="url(#clip-path-7)"><path fill="#9373a3" d="M88.69 221.55h14.29v29.86H88.69z"/></g></g><g clip-path="url(#clip-path-387)"><g clip-path="url(#clip-path-7)"><path fill="#9373a3" d="M69.94 212.97h13.75v16.44H69.94z"/></g></g><g clip-path="url(#clip-path-389)"><g clip-path="url(#clip-path-7)"><path fill="#715280" d="M80.65 247.85h22.32v22.34H80.65z"/></g></g><g clip-path="url(#clip-path-391)"><g clip-path="url(#clip-path-7)"><path fill="#a988ba" d="M80.65 209.75h22.32v22.34H80.65z"/></g></g><g clip-path="url(#clip-path-393)"><g clip-path="url(#clip-path-7)"><path fill="#a988ba" d="M50.11 218.33h44.83v44.35H50.11z"/></g></g><g clip-path="url(#clip-path-395)"><g clip-path="url(#clip-path-7)"><path fill="#9373a3" d="M59.75 216.19h15.36v14.29H59.75z"/></g></g><g clip-path="url(#clip-path-397)"><g clip-path="url(#clip-path-7)"><path fill="#9373a3" d="M65.65 217.26h13.22v12.68H65.65z"/></g></g><g clip-path="url(#clip-path-399)"><g clip-path="url(#clip-path-7)"><path fill="#9373a3" d="M79.58 247.85h12.14V260H79.58z"/></g></g><g clip-path="url(#clip-path-401)"><g clip-path="url(#clip-path-7)"><path fill="#9373a3" d="M75.29 248.93h12.14v12.15H75.29z"/></g></g><g clip-path="url(#clip-path-403)"><g clip-path="url(#clip-path-7)"><path fill="#9373a3" d="M61.36 213.5H73.5v12.15H61.36z"/></g></g><g clip-path="url(#clip-path-405)"><g clip-path="url(#clip-path-7)"><path fill="#9373a3" d="M75.29 219.94h13.75v13.76H75.29z"/></g></g><g clip-path="url(#clip-path-407)"><g clip-path="url(#clip-path-7)"><path fill="#9373a3" d="M80.12 222.09h11.61v11.61H80.12z"/></g></g><g clip-path="url(#clip-path-409)"><g clip-path="url(#clip-path-7)"><path fill="#7b538f" d="M56 226.38h34.11v23.95H56z"/></g></g><g clip-path="url(#clip-path-411)"><g clip-path="url(#clip-path-7)"><path fill="#7b538f" d="M61.36 231.22h13.75v13.76H61.36z"/></g></g><g clip-path="url(#clip-path-413)"><g clip-path="url(#clip-path-7)"><path fill="#7b538f" d="M58.15 242.49h31.43v12.68H58.15z"/></g></g><g clip-path="url(#clip-path-415)"><g clip-path="url(#clip-path-7)"><path fill="#611d34" d="M41 208.67h63.58v63.14H41z"/></g></g></g></g></svg>