<svg xmlns="http://www.w3.org/2000/svg" width="334" height="251"><g id="Welcome" fill="none" fill-rule="evenodd"><g id="MVP---Collections-Search---No-Results" fill-rule="nonzero" transform="translate(-689 -380)"><g id="no-collections" transform="translate(689 380)"><path id="Path" fill="#9373A3" d="M285.427 219H151.765c-14.604-37.412-29.883-99.764-33.701-166.433C116.658 28.043 138.763 7 163.209 7h10.764c13.9 6.567 30.613 10.196 46.556 10.196 15.035 0 29.415-3.213 40.091-10.196h20.04c6.678 19.565 8.373 45.063 8.373 45.063l3.698 42.256c.398 4.531.73 7.886 2.969 10.66a10.825 10.825 0 0 1 2.3 6.853c-.181 35.283-5.84 69.663-12.573 107.168z"/><path id="Path" fill="#A988BA" d="M297.68 105.274c-2.258-2.767-2.593-6.113-2.994-10.633l-3.753-42.147s-1.214-17.85-5.582-35.115c-2.747.23-5.582.338-8.417.338A116.21 116.21 0 0 1 248.116 14c-8.065 2.516-17.065 3.717-26.323 3.717a115.984 115.984 0 0 1-26.779-3.204c-25.18 6.55-33.427 23.02-32.998 38.942 2.478 92.033 7.313 116.308 17.906 165.545h107.374c6.79-37.408 12.5-71.7 12.702-106.891a10.709 10.709 0 0 0-2.318-6.835z"/><path id="Path" fill="#A988BA" d="M187.579 98.668a4.257 4.257 0 0 0-4.263-.183 4.211 4.211 0 0 0-2.262 3.599c-.497 17.098 2.277 39.393 14.141 53.87 9.544 11.647 22.25 15.627 29.09 16.968a4.249 4.249 0 0 0 3.44-.831 4.2 4.2 0 0 0 1.6-3.138l1.666-43.211c.253-6.99-4.653-13.12-11.559-14.444a92.835 92.835 0 0 1-31.853-12.63z" opacity=".3" style="mix-blend-mode:screen"/><path id="Rectangle" fill="#611D34" d="M166 98h7v1h-7zM166 102h11v1h-11z"/><g id="Group" opacity=".4" style="mix-blend-mode:screen" fill="#A988BA" transform="translate(273 17)"><path id="Path" d="M24.728 95.25a10.875 10.875 0 0 0-2.293-6.868C20.2 85.6 19.87 82.237 19.473 77.694L15.76 35.333S14.56 17.393 10.239.038c-2.054.17-6.994.28-9.087.319 9.397 56.318 18.359 97.692-.739 202.33h11.728c6.74-37.599 12.386-72.065 12.587-107.436z"/></g><path id="Path" fill="#FFF" d="M295.755 104.625c-2.225-2.76-2.556-6.095-2.951-10.601l-3.699-42.017S287.908 34.213 283.603 17a98.62 98.62 0 0 1-4.603.261c4.246 17.131 5.415 34.746 5.415 34.746l3.678 42.017c.395 4.506.725 7.842 2.951 10.6a10.754 10.754 0 0 1 2.285 6.814c-.2 35.083-5.827 69.269-12.52 106.562h4.668c6.693-37.293 12.32-71.479 12.52-106.562a10.755 10.755 0 0 0-2.242-6.813z"/><path id="Rectangle" fill="#611D34" d="M286 81h6v1h-6zM283 85h10v1h-10z"/><path id="Path" fill="#7B538F" d="M256.262 205.799c-9.818-1.682-9.818-5.48-13.275-15.185-.137-.378-8.362 13.886-18.927 11.376-37.279-8.855-60.23-39.74-67.959-78.981a623.646 623.646 0 0 1-10.68-83.842C144.714 26.815 149.96 15.346 158.469 7c-22.493 2.52-41.719 22.413-40.404 45.351 3.818 66.756 19.122 129.189 33.745 166.649h133.857A2823.42 2823.42 0 0 0 288 205.82l-31.738-.021z" opacity=".4" style="mix-blend-mode:multiply"/><path id="Path" fill="#FFEBE0" d="M184.546 17A97.073 97.073 0 0 0 202 15.47 110.382 110.382 0 0 1 173.792 7H163a45.595 45.595 0 0 0-17 3.344A116.536 116.536 0 0 0 184.546 17z"/><path id="Path" fill="#FFF" d="M208 16.866c-14.611-.693-29.513-4.128-42.164-9.866H155c14.21 6.441 31.289 10 47.593 10 1.815 0 3.636-.048 5.407-.134z"/><path id="Path" fill="#C2AA9B" d="M287.508 46.11l3.667 42.362c.39 4.455.719 7.78 2.825 10.528-.216-1.355-.351-2.836-.491-4.471l-3.69-42.357s-1.7-25.56-8.344-45.172H281c5.13 18.433 6.508 39.11 6.508 39.11z"/><path id="Path" fill="#C2AA9B" d="M274.97 17c3.046 0 6.065-.14 9.03-.403-.833-3.263-1.775-6.505-2.846-9.597h-19.907A57.035 57.035 0 0 1 247 13.441 114.658 114.658 0 0 0 274.97 17z"/><path id="Shape" fill="#611D34" d="M285.807 221H152.344c-.67 0-1.272-.412-1.517-1.039-13.723-35.156-29.795-97.418-33.76-166.709-.664-11.57 3.638-22.918 12.123-31.948C138.317 11.586 150.946 6 163.772 6h10.747c.241 0 .479.055.696.159 13.669 6.466 29.915 10.024 45.791 10.024 15.67 0 29.203-3.427 39.161-9.915.266-.175.576-.268.892-.268h20.01a1.632 1.632 0 0 1 1.545 1.093c6.636 19.524 8.425 45.17 8.425 45.427l3.693 42.175c.397 4.542.735 7.439 2.606 9.762a12.467 12.467 0 0 1 2.66 7.882c-.202 35.468-5.831 69.585-12.603 107.316a1.634 1.634 0 0 1-1.588 1.345zm-132.37-3.28h131.005c6.64-37.042 12.107-70.619 12.308-105.403a9.18 9.18 0 0 0-1.903-5.789c-2.595-3.214-2.932-7.073-3.324-11.533l-3.693-42.207c0-.279-1.713-24.553-7.946-43.508h-18.39c-10.426 6.662-24.415 10.182-40.51 10.182-16.202 0-32.824-3.612-46.851-10.182h-10.367c-11.966 0-23.698 5.198-32.21 14.265-7.86 8.363-11.851 18.847-11.237 29.516 3.89 68.225 19.58 129.558 33.113 164.66h.005z"/><path id="Path" fill="#A988BA" d="M230.027 78.383a23.582 23.582 0 0 0 19.504-4.102c15.398-11.625 26.99-29.734 28.203-49.118L280 21.946c-.72-4.345-1.638-9.068-2.807-13.748-2.539.209-5.127.313-7.737.313-3.33 0-6.694-.176-10.058-.511-10.538 6.352-24.282 9.294-38.648 9.294a113.468 113.468 0 0 1-38.878-6.973C170.214 16.77 165.048 26.57 164 36.66l5.166 3.355c15.627 22.546 36.447 32.742 60.86 38.367z" opacity=".4" style="mix-blend-mode:screen"/><path id="Path" fill="#611D34" d="M239.634 221a1.637 1.637 0 0 1-1.581-2.051c9.324-35.46 7.569-115.466 7.552-116.274a1.639 1.639 0 0 1 .782-1.436 1.625 1.625 0 0 1 1.63-.038c.511.28.835.813.848 1.398 0 .813 1.788 81.283-7.655 117.184a1.631 1.631 0 0 1-1.576 1.217z"/><path id="Path" fill="#A988BA" d="M305 236.066C302.815 238.485 289.481 250 234.255 250c-28.89 0-53.073-2.558-71.875-7.605-14.486-3.889-20.462-7.942-21.096-8.386l-.284-.197L152.406 220h134.038L305 236.066z"/><path id="Shape" fill="#611D34" d="M233.289 251c-29.155 0-53.586-2.641-72.615-7.848-14.465-3.96-20.62-8.055-21.706-8.832l-.29-.213a1.64 1.64 0 0 1-.313-2.357l11.426-14.137a1.647 1.647 0 0 1 1.283-.613h134.622c.404 0 .795.147 1.097.416l18.65 16.445a1.639 1.639 0 0 1 .143 2.318C302.492 239.652 288.159 251 233.289 251zm-91.227-18.594c2.359 1.416 8.343 4.534 19.484 7.585 18.743 5.124 42.884 7.728 71.743 7.728 48.501 0 64.217-8.926 68.616-12.579l-16.835-14.859H151.86l-9.797 12.125z"/><path id="Path" fill="#CBB3D3" d="M145 227.906S165.72 243 233.596 243C288.613 243 299 231 299 231l-13.474-12H152.153L145 227.906z"/><path id="Shape" fill="#611D34" d="M234.648 244c-67.942 0-89.107-14.61-89.97-15.248a1.613 1.613 0 0 1-.317-2.332l7.165-8.814a1.644 1.644 0 0 1 1.277-.606H286.82c.402 0 .791.146 1.092.411l13.537 11.872c.674.591.74 1.611.147 2.283-.453.509-11.565 12.434-66.947 12.434zm-86.563-16.99c2.398 1.31 7.804 3.88 17.256 6.423 12.401 3.338 34.495 7.32 69.307 7.32 43.652 0 58.975-7.526 63.163-10.318l-11.615-10.189H153.584l-5.499 6.764z"/><path id="Path" fill="#9373A3" d="M204 219h-51.84l-7.16 8.699s13.55 9.611 54.569 13.301L204 219z"/><path id="Path" fill="#FFF" d="M285.827 218l-8.827.726L293.755 234c3.98-2.003 5.245-3.546 5.245-3.546L285.827 218z"/><path id="Path" fill="#611D34" d="M161.128 53a1.673 1.673 0 0 1-1.375-.7 121.24 121.24 0 0 1-4.541-7 1.475 1.475 0 0 1 .302-1.878 1.726 1.726 0 0 1 2.015-.179l4.717 2.85c.522.315.81.88.745 1.46a34.4 34.4 0 0 0-.22 3.904c0 .681-.477 1.28-1.172 1.476a1.687 1.687 0 0 1-.47.067zM289.314 44h-.046a1.691 1.691 0 0 1-1.64-1.48 239.853 239.853 0 0 0-1.606-11.045 1.67 1.67 0 0 1 .294-1.25l2.511-3.51a1.704 1.704 0 0 1 1.858-.65 1.685 1.685 0 0 1 1.224 1.53 66.07 66.07 0 0 1-.927 15.015 1.692 1.692 0 0 1-1.668 1.39z"/><path id="Path" fill="#611D34" d="M246.532 102.994a1.668 1.668 0 0 1-.29 0c-43.2-7.75-74.689-20.908-98.028-62.465a1.655 1.655 0 0 1 .3-2.011 1.627 1.627 0 0 1 2.011-.184l11.356 7.377c.645.532.789 1.467.335 2.17a1.63 1.63 0 0 1-2.106.575l-5.49-3.563c22.254 35.569 51.825 47.529 91.64 54.736 24.27-13.07 47.85-40.25 48.455-72.937l-2.508 3.562a1.63 1.63 0 0 1-2.282.393 1.655 1.655 0 0 1-.39-2.298l5.398-7.657a1.63 1.63 0 0 1 1.786-.627c.668.194 1.14.79 1.18 1.49 1.93 36.561-24.026 67.156-50.61 81.236a1.627 1.627 0 0 1-.757.203z"/><path id="Shape" fill="#611D34" d="M228.637 53c-25.295-.068-47.49-16.729-54.42-40.851l-1.16-4.07a1.626 1.626 0 0 1 .55-1.693 1.66 1.66 0 0 1 1.769-.229c28.405 13.263 65.28 13.312 85.776.11a1.66 1.66 0 0 1 1.477-.16c.49.183.863.586 1.006 1.085a35.783 35.783 0 0 1-6.007 31.536c-6.875 8.999-17.606 14.281-28.99 14.272zM177.2 10.564l.204.702c6.526 22.71 27.42 38.397 51.234 38.466 9.96 0 19.389-4.456 25.662-12.127a32.556 32.556 0 0 0 6.666-27.4c-10.586 6.154-24.961 9.384-40.765 9.21a116.123 116.123 0 0 1-43-8.851z"/><path id="Path" fill="#CBB3D3" d="M166 7l1.74 6.052a61.2 61.2 0 0 0 22.196 32.43A61.463 61.463 0 0 0 227.264 58a41.477 41.477 0 0 0 33.252-16.528A41.349 41.349 0 0 0 267.92 7h-7.515a47.17 47.17 0 0 1-2.264 1.371 31.763 31.763 0 0 1-5.667 27.466 31.951 31.951 0 0 1-25.25 12.34c-23.26-.07-43.669-15.482-50.043-37.792l-.578-2.04A107.698 107.698 0 0 1 173.597 7H166z"/><path id="Shape" fill="#611D34" d="M227.494 61a62.69 62.69 0 0 1-38.38-13.011c-11.071-8.414-19.088-20.273-22.813-33.746L164 6.006h10.14l.334.16c.886.419 1.853.855 2.957 1.335l.722.314.793 2.83c6.185 21.904 25.983 37.034 48.548 37.101 9.384.001 18.24-4.382 23.987-11.87 5.746-7.49 7.734-17.24 5.385-26.411l-.312-1.225 1.094-.629c.814-.469 1.525-.91 2.186-1.34l.41-.271h9.342l.296 1.286c2.905 12.659.083 25.967-7.703 36.316C253.992 54.61 241.13 61.06 227.494 61zM168.335 9.31l1.126 4.028c3.535 12.778 11.141 24.024 21.642 32.002a59.472 59.472 0 0 0 36.391 12.349c12.016 0 23.403-5.425 31.039-14.79 7.636-9.365 10.72-21.687 8.408-33.588h-5.74c-.279.182-.547.358-.87.551 2.179 10.036-.265 20.528-6.646 28.533-6.381 8.005-16.012 12.66-26.191 12.661-24.034-.073-45.12-16.188-51.708-39.516l-.366-1.314c-.722-.32-1.383-.623-2.012-.915h-5.073z"/><path id="Path" fill="#611D34" d="M227.578 51c-24.389-.013-45.802-16.308-52.433-39.9L174 7c13.912 6.576 30.632 10.21 46.59 10.21 15.046 0 29.438-3.217 40.117-10.21a34.752 34.752 0 0 1-5.684 30.279c-6.506 8.64-16.664 13.72-27.445 13.721z"/><path id="Shape" fill="#611D34" d="M228.638 53c-25.296-.071-47.49-16.731-54.424-40.852l-1.153-4.074a1.626 1.626 0 0 1 .524-1.689 1.66 1.66 0 0 1 1.767-.229c13.805 6.444 30.213 9.99 46.249 9.99 15.826 0 29.5-3.415 39.552-9.88a1.66 1.66 0 0 1 1.478-.16c.49.183.863.586 1.005 1.085a35.788 35.788 0 0 1-6.01 31.535c-6.874 8.998-17.604 14.281-28.988 14.274zm-51.44-42.448l.203.708c6.526 22.711 27.42 38.4 51.237 38.472 9.96 0 19.389-4.456 25.662-12.127a32.556 32.556 0 0 0 6.666-27.402c-10.355 6.036-23.885 9.211-39.36 9.211a115.816 115.816 0 0 1-44.409-8.862z"/><path id="Path" fill="#9373A3" d="M326.655 79l-33.753-11.044c-16.054-5.235-25.636-21.937-22.21-38.716l3.11-15.24 26.001 8.484c20.479 6.693 32.69 28.009 28.31 49.414L326.654 79z"/><path id="Shape" fill="#611D34" d="M326.958 80.999c-.171-.001-.34-.027-.504-.077l-34.15-10.967c-17.052-5.45-27.226-22.923-23.558-40.459l3.15-15.184a1.645 1.645 0 0 1 2.11-1.234l26.298 8.45c21.536 6.886 34.384 28.954 29.755 51.103l-1.469 7.074c-.092.46-.377.86-.783 1.096-.26.141-.554.21-.85.198zM274.74 16.757l-2.773 13.392c-3.324 15.887 5.892 31.718 21.34 36.658l32.413 10.419 1.095-5.28c4.29-20.503-7.605-40.931-27.541-47.303l-24.534-7.886z"/><path id="Path" fill="#611D34" d="M299.787 23.382L273.794 15l-3.11 15.048a33.217 33.217 0 0 0-.684 6.813c2.39 12.693 11.848 22.882 24.313 26.193L328.133 72c4.323-21.077-7.894-42.032-28.346-48.618z"/><path id="Shape" fill="#611D34" d="M328.426 72.999a1.573 1.573 0 0 1-.422-.054l-34.194-8.929c-13.195-3.49-23.208-14.11-25.782-27.342a1.379 1.379 0 0 1-.028-.298c-.008-2.39.235-4.776.724-7.118l3.15-14.965c.095-.45.379-.84.781-1.071a1.664 1.664 0 0 1 1.33-.145l26.303 8.328c21.525 6.781 34.38 28.503 29.782 50.324a1.622 1.622 0 0 1-.745 1.048 1.662 1.662 0 0 1-.899.222zm-57.132-36.752c2.376 11.944 11.44 21.512 23.36 24.661l32.485 8.48c3.257-19.699-8.6-38.78-27.876-44.859l-24.539-7.788-2.773 13.198a30.556 30.556 0 0 0-.657 6.308z"/><path id="Path" fill="#C2AA9B" d="M332.63 67l-38.399-4.509c-20.483-2.404-35.487-20.284-34.148-40.694L261.375 2l22.405 2.628c29.442 3.457 51.012 29.15 49.102 58.49L332.63 67z"/><path id="Shape" fill="#611D34" d="M331.99 68.99h-.198l-38.244-4.491c-21.266-2.493-36.845-21.047-35.463-42.231l1.282-19.742c.028-.446.24-.86.586-1.147.346-.287.795-.42 1.243-.368l22.318 2.622c30.202 3.538 52.33 29.888 50.365 59.975l-.252 3.866A1.637 1.637 0 0 1 331.984 69l.005-.01zM262.537 4.425l-1.172 18.02c-1.272 19.458 13.039 36.498 32.57 38.784l36.525 4.29.137-2.172c1.825-28.338-19.019-53.144-47.462-56.484l-20.598-2.438z"/><path id="Path" fill="#CBB3D3" d="M332.63 67l-38.399-4.509c-20.483-2.404-35.487-20.284-34.148-40.694L261.375 2l22.405 2.628c29.442 3.457 51.012 29.15 49.102 58.49L332.63 67z"/><path id="Shape" fill="#611D34" d="M331.99 68.99h-.198l-38.244-4.491c-21.266-2.493-36.845-21.047-35.463-42.231l1.282-19.742c.028-.446.24-.86.586-1.147.346-.287.795-.42 1.243-.368l22.318 2.622c30.202 3.538 52.33 29.888 50.365 59.975l-.252 3.866A1.637 1.637 0 0 1 331.984 69l.005-.01zM262.537 4.425l-1.172 18.02c-1.272 19.458 13.039 36.498 32.57 38.784l36.525 4.29.137-2.172c1.825-28.338-19.019-53.144-47.462-56.484l-20.598-2.438z"/><path id="Path" fill="#9A79AB" d="M297.658 53.935L332 58c-.745-27.396-21.492-50.098-48.73-53.324L269.065 3l-.996 15.448c-1.14 17.804 11.855 33.39 29.588 35.487z"/><path id="Path" fill="#7B538F" d="M299.298 49.423c-17.742-2.1-30.74-17.695-29.588-35.501l.697-10.764-1.34-.158-.996 15.442c-1.152 17.805 11.846 33.398 29.587 35.495L332 58a55.672 55.672 0 0 0-.332-4.754l-32.37-3.823z"/><path id="Path" fill="#7B538F" d="M296.416 56c-.819.003-1.503-.638-1.574-1.475-1.51-17.958-3.435-31.449-8.737-47.329a1.649 1.649 0 0 1 .269-1.626 1.55 1.55 0 0 1 1.519-.536 1.59 1.59 0 0 1 1.186 1.112c5.417 16.188 7.368 29.893 8.915 48.1.036.426-.094.85-.363 1.178a1.56 1.56 0 0 1-1.069.57l-.146.006zM315.377 58c-.847.003-1.553-.662-1.618-1.523-1.11-15.45-3.052-28.709-8.66-43.261-.301-.84.11-1.772.926-2.1a1.607 1.607 0 0 1 2.083.89c5.765 14.937 7.722 28.477 8.887 44.218.068.908-.598 1.7-1.488 1.77l-.13.006zM276 15a3 3 0 1 0 6 0 3 3 0 0 0-6 0z"/><circle id="Oval" cx="300" cy="19" r="3" fill="#7B538F"/><path id="Path" fill="#7B538F" d="M280 35a3 3 0 1 0 6 0 3 3 0 0 0-6 0zM300 40a3 3 0 1 0 6 0 3 3 0 0 0-6 0zM320 43a3 3 0 1 0 6 0 3 3 0 0 0-6 0z"/><path id="Path" fill="#611D34" d="M166 100.494V97.85c.001-25.73-7.275-50.951-21.01-72.824l-.661-1.051L130.915 23c-5.993 7.666-9.434 17.166-8.851 27.235 1.07 18.42 3.035 36.51 5.633 53.835 1.365 9.117 9.673 15.797 18.957 14.839.272-.028.555-.06.81-.099 4.921 0 9.64-1.93 13.117-5.366a18.165 18.165 0 0 0 5.419-12.95z"/><path id="Shape" fill="#611D34" d="M145.349 120c-9.444-.085-17.395-7.09-18.678-16.453-2.7-18.285-4.585-36.58-5.61-54.374-.551-10 2.667-20.138 9.132-28.544.344-.436.885-.67 1.438-.623l13.32 1.015a1.653 1.653 0 0 1 1.29.756l.656 1.059A140.911 140.911 0 0 1 168 97.06v2.664c-.012 11.04-8.915 20.004-19.945 20.083l-.75.088c-.65.07-1.303.105-1.956.105zm-13.067-96.646c-5.705 7.722-8.438 16.547-7.92 25.626 1.02 17.7 2.893 35.896 5.583 54.081 1.245 8.467 8.724 14.413 17.019 13.541.248 0 .49-.055.738-.088.079-.005.158-.005.237 0 9.25-.012 16.745-7.515 16.754-16.773v-2.68a137.56 137.56 0 0 0-20.617-72.482l-.215-.342-11.58-.883z"/><path id="Path" fill="#A988BA" d="M134.537 104.037c-2.55-17.324-4.481-35.415-5.54-53.835-.546-9.916 2.729-19.263 8.449-26.879L132.768 23c-5.894 7.666-9.278 17.166-8.705 27.235 1.053 18.42 2.985 36.51 5.54 53.835 1.342 9.117 9.513 15.797 18.644 14.839l.753-.088c-7.531-1.212-13.396-7.207-14.463-14.784z"/><path id="Shape" fill="#611D34" d="M144.883 120c-9.263-.086-17.062-7.09-18.32-16.454-2.65-18.284-4.498-36.58-5.504-54.373-.54-10 2.617-20.138 8.958-28.544.338-.436.868-.67 1.41-.623l4.628.359a1.623 1.623 0 0 1 1.357.968 1.683 1.683 0 0 1-.184 1.68c-5.779 7.82-8.557 16.805-8.038 25.989.994 17.7 2.838 35.896 5.47 54.08.981 6.884 6.22 12.325 12.947 13.448.8.116 1.393.814 1.393 1.638s-.594 1.522-1.393 1.638l-.784.1a17.63 17.63 0 0 1-1.94.094zm-12.817-96.646c-5.595 7.722-8.277 16.547-7.768 25.626 1 17.7 2.838 35.896 5.476 54.08.618 4.438 3.03 8.409 6.649 10.95a19.627 19.627 0 0 1-4.968-10.48c-2.65-18.285-4.503-36.58-5.503-54.374-.477-9.135 1.99-18.178 7.027-25.747l-.913-.055z"/><path id="Path" fill="#FFF" d="M279.408 7.217c26.884 3.134 47.883 22.527 49.324 50.282L333 58c-.755-27.396-21.79-50.098-49.407-53.324L269.193 3 269 6.009l10.408 1.208z"/><path id="Path" fill="#611D34" d="M162.314 221c-.86.007-1.589-.604-1.7-1.425L147.012 118.83c-.11-.891.546-1.701 1.47-1.816.924-.115 1.772.507 1.902 1.395l13.602 100.746c.12.897-.537 1.718-1.468 1.834l-.204.011zM235 119a2 2 0 1 0 4 0 2 2 0 0 0-4 0z"/><circle id="Oval" cx="238" cy="151" r="2" fill="#611D34"/><path id="Path" fill="#611D34" d="M234 185a2 2 0 1 0 4 0 2 2 0 0 0-4 0zM158 212a2 2 0 1 0 4 0 2 2 0 0 0-4 0zM190 211.995a2 2 0 1 0 4 .01 2 2 0 0 0-4-.01zM227 212a2 2 0 1 0 4 0 2 2 0 0 0-4 0zM277 212a2 2 0 1 0 4 0 2 2 0 0 0-4 0zM253 212a2 2 0 1 0 4 0 2 2 0 0 0-4 0zM183.694 241a1.717 1.717 0 0 1-1.363-.669c-.319-.42-.414-.96-.256-1.459l6.59-20.664a1.675 1.675 0 0 1 1.242-1.163c.603-.14 1.236.05 1.652.494.416.444.55 1.073.35 1.64l-6.59 20.664a1.693 1.693 0 0 1-1.625 1.157zM284.399 239a1.598 1.598 0 0 1-1.414-.864l-9.765-18.697a1.637 1.637 0 0 1 .013-1.661 1.595 1.595 0 0 1 1.45-.776 1.6 1.6 0 0 1 1.363.925l9.766 18.692a1.637 1.637 0 0 1-.04 1.596c-.29.487-.811.785-1.373.785zM241.213 244c-.923.003-1.696-.638-1.78-1.477l-2.425-23.742c-.092-.896.63-1.69 1.613-1.774.983-.083 1.854.575 1.946 1.472l2.425 23.747c.09.89-.626 1.678-1.601 1.763l-.178.011z"/><path id="Path" fill="#FFF" d="M251.8 219H245l2.092 24c3.537-.138 6.832-.337 9.908-.59L251.8 219z"/><path id="Path" fill="#9373A3" d="M98.581 91l42.169-16.499c26.82-10.5 40.119-40.924 29.702-67.956L170.246 6l-41.628 16.292c-27.116 10.614-40.562 41.373-30.032 68.703l-.005.005z"/><path id="Shape" fill="#611D34" d="M97.247 92a1.637 1.637 0 0 1-1.523-1.043 54.296 54.296 0 0 1 .926-41.745c5.86-13.242 16.77-23.624 30.324-28.86l42.023-16.244a1.645 1.645 0 0 1 1.256.035c.397.177.707.505.861.91l.213.543c10.803 27.784-3.03 59.027-30.922 69.844L97.836 91.891a1.649 1.649 0 0 1-.59.109zm71.4-84.231l-40.489 15.636c-25.935 10.024-39.191 38.727-29.945 64.842L139.22 72.4c25.82-10.015 38.885-38.709 29.428-64.63z"/><path id="Path" fill="#611D34" d="M172.313 8.961a41.092 41.092 0 0 0-.87-2.413L171.233 6l-42.177 16.395C105.485 31.564 91.573 56.03 95.73 81l40.83-13.313c24.747-8.08 39.922-33.006 35.752-58.726z"/><path id="Shape" fill="#611D34" d="M94.397 82a1.653 1.653 0 0 1-1.658-1.366c-4.256-25.639 10.2-50.728 34.676-60.184L169.96 4.111a1.664 1.664 0 0 1 2.143.934l.216.547c.31.797.613 1.638.9 2.48.028.084.05.17.067.256 4.34 26.425-11.446 52.035-37.19 60.332L94.911 81.923a1.68 1.68 0 0 1-.514.077zm75.208-74.223l-40.991 15.727c-22.332 8.64-35.874 31.175-32.869 54.699l39.322-12.663c24.139-7.783 38.968-31.766 34.969-56.556-.144-.415-.287-.82-.431-1.207z"/><path id="Path" fill="#CBB3D3" d="M87.077 74.983l44.81-9.3c28.476-5.92 46.845-34.165 41.043-63.105L172.81 2l-44.215 9.168c-13.836 2.868-25.984 11.205-33.77 23.177C87.037 46.315 84.25 60.94 87.076 75v-.017z"/><path id="Shape" fill="#611D34" d="M85.718 75.996a1.64 1.64 0 0 1-1.605-1.315c-6.06-30.042 13.23-59.345 43.128-65.51L171.825.033c.426-.087.87 0 1.232.241.363.242.615.619.7 1.047l.12.549a54.793 54.793 0 0 1-7.985 41.29c-7.963 12.2-20.46 20.69-34.7 23.572l-45.146 9.253a1.653 1.653 0 0 1-.328.011zM170.87 3.591l-42.958 8.771c-27.523 5.642-45.615 32.21-40.867 60.016l43.514-8.913c27.405-5.638 45.301-32.235 40.289-59.874h.022z"/><path id="Path" fill="#9A79AB" d="M167.398 4l-38.133 7.726C104.224 16.806 86.18 38.608 86 64l46.323-9.393c23.485-4.756 38.98-27.112 35.075-50.607z"/><path id="Path" fill="#7B538F" d="M167.398 4l-.94.191c-.043 21.016-14.944 39.108-35.67 43.308l-44.194 8.96A53.561 53.561 0 0 0 86 64l46.323-9.393c23.485-4.756 38.98-27.112 35.075-50.607z"/><path id="Path" fill="#7B538F" d="M105.646 61a1.817 1.817 0 0 1-.29-.027 1.645 1.645 0 0 1-1.06-.667 1.6 1.6 0 0 1-.27-1.21c3.06-16.87 8.758-32.468 16.97-46.382a1.657 1.657 0 0 1 2.185-.496 1.606 1.606 0 0 1 .65 2.114c-7.997 13.575-13.57 28.822-16.56 45.303A1.635 1.635 0 0 1 105.647 61zM131.704 56h-.227a1.716 1.716 0 0 1-1.127-.626 1.583 1.583 0 0 1-.335-1.207c2.068-15.026 6.342-30.547 12.7-46.128.341-.84 1.327-1.254 2.202-.927.875.327 1.308 1.273.966 2.113-6.234 15.341-10.462 30.601-12.496 45.372-.119.805-.836 1.403-1.683 1.403z"/><path id="Path" fill="#FFF" d="M131.848 14.585L168 7.277A44.32 44.32 0 0 0 167.592 4l-38.224 7.745C104.268 16.824 86.18 38.617 86 64l2.624-.546C90.323 39.396 108 19.41 131.848 14.585z"/><path id="Path" fill="#7B538F" d="M125 23a3 3 0 1 0 6 0 3 3 0 0 0-6 0zM119 41a3 3 0 1 0 6 0 3 3 0 0 0-6 0zM149 18a3 3 0 1 0 6 0 3 3 0 0 0-6 0z"/><circle id="Oval" cx="147" cy="35" r="3" fill="#7B538F"/><circle id="Oval" cx="97" cy="47" r="3" fill="#7B538F"/><path id="Shape" fill="#611D34" d="M332.388 61h-.19l-34.205-4.045c-18.537-2.178-32.123-18.458-30.919-37.05l.993-15.378a1.623 1.623 0 0 1 1.817-1.516l14.141 1.674c27.942 3.3 49.223 26.571 49.974 54.647A1.626 1.626 0 0 1 332.372 61h.016zm-34.01-7.277l32.301 3.79c-1.615-25.7-21.4-46.574-47.017-49.607L271.218 6.44l-.878 13.655c-1.098 16.868 11.22 31.643 28.038 33.629zM84.644 65A1.651 1.651 0 0 1 83 63.342c.18-26.47 18.71-49.2 44.428-54.494l38-7.814c.437-.09.892.003 1.26.258.368.256.617.651.69 1.096 4.035 24.644-11.977 48.095-36.246 53.084l-46.16 9.5c-.108.02-.218.03-.328.028zm79.737-60.374l-36.301 7.466C104.68 16.986 87.52 37.21 86.343 61.28l44.132-9.08c21.888-4.509 36.655-25.238 33.906-47.596v.022zM234.648 244c-67.942 0-89.107-14.61-89.97-15.248a1.613 1.613 0 0 1-.317-2.332l7.165-8.814a1.644 1.644 0 0 1 1.277-.606H286.82c.402 0 .791.146 1.092.411l13.537 11.872c.674.591.74 1.611.147 2.283-.453.509-11.565 12.434-66.947 12.434zm-86.563-16.99c2.398 1.31 7.804 3.88 17.256 6.423 12.401 3.338 34.495 7.32 69.307 7.32 43.652 0 58.975-7.526 63.163-10.318l-11.615-10.189H153.584l-5.499 6.764z"/><path id="Rectangle" fill="#611D34" d="M286 174h8v1h-8zM280 178h12v1h-12z"/><path id="Path" fill="#CBB3D3" d="M283.379 20.51c-1.17-1.14-2.436-2.262-3.06-3.765-.624-1.503-.362-3.507 1.048-4.338.98-.55 2.23-.446 3.344-.247C298.77 14.653 310.976 25.464 315 39a68.506 68.506 0 0 0-20.492-1.266 45.937 45.937 0 0 0-11.13-17.224z" opacity=".5" style="mix-blend-mode:screen"/><path id="Path" fill="#CBB3D3" d="M103 41c3.576-7.175 9.938-12.518 16.899-16.176 6.96-3.659 14.564-5.747 22.101-7.824a19.643 19.643 0 0 0-2.016 5.12c-1.53 6.253-6.591 10.904-12.768 11.733A81.026 81.026 0 0 0 103 41z" opacity=".6" style="mix-blend-mode:screen"/><path id="Rectangle" fill="#611D34" d="M204.826 237.74l5.818-.001-.001 1.64-5.817.001z" transform="rotate(-76.95 207.735 238.56)"/><path id="Rectangle" fill="#611D34" d="M208.762 236.325l9.328-.001v1.64h-9.328z" transform="rotate(-80.63 213.426 237.144)"/><path id="Rectangle" fill="#611D34" d="M229.129 238.544h1.645v5.132h-1.645z" transform="rotate(-9.181 229.951 241.11)"/><path id="Rectangle" fill="#611D34" d="M264.322 230.913h1.64l-.001 10.378h-1.64z" transform="rotate(-14.84 265.141 236.102)"/><path id="Rectangle" fill="#611D34" d="M272.29 234.018h1.64l-.001 5.713h-1.64z" transform="rotate(-24.8 273.11 236.875)"/><path id="Rectangle" fill="#611D34" d="M247 142h4v1h-4zM246 148h11v1h-11z"/><path id="Path" fill="#F2D5C6" d="M90.379 100H85.46c-23.028 0-41.697 18.666-41.7 41.693v23.811c-8.326.012-15.072 6.759-15.084 15.084v18.068c-.328 0-.656-.028-.99-.028C13.5 198.628 2 210.128 2 224.314S13.5 250 27.687 250c.333 0 .661 0 .989-.027V250h17.538c21.525-.003 38.973-17.453 38.973-38.977a58.53 58.53 0 0 0-2.252-16.067l-6.596-23.014a29.745 29.745 0 0 1-1.143-8.624v-.546c.236-16.217 13.452-29.24 29.671-29.238L116 125.609C115.994 111.464 104.525 100 90.379 100z"/><path id="Path" fill="#57B49F" d="M105 134h.113l.887-1z"/><path id="Path" fill="#C2AA9B" d="M77 172.101a29.541 29.541 0 0 1-1.146-8.6v-.546C76.075 148.161 87.238 135.799 102 134c-15.018.83-27.054 12.673-28.053 27.602l-.033.546a29.455 29.455 0 0 0 .701 8.628l5.412 23.277a57.853 57.853 0 0 1 1.425 16.133 38.812 38.812 0 0 1-12.864 26.881 39.219 39.219 0 0 1-28.205 9.955l-17.576-.905c-.33 0-.658 0-.987-.027A25.766 25.766 0 0 1 10 242.528 25.753 25.753 0 0 0 28.18 250c.334 0 .663 0 .992-.027V250h17.61c21.592-.003 39.094-17.417 39.094-38.898a58.13 58.13 0 0 0-2.258-16.034L77 172.1z"/><path id="Path" fill="#57B49F" d="M115.498 125.25v.5c.01-.18 0-.34 0-.5z"/><path id="Path" fill="#C2AA9B" d="M30.259 198.652v14.033L50 219l-.432-2.792c-1.963-12.755-9.091-24.08-19.643-31.208l-.925.458v13.211l1.259-.017z"/><path id="Path" fill="#FFF" d="M42.251 165c-7.594 1.006-13.268 7.462-13.268 15.1v18.218c-.331 0-.663-.028-1-.028C13.633 198.29 2 209.887 2 224.191c-.001 9.53 5.248 18.291 13.666 22.809a25.843 25.843 0 0 1-10.94-21.112c0-14.304 11.632-25.9 25.982-25.9.337 0 .67 0 1 .027v-19.287a14.123 14.123 0 0 1 4.142-10.026 14.214 14.214 0 0 1 10.044-4.159H47V165h-4.749zM90.47 100h-4.9c-16.077 0-30.71 9.35-37.57 24.004 7.44-12.878 21.113-20.795 35.898-20.788h4.9c13.345.005 24.433 10.372 25.438 23.784l1.764-1.268a25.83 25.83 0 0 0-7.476-18.197A25.424 25.424 0 0 0 90.469 100z"/><path id="Path" fill="#C2AA9B" d="M75.274 137.597c-9.835 11.796-3.78 25.851 1.013 39.403l.86-.341-1.449-5.018a29.355 29.355 0 0 1-1.138-8.545v-.542c.236-16.079 13.403-28.99 29.565-28.988l2.875-2.043a9.468 9.468 0 0 0-2.641-1.582c-7.482-2.85-19.245-4.14-29.085 7.656zM112.206 127c-.71-.002-1.353-.372-1.637-.943l-2.39-4.8a1.411 1.411 0 0 1 .156-1.6c.381-.468 1.025-.716 1.676-.645.652.07 1.207.447 1.448.983l2.39 4.8c.397.794-.015 1.72-.92 2.069a1.92 1.92 0 0 1-.723.136z"/><path id="Path" fill="#F2D5C6" d="M74 223c0-8.837-6.944-16-15.51-16-8.559.012-15.49 7.172-15.49 16"/><path id="Path" fill="#C2AA9B" d="M74.323 224c-.92 0-1.665-.716-1.665-1.6.205-4.984-2.447-9.677-6.912-12.228a14.676 14.676 0 0 0-14.492 0c-4.465 2.55-7.117 7.244-6.912 12.229 0 .883-.745 1.599-1.665 1.599s-1.666-.716-1.666-1.6c-.228-6.141 3.055-11.912 8.56-15.048 5.505-3.136 12.353-3.136 17.858 0 5.505 3.136 8.788 8.907 8.56 15.049 0 .883-.746 1.599-1.666 1.599zM60.868 131c-.429 0-.84-.17-1.143-.473a6.214 6.214 0 0 1 .107-8.702 6.27 6.27 0 0 1 8.734-.106 1.607 1.607 0 0 1-.04 2.238 1.622 1.622 0 0 1-2.246.04 3.027 3.027 0 0 0-2.916-.78 3.013 3.013 0 0 0-2.135 2.128 3 3 0 0 0 .782 2.905c.462.46.6 1.153.35 1.755-.25.602-.84.994-1.493.995z"/><path id="Path" fill="#C2AA9B" d="M60.346 140.995c-.436 0-.854-.174-1.162-.482a7.302 7.302 0 0 1 3.25-12.268 7.312 7.312 0 0 1 7.084 1.935 1.645 1.645 0 1 1-2.329 2.327 4.025 4.025 0 0 0-5.69.003 4.02 4.02 0 0 0 .003 5.686A1.642 1.642 0 0 1 60.34 141l.006-.005z"/><path id="Path" fill="#F2D5C6" d="M28 242c11.598 0 21-9.848 21-21.997.001-5.835-2.21-11.432-6.149-15.558C38.913 200.318 33.571 198 28 198"/><path id="Path" fill="#611D34" d="M27.644 243c-.908 0-1.644-.74-1.644-1.654 0-.913.736-1.654 1.644-1.654 11.083 0 20.069-9.04 20.069-20.192 0-11.152-8.986-20.192-20.07-20.192-.907 0-1.643-.74-1.643-1.654 0-.914.736-1.654 1.644-1.654C40.543 196 51 206.521 51 219.5S40.543 243 27.644 243z"/><ellipse id="Oval" cx="23.5" cy="215" fill="#FFF" rx="11.5" ry="12"/><circle id="Oval" cx="85" cy="112" r="2" fill="#C2AA9B"/><circle id="Oval" cx="66" cy="174" r="2" fill="#C2AA9B"/><circle id="Oval" cx="16" cy="211" r="2" fill="#F2D5C6"/><path id="Path" fill="#F2D5C6" d="M26 207a2 2 0 1 0 4 0 2 2 0 0 0-4 0z"/><path id="Path" fill="#C2AA9B" d="M68 183.995a2 2 0 1 0 4 .01 2 2 0 0 0-4-.01z"/><circle id="Oval" cx="72" cy="196" r="2" fill="#C2AA9B"/><path id="Path" fill="#611D34" d="M44.031 167h-.397c-.903 0-1.634-.746-1.634-1.667 0-.92.731-1.666 1.634-1.666h.397c3.9 0 7.639-1.58 10.396-4.394 2.757-2.813 4.306-6.628 4.306-10.606 0-.92.731-1.667 1.633-1.667.903 0 1.634.746 1.634 1.667 0 4.862-1.893 9.525-5.263 12.963-3.37 3.438-7.94 5.37-12.706 5.37zM43.59 193a1.59 1.59 0 0 1-1.59-1.588 1.59 1.59 0 0 1 1.59-1.588 7.245 7.245 0 0 0 5.116-2.124 7.219 7.219 0 0 0 2.112-5.112A1.59 1.59 0 0 1 52.41 181c.879 0 1.591.711 1.591 1.588.003 5.743-4.656 10.403-10.41 10.412z"/><path id="Shape" fill="#611D34" d="M45.943 250.998H27.51c-15.014.18-27.33-11.887-27.509-26.952-.179-15.064 11.848-27.421 26.862-27.6V180.08c.008-8.595 6.504-15.787 15.028-16.639v-22.186c.027-23.88 19.316-43.23 43.116-43.255h4.894c14.959.027 27.077 12.19 27.098 27.2 0 .53-.254 1.029-.685 1.336l-11.07 7.938a1.627 1.627 0 0 1-.946.305c-15.219.06-27.603 12.304-27.887 27.571v.546a27.849 27.849 0 0 0 1.088 8.112l6.557 22.972a59.97 59.97 0 0 1 2.305 16.491c-.033 22.38-18.114 40.509-40.42 40.527zm-17.182-3.273h17.182c20.504-.024 37.12-16.697 37.14-37.27a56.846 56.846 0 0 0-2.174-15.592l-6.558-22.972a31.307 31.307 0 0 1-1.207-9.05v-.545c.315-16.846 13.828-30.438 30.617-30.795l9.955-7.12c-.462-12.88-10.995-23.087-23.842-23.102h-4.893c-21.999.024-39.827 17.909-39.854 39.981v23.763c0 .904-.73 1.637-1.631 1.637-7.376.024-13.349 6.019-13.37 13.42v18.035a1.628 1.628 0 0 1-1.696 1.631h-.92c-13.211 0-23.922 10.746-23.922 24.003s10.71 24.003 23.923 24.003h.919c.109-.022.22-.031.331-.027z"/><path id="Path" fill="#6A586E" d="M119.716 128.566c-.483-1.65-1.56-3.026-2.991-3.826a5.731 5.731 0 0 0-4.643-.44l-5.816 1.95c-1.54.518-2.827 1.67-3.574 3.202a6.93 6.93 0 0 0-.412 4.968c.483 1.658 1.564 3.04 3.003 3.843a5.736 5.736 0 0 0 4.663.43l5.81-1.952c3.2-1.093 4.97-4.748 3.96-8.175z"/><path id="Shape" fill="#611D34" d="M107.63 140c-3.769.002-6.974-2.74-7.542-6.453a7.598 7.598 0 0 1 5.269-8.4l5.73-1.798c4.02-1.253 8.3.974 9.564 4.978 1.255 4.006-.98 8.268-4.996 9.531l-5.735 1.792a7.586 7.586 0 0 1-2.29.35zm5.746-13.772c-.447.002-.891.07-1.317.205l-5.736 1.792a4.38 4.38 0 0 0-2.962 3.23 4.366 4.366 0 0 0 1.326 4.17 4.402 4.402 0 0 0 4.288.941l5.73-1.792a4.374 4.374 0 0 0 3.014-4.83 4.386 4.386 0 0 0-4.321-3.716h-.022z"/><path id="Path" fill="#917C8D" d="M113.792 129.467c-10.756 2.98-19.808 10.207-25.04 19.99a40.11 40.11 0 0 0-2.643 31.767L100.553 224 175 166.75l-18.976-23.694c-10.04-12.539-26.68-17.893-42.232-13.589z"/><path id="Path" fill="#6A586E" d="M96.175 178.873C89.508 159.177 98.915 137.679 118 129c-1.316.23-2.632.514-3.937.875-10.854 2.999-19.988 10.27-25.269 20.115a40.26 40.26 0 0 0-2.666 31.966L100.704 225l8.808-6.752-13.337-39.375z"/><path id="Shape" fill="#611D34" d="M100.14 226c-.161 0-.321-.023-.475-.071a1.64 1.64 0 0 1-1.093-1.05l-14.384-43.095a42.409 42.409 0 0 1 2.74-33.286 42.287 42.287 0 0 1 25.973-20.943c16.138-4.542 33.42 1.067 43.83 14.227l18.918 23.87a1.642 1.642 0 0 1-.284 2.31l-74.22 57.693a1.638 1.638 0 0 1-1.005.345zm13.657-95.272a39.008 39.008 0 0 0-23.96 19.321 39.12 39.12 0 0 0-2.524 30.707l13.657 40.888 71.09-55.226-17.886-22.567c-9.585-12.135-25.509-17.314-40.382-13.134l.005.011z"/><path id="Path" fill="#611D34" d="M158.36 157a1.628 1.628 0 0 1-1.314-.666l-1.508-2.049a97.339 97.339 0 0 0-25.82-24.264 1.663 1.663 0 0 1-.462-2.256 1.624 1.624 0 0 1 2.217-.53 100.632 100.632 0 0 1 26.69 25.073l1.514 2.054c.369.502.426 1.17.149 1.728-.278.559-.844.91-1.461.91h-.006z"/><path id="Path" fill="#C2AA9B" d="M102 187.075c14.124-15.724 32.913-29.61 53.713-40.075 11.242 6.664 19.192 16.445 24.287 25.028L150.46 198 102 187.075z"/><path id="Shape" fill="#611D34" d="M149.546 201a1.65 1.65 0 0 1-.368-.044l-48.892-11.081a1.65 1.65 0 0 1-.869-2.704c14.258-15.94 33.161-30.116 54.682-40.993a1.65 1.65 0 0 1 1.59.054c12.442 7.404 20.508 18.2 25.083 25.95.4.68.262 1.55-.33 2.072l-29.807 26.334a1.65 1.65 0 0 1-1.089.412zm-45.769-13.714l45.308 10.268 28.146-24.861c-4.399-7.146-11.651-16.49-22.456-23.163-19.876 10.164-37.438 23.168-50.998 37.762v-.006z"/><path id="Path" fill="#6A586E" d="M102 187.075c14.124-15.724 32.913-29.61 53.713-40.075 11.242 6.664 19.192 16.445 24.287 25.028L150.46 198 102 187.075z"/><path id="Path" fill="#FFF" d="M155.479 150.547c10.326 6.179 17.862 15.002 22.973 23.113l1.548-1.396c-5.095-8.664-13.045-18.537-24.287-25.264-20.8 10.563-39.589 24.58-53.713 40.453l2.48.547c13.764-14.63 31.485-27.558 50.999-37.453z"/><path id="Shape" fill="#611D34" d="M149.546 201a1.65 1.65 0 0 1-.368-.044l-48.892-11.081a1.65 1.65 0 0 1-.869-2.704c14.258-15.94 33.161-30.116 54.682-40.993a1.65 1.65 0 0 1 1.59.054c12.442 7.404 20.508 18.2 25.083 25.95.4.68.262 1.55-.33 2.072l-29.807 26.334a1.65 1.65 0 0 1-1.089.412zm-45.769-13.714l45.308 10.268 28.146-24.861c-4.399-7.146-11.651-16.49-22.456-23.163-19.876 10.164-37.438 23.168-50.998 37.762v-.006z"/><path id="Path" fill="#917C8D" d="M176 202.732L167.689 225h-67.526c3.446-8.258 3.937-17.836-1.163-29.93L172.429 167 176 202.732z"/><path id="Path" fill="#FFF" d="M158.735 167l-11.814 4.537 3.143 31.589L142 224.804l14.752.196L165 202.816z"/><path id="Path" fill="#6A586E" d="M107.37 224.978c3.333-8.183 3.744-17.66-1.304-29.58L173 169.912l-.29-2.913L99 195.08c5.12 12.09 4.626 21.665 1.168 29.92l7.202-.022z"/><path id="Path" fill="#FFF" d="M172.64 167l-4.027 1.637 3.211 34.106L164 225h4.182L176 202.743z"/><path id="Path" fill="#6A586E" d="M113.657 188.515a157.68 157.68 0 0 0-8.657 7.293v4.034a85.576 85.576 0 0 0 40.227 15.136l10.029.926a20.176 20.176 0 0 0 14.327-4.134 49.048 49.048 0 0 0 5.676-5.347l1.741-4.668-2.876-28.794c-2.37-1.797-4.673-3.49-6.817-4.961l-53.65 20.515z"/><path id="Shape" fill="#611D34" d="M167.96 226H99.835a1.653 1.653 0 0 1-1.526-2.297c3.691-8.86 3.306-18.344-1.173-28.993a1.66 1.66 0 0 1 .936-2.208l74.075-28.392a1.65 1.65 0 0 1 2.237 1.38l3.608 36.154a1.66 1.66 0 0 1-.099.745l-8.407 22.535A1.653 1.653 0 0 1 167.96 226zm-65.728-3.312h64.582l7.85-21.072-3.354-33.614-70.483 27.012c3.878 9.98 4.341 19.073 1.405 27.674z"/><path id="Path" fill="#6A586E" d="M179 242.102c-1.529 1.374-8.866 7.898-39.264 7.898-15.903 0-29.213-1.451-39.564-4.31-7.976-2.198-8.67-4.5-9.014-4.753L91 240.82 97.267 233h71.518L179 242.102z"/><path id="Path" fill="#917C8D" d="M169.946 233H152v4.575l.778.066L159.387 249c15.057-1.873 19.475-5.866 20.613-6.904L169.946 233z"/><path id="Path" fill="#611D34" d="M104 233h-4.905L93 241.019l.154.118c.234.18.637 1.38 3.493 2.863l5.92-7.8H104V233z"/><path id="Shape" fill="#611D34" d="M140.765 251c-16.174 0-29.717-1.445-40.317-4.33-7.418-2.003-9.13-4.195-9.773-5.045a1.62 1.62 0 0 1-.66-1.082c-.06-.442.067-.888.352-1.234l6.312-7.708a1.662 1.662 0 0 1 1.287-.601h72.092c.405-.002.797.142 1.1.406l10.286 8.985c.354.308.556.75.556 1.215 0 .465-.202.907-.556 1.215-6.108 5.348-20.174 8.179-40.68 8.179zm-46.937-10.739c1.315 1.202 3.852 2.311 7.495 3.302 10.291 2.782 23.565 4.19 39.442 4.19 22.87 0 32.76-3.524 36.987-6.247l-8.327-7.248H98.748l-4.92 6.003z"/><path id="Path" fill="#917C8D" d="M178 233.562c-1.44 1.293-8.366 7.438-37.028 7.438-15.002 0-27.56-1.365-37.322-4.056-7.52-2.078-8.186-4.237-8.503-4.473l-.147-.11 5.91-7.361h67.452l9.638 8.562z"/><path id="Path" fill="#6A586E" d="M108 224h-7.355L95 231.185l.14.107c.282.209.814 1.905 6.016 3.708L108 224z"/><path id="Path" fill="#FFF" d="M154.02 240a76.348 76.348 0 0 0 12.98-2.196L158.33 224H144l10.02 16zM174.602 235a14.79 14.79 0 0 0 3.398-2.273L168.178 224H163l11.602 11z"/><path id="Shape" fill="#611D34" d="M139.454 242c-15.095 0-27.743-1.367-37.632-4.057-6.925-1.886-8.546-3.96-9.16-4.77a1.651 1.651 0 0 1-.648-1.08c-.059-.441.067-.887.348-1.233l5.886-7.255c.31-.383.778-.605 1.273-.605h67.235c.4-.002.788.142 1.088.405l9.607 8.444a1.616 1.616 0 0 1 0 2.426c-5.718 5.024-18.86 7.725-37.997 7.725zm-43.66-10.216c1.23 1.08 3.537 2.118 6.893 3.036 9.568 2.61 21.95 3.939 36.767 3.939 21.133 0 30.36-3.242 34.341-5.802l-7.66-6.732h-65.847l-4.493 5.56z"/><path id="Path" fill="#611D34" d="M139.432 237c-16.513 0-28.203-1.272-37.979-4.13a24.265 24.265 0 0 1-6.803-2.955 1.606 1.606 0 0 1-.351-2.223 1.669 1.669 0 0 1 2.245-.434 21.167 21.167 0 0 0 5.85 2.5c9.44 2.766 20.85 3.995 37.016 3.995 19.314 0 29.238-2.874 34.158-5.288a1.675 1.675 0 0 1 1.68.068c.505.323.791.89.748 1.48-.044.59-.41 1.111-.958 1.358-5.212 2.571-15.648 5.629-35.606 5.629z"/><path id="Path" fill="#FFF" d="M181 194.808v-18.502a7.26 7.26 0 0 0-1.334-4.196c-7.447-5.86-14.823-11.313-19.192-13.11-18.978 6.974-38.492 19.103-53.474 32.803v4.036a84.367 84.367 0 0 0 39.914 15.139l9.952.926a19.906 19.906 0 0 0 14.216-4.135c3-2.461 5.736-5.233 8.163-8.27a7.202 7.202 0 0 0 1.755-4.691z"/><path id="Shape" fill="#611D34" d="M158.254 214c-.691 0-1.383-.033-2.08-.099l-9.91-.92a86.078 86.078 0 0 1-40.572-15.351 1.647 1.647 0 0 1-.692-1.343v-4.013c.002-.465.2-.907.545-1.217 15.383-14.035 35-26.046 53.815-32.948.381-.145.802-.145 1.182 0 3.814 1.568 9.806 5.663 19.502 13.267.125.093.233.206.322.334a8.76 8.76 0 0 1 1.634 5.132v18.398a8.804 8.804 0 0 1-2.146 5.756 56.449 56.449 0 0 1-8.357 8.426A21.258 21.258 0 0 1 158.254 214zm-49.986-18.568a82.788 82.788 0 0 0 38.318 14.253l9.893.921c4.654.467 9.309-.883 13.003-3.771a53.155 53.155 0 0 0 7.882-7.972 5.502 5.502 0 0 0 1.367-3.623v-18.376a5.458 5.458 0 0 0-.904-3.027c-5.605-4.385-13.357-10.3-17.977-12.411-18.03 6.715-36.764 18.179-51.592 31.583l.01 2.423z"/><path id="Path" fill="#6A586E" d="M181 194.808v-18.502a7.26 7.26 0 0 0-1.334-4.196c-7.447-5.86-14.823-11.313-19.192-13.11-18.978 6.974-38.492 19.103-53.474 32.803v4.036a84.367 84.367 0 0 0 39.914 15.139l9.952.926a19.906 19.906 0 0 0 14.216-4.135c3-2.461 5.736-5.233 8.163-8.27a7.202 7.202 0 0 0 1.755-4.691z"/><path id="Path" fill="#6A586E" d="M164 161.084L150.298 210l-3.803-.35A83.459 83.459 0 0 1 134 207.385l11.887-42.442A147.811 147.811 0 0 1 159.963 159a29.489 29.489 0 0 1 4.037 2.084zM136 170l-9.497 36a83.158 83.158 0 0 1-9.503-4.197l6.228-23.585A170.449 170.449 0 0 1 136 170z" opacity=".4" style="mix-blend-mode:screen"/><path id="Path" fill="#FFF" d="M179.67 172.052c-7.4-5.835-14.728-11.263-19.068-13.052-13.549 4.989-27.368 12.623-39.602 21.592 11.527-8.107 24.299-14.99 36.837-19.605 4.345 1.79 11.668 7.217 19.062 13.051a7.185 7.185 0 0 1 1.336 4.172v18.419a7.178 7.178 0 0 1-1.744 4.687 56.648 56.648 0 0 1-7.48 7.684 18.743 18.743 0 0 0 2.14-1.465 55.24 55.24 0 0 0 8.11-8.233A7.178 7.178 0 0 0 181 194.62v-18.392a7.24 7.24 0 0 0-1.33-4.176z"/><path id="Shape" fill="#611D34" d="M158.254 214c-.691 0-1.383-.033-2.08-.099l-9.91-.92a86.18 86.18 0 0 1-40.572-15.319l-.692-.487v-5.586l.545-.487c15.383-14.007 35-25.995 53.815-32.883l.594-.219.588.24c3.814 1.566 9.806 5.653 19.502 13.241l.185.143.137.191a8.732 8.732 0 0 1 1.634 5.121v18.362a8.777 8.777 0 0 1-2.146 5.745 56.392 56.392 0 0 1-8.357 8.41A21.285 21.285 0 0 1 158.254 214zm-49.986-18.532a82.888 82.888 0 0 0 38.318 14.226l9.893.919c4.654.466 9.309-.882 13.003-3.765a53.1 53.1 0 0 0 7.882-7.955 5.485 5.485 0 0 0 1.367-3.617v-18.34a5.44 5.44 0 0 0-.904-3.02c-5.605-4.377-13.357-10.28-17.977-12.387-18.03 6.702-36.764 18.143-51.592 31.52l.01 2.419z"/><rect id="Rectangle" width="10" height="15" x="97" y="187" fill="#611D34" rx="5"/><path id="Shape" fill="#611D34" d="M102.503 204c-3.588-.003-6.497-2.932-6.503-6.548v-4.899c.003-3.618 2.913-6.55 6.503-6.553 3.588.006 6.494 2.938 6.497 6.553v4.899c-.003 3.615-2.91 6.545-6.497 6.548zm0-14.69c-1.777.003-3.216 1.453-3.219 3.243v4.899c.071 1.738 1.49 3.11 3.216 3.11 1.726 0 3.145-1.372 3.216-3.11v-4.899c0-1.789-1.438-3.24-3.213-3.243z"/><path id="Path" fill="#78647D" d="M99.997 187A5.002 5.002 0 0 0 95 192.002v5.002A4.997 4.997 0 0 0 99.997 202c2.761 0 5-2.236 5.003-4.996v-5.002A5.008 5.008 0 0 0 99.997 187z"/><path id="Shape" fill="#611D34" d="M100.514 204a6.508 6.508 0 0 1-4.602-1.894 6.477 6.477 0 0 1-1.91-4.586v-4.847a6.482 6.482 0 0 1 3.194-5.773 6.513 6.513 0 0 1 6.608 0 6.482 6.482 0 0 1 3.193 5.773v4.847c-.006 3.572-2.903 6.468-6.483 6.48zm0-14.537a3.213 3.213 0 0 0-3.212 3.21v4.847a3.214 3.214 0 0 0 3.214 3.078 3.214 3.214 0 0 0 3.215-3.078v-4.847a3.219 3.219 0 0 0-3.217-3.21z"/><path id="Path" fill="#611D34" d="M163.208 166.027l-.044-.027-.246.148a1.583 1.583 0 0 0-1.009-.11l-.605.16c-.721.208-1.244.902-1.304 1.729v36.43c.001.665.305 1.283.807 1.643h.044l.251-.153c.31.147.654.186.984.11.202-.045.404-.1.605-.154.723-.211 1.248-.907 1.309-1.735V167.67c.002-.661-.296-1.279-.792-1.643zM153 171.179v32.629a2.324 2.324 0 0 1-.656 1.622 1.868 1.868 0 0 1-1.52.56h-.016c-1.016-.108-1.795-1.049-1.808-2.182V171.2c-.007-.854.434-1.634 1.13-1.997h.04a1.824 1.824 0 0 1 1.897.136c.57.398.922 1.09.933 1.839zM175 175.317v20.325c0 .551-.174 1.083-.487 1.496l-.043.057c-.537.732-1.409.996-2.184.662-.774-.334-1.288-1.196-1.286-2.158v-20.405c0-.875.428-1.674 1.104-2.06.675-.385 1.48-.29 2.074.247l.043.04c.486.424.774 1.088.779 1.796zM141 177.236v25.523c.005.672-.26 1.31-.722 1.736-.461.426-1.069.595-1.654.459h-.039c-.924-.216-1.586-1.133-1.585-2.195v-25.495c-.004-.794.368-1.53.976-1.932l.044-.027a1.792 1.792 0 0 1 1.988-.008c.616.4.995 1.14.992 1.94zM130 184.232v15.533c.002.728-.311 1.41-.839 1.83a1.79 1.79 0 0 1-1.81.272l-.073-.033c-.774-.321-1.285-1.156-1.278-2.086v-15.483c0-.739.323-1.43.863-1.848l.04-.028a1.792 1.792 0 0 1 2.04-.13c.65.385 1.057 1.145 1.057 1.973zM120 191.302v2.372c.002.821-.367 1.582-.969 2.001a1.728 1.728 0 0 1-1.961.038l-.04-.028c-.632-.41-1.026-1.187-1.03-2.034v-2.291c0-.7.267-1.361.728-1.805l.039-.034c.59-.563 1.404-.68 2.093-.3.69.38 1.132 1.188 1.14 2.081zM131 136.5a1.5 1.5 0 1 0 3 0 1.5 1.5 0 0 0-3 0zM140 144.496a1.5 1.5 0 1 0 3 .008 1.5 1.5 0 0 0-3-.008zM99 240.496a1.5 1.5 0 1 0 3 .008 1.5 1.5 0 0 0-3-.008zM117 244.504a1.5 1.5 0 1 0 3-.008 1.5 1.5 0 0 0-3 .008zM138 245.496a1.5 1.5 0 1 0 3 .008 1.5 1.5 0 0 0-3-.008zM162 242.5a1.5 1.5 0 1 0 3 0 1.5 1.5 0 0 0-3 0z"/><circle id="Oval" cx="99" cy="195" r="2" fill="#611D34"/><path id="Path" fill="#611D34" d="M52.5 178c-.828 0-1.5-.784-1.5-1.75v-3.5c0-.966.672-1.75 1.5-1.75s1.5.784 1.5 1.75v3.5c0 .966-.672 1.75-1.5 1.75z"/><path id="Path" fill="#CBB3D3" d="M127.68 154.83a91.312 91.312 0 0 0-21.9 14.17c-5.193-13.745 1.341-29.128 14.866-35 4.52 2.508 7.727 5.947 10.302 10.274a7.415 7.415 0 0 1 .72 6 7.458 7.458 0 0 1-3.988 4.555z" opacity=".8" style="mix-blend-mode:screen"/><path id="Path" fill="#FFF" d="M197.22 102.218l-8.22 2.777 8.22 2.782 2.783 8.223 2.777-8.223 8.22-2.782-8.22-2.777L200.003 94zM16.218 120.223L8 123l8.218 2.782L19 134l2.777-8.218L30 123l-8.223-2.777L19 112zM13.858 98.853L9 100.497l4.858 1.639L15.503 107l1.639-4.864L22 100.497l-4.858-1.644L15.503 94zM27.352 106.352L21 108.503l6.352 2.145L29.497 117l2.146-6.352L38 108.503l-6.357-2.151L29.497 100z"/></g></g></g></svg>