<?xml version="1.0" encoding="UTF-8"?>
<svg width="226px" height="113px" viewBox="0 0 226 113" version="1.1" xmlns="http://www.w3.org/2000/svg" xmlns:xlink="http://www.w3.org/1999/xlink">
    <!-- Generator: Sketch 55.2 (78181) - https://sketchapp.com -->
    <title>no-items-speed-dial-helper</title>
    <desc>Created with Sketch.</desc>
    <g id="Welcome" stroke="none" stroke-width="1" fill="none" fill-rule="evenodd">
        <g id="MVP---Collections---No-Items" transform="translate(-1146.000000, -674.000000)" fill="#FAFEFD" fill-rule="nonzero">
            <g id="no-items-speed-dial-helper" transform="translate(1146.000000, 676.000000)">
                <path d="M4.734,8.646 C5.08200174,8.646 5.42999826,8.57700069 5.778,8.439 C6.12600174,8.30099931 6.43799862,8.10300129 6.714,7.845 C6.99000138,7.58699871 7.22399904,7.27200186 7.416,6.9 C7.60800096,6.52799814 7.72799976,6.09600246 7.776,5.604 C7.8360003,4.97999688 7.78800078,4.5180015 7.632,4.218 C7.47599922,3.9179985 7.27500123,3.72000048 7.029,3.624 C6.78299877,3.52799952 6.51900141,3.50099979 6.237,3.543 C5.95499859,3.58500021 5.71200102,3.6359997 5.508,3.696 C5.05199772,3.92400114 4.69200132,4.19399844 4.428,4.506 C4.16399868,4.81800156 3.96300069,5.1539982 3.825,5.514 C3.68699931,5.8740018 3.60300015,6.24599808 3.573,6.63 C3.54299985,7.01400192 3.528,7.3859982 3.528,7.746 C3.60000036,7.9260009 3.68699949,8.0759994 3.789,8.196 C3.89100051,8.3160006 4.0019994,8.40899967 4.122,8.475 C4.2420006,8.54100033 4.35599946,8.58599988 4.464,8.61 C4.57200054,8.63400012 4.66199964,8.646 4.734,8.646 Z M5.85,1.482 C6.46200306,1.4219997 7.04699721,1.46999922 7.605,1.626 C8.16300279,1.78200078 8.6519979,2.02799832 9.072,2.364 C9.4920021,2.70000168 9.81599886,3.12599742 10.044,3.642 C10.2720011,4.15800258 10.3620002,4.7459967 10.314,5.406 C10.2659998,6.09000342 10.1040014,6.71999712 9.828,7.296 C9.55199862,7.87200288 9.21000204,8.38199778 8.802,8.826 C8.39399796,9.27000222 7.94700243,9.6419985 7.461,9.942 C6.97499757,10.2420015 6.4920024,10.4459995 6.012,10.554 C5.66399826,10.6380004 5.32200168,10.6740001 4.986,10.662 C4.64999832,10.6499999 4.34400138,10.6140003 4.068,10.554 C4.1880006,10.9260019 4.3079994,11.2799983 4.428,11.616 C4.5480006,11.9520017 4.65899949,12.2609986 4.761,12.543 C4.86300051,12.8250014 4.93799976,13.0739989 4.986,13.29 C5.03400024,13.5060011 5.04600012,13.6859993 5.022,13.83 C4.9619997,14.1660017 4.83600096,14.429999 4.644,14.622 C4.45199904,14.814001 4.23000126,14.9369997 3.978,14.991 C3.72599874,15.0450003 3.46200138,15.0300004 3.186,14.946 C2.90999862,14.8619996 2.65800114,14.7120011 2.43,14.496 C2.10599838,14.1959985 1.82700117,13.7670028 1.593,13.209 C1.35899883,12.6509972 1.17300069,12.0270035 1.035,11.337 C0.89699931,10.6469966 0.81300015,9.92100381 0.783,9.159 C0.75299985,8.39699619 0.77999958,7.6560036 0.864,6.936 C0.94800042,6.2159964 1.08899901,5.54700309 1.287,4.929 C1.48500099,4.31099691 1.75199832,3.79800204 2.088,3.39 C2.23200072,3.2099991 2.39999904,3.02100099 2.592,2.823 C2.78400096,2.62499901 3.02699853,2.4360009 3.321,2.256 C3.61500147,2.0759991 3.96899793,1.91700069 4.383,1.779 C4.79700207,1.64099931 5.28599718,1.5420003 5.85,1.482 Z M13.0834286,7.224 C13.1434289,7.00799892 13.2784275,6.81300087 13.4884286,6.639 C13.6984296,6.46499913 13.9534271,6.31200066 14.2534286,6.18 C14.5534301,6.04799934 14.8834268,5.93700045 15.2434286,5.847 C15.6034304,5.75699955 15.9574268,5.69100021 16.3054286,5.649 C16.6534303,5.60699979 16.986427,5.58899997 17.3044286,5.595 C17.6224301,5.60100003 17.8954274,5.62799976 18.1234285,5.676 C18.3154295,5.71200018 18.5194275,5.79899931 18.7354286,5.937 C18.9514296,6.07500069 19.0954282,6.23699907 19.1674286,6.423 C19.2394289,6.60900093 19.2064292,6.80999892 19.0684286,7.026 C18.9304279,7.24200108 18.615431,7.45199898 18.1234285,7.656 C17.9794278,7.7160003 17.8174295,7.74300003 17.6374286,7.737 C17.4574276,7.73099997 17.2924293,7.71900009 17.1424286,7.701 C16.9924278,7.68299991 16.8634291,7.67100003 16.7554286,7.665 C16.647428,7.65899997 16.5934286,7.6859997 16.5934286,7.746 C16.5934286,7.95000102 16.7104274,8.17499877 16.9444286,8.421 C17.1784297,8.66700123 17.4574269,8.91299877 17.7814286,9.159 C18.1054302,9.40500123 18.4354269,9.64199886 18.7714286,9.87 C19.1074302,10.0980011 19.3714276,10.2959992 19.5634286,10.464 C19.9714306,10.8120017 19.9774305,11.2379975 19.5814286,11.742 C19.3654275,12.0180014 19.11343,12.260999 18.8254286,12.471 C18.5374271,12.681001 18.2224303,12.8549993 17.8804286,12.993 C17.5384268,13.1310007 17.1874303,13.2359996 16.8274286,13.308 C16.4674268,13.3800004 16.1074304,13.416 15.7474286,13.416 C15.5314275,13.416 15.2554302,13.3740004 14.9194286,13.29 C14.5834269,13.2059996 14.2534302,13.0950007 13.9294286,12.957 C13.6054269,12.8189993 13.3174298,12.6600009 13.0654286,12.48 C12.8134273,12.2999991 12.6694287,12.1020011 12.6334286,11.886 C12.5974284,11.7059991 12.6244281,11.5500007 12.7144286,11.418 C12.804429,11.2859993 12.9304277,11.1810004 13.0924286,11.103 C13.2544294,11.0249996 13.4344276,10.9770001 13.6324286,10.959 C13.8304295,10.9409999 14.0134277,10.9559998 14.1814286,11.004 C14.3014292,11.0400002 14.4724274,11.0789998 14.6944286,11.121 C14.9164297,11.1630002 15.1354275,11.187 15.3514286,11.193 C15.5674296,11.199 15.7564277,11.1750003 15.9184286,11.121 C16.0804294,11.0669997 16.1674285,10.9560008 16.1794286,10.788 C16.1794286,10.7519998 16.0954294,10.6710006 15.9274286,10.545 C15.7594277,10.4189994 15.5494298,10.2630009 15.2974286,10.077 C15.0454273,9.89099907 14.77843,9.6780012 14.4964286,9.438 C14.2144271,9.1979988 13.9564297,8.95200126 13.7224286,8.7 C13.4884274,8.44799874 13.3084292,8.19600126 13.1824286,7.944 C13.0564279,7.69199874 13.0234283,7.45200114 13.0834286,7.224 Z M22.7288571,7.224 C22.7888574,7.00799892 22.9238561,6.81300087 23.1338571,6.639 C23.3438582,6.46499913 23.5988556,6.31200066 23.8988571,6.18 C24.1988586,6.04799934 24.5288553,5.93700045 24.8888571,5.847 C25.2488589,5.75699955 25.6028554,5.69100021 25.9508571,5.649 C26.2988588,5.60699979 26.6318555,5.58899997 26.9498571,5.595 C27.2678587,5.60100003 27.540856,5.62799976 27.7688571,5.676 C27.9608581,5.71200018 28.164856,5.79899931 28.3808571,5.937 C28.5968582,6.07500069 28.7408567,6.23699907 28.8128571,6.423 C28.8848575,6.60900093 28.8518578,6.80999892 28.7138571,7.026 C28.5758564,7.24200108 28.2608596,7.45199898 27.7688571,7.656 C27.6248564,7.7160003 27.462858,7.74300003 27.2828571,7.737 C27.1028562,7.73099997 26.9378579,7.71900009 26.7878571,7.701 C26.6378563,7.68299991 26.5088576,7.67100003 26.4008571,7.665 C26.2928566,7.65899997 26.2388571,7.6859997 26.2388571,7.746 C26.2388571,7.95000102 26.3558559,8.17499877 26.5898571,8.421 C26.8238583,8.66700123 27.1028555,8.91299877 27.4268571,9.159 C27.7508587,9.40500123 28.0808554,9.64199886 28.4168571,9.87 C28.7528588,10.0980011 29.0168561,10.2959992 29.2088571,10.464 C29.6168591,10.8120017 29.6228591,11.2379975 29.2268571,11.742 C29.010856,12.0180014 28.7588585,12.260999 28.4708571,12.471 C28.1828557,12.681001 27.8678588,12.8549993 27.5258571,12.993 C27.1838554,13.1310007 26.8328589,13.2359996 26.4728571,13.308 C26.1128553,13.3800004 25.7528589,13.416 25.3928571,13.416 C25.176856,13.416 24.9008588,13.3740004 24.5648571,13.29 C24.2288554,13.2059996 23.8988587,13.0950007 23.5748571,12.957 C23.2508555,12.8189993 22.9628584,12.6600009 22.7108571,12.48 C22.4588558,12.2999991 22.3148573,12.1020011 22.2788571,11.886 C22.2428569,11.7059991 22.2698567,11.5500007 22.3598571,11.418 C22.4498576,11.2859993 22.5758563,11.1810004 22.7378571,11.103 C22.8998579,11.0249996 23.0798561,10.9770001 23.2778571,10.959 C23.4758581,10.9409999 23.6588563,10.9559998 23.8268571,11.004 C23.9468577,11.0400002 24.117856,11.0789998 24.3398571,11.121 C24.5618582,11.1630002 24.780856,11.187 24.9968571,11.193 C25.2128582,11.199 25.4018563,11.1750003 25.5638571,11.121 C25.7258579,11.0669997 25.812857,10.9560008 25.8248571,10.788 C25.8248571,10.7519998 25.7408579,10.6710006 25.5728571,10.545 C25.4048563,10.4189994 25.1948584,10.2630009 24.9428571,10.077 C24.6908558,9.89099907 24.4238585,9.6780012 24.1418571,9.438 C23.8598557,9.1979988 23.6018583,8.95200126 23.3678571,8.7 C23.1338559,8.44799874 22.9538577,8.19600126 22.8278571,7.944 C22.7018565,7.69199874 22.6688568,7.45200114 22.7288571,7.224 Z M38.6562857,4.614 C38.9562872,4.614 39.1842849,4.65899955 39.3402857,4.749 C39.4962864,4.83900045 39.5982854,4.95299931 39.6462857,5.091 C39.6942859,5.22900069 39.6972859,5.38499913 39.6552857,5.559 C39.6132854,5.73300087 39.5412862,5.90399916 39.4392857,6.072 C39.3372851,6.24000084 39.2172863,6.39599928 39.0792857,6.54 C38.941285,6.68400072 38.8002864,6.79799958 38.6562857,6.882 C38.524285,6.96600042 38.3532867,7.04699961 38.1432857,7.125 C37.9332846,7.20300039 37.690287,7.28399958 37.4142857,7.368 C37.4502858,8.23200432 37.4832855,9.13499529 37.5132857,10.077 C37.5432858,11.0190047 37.5702855,12.0539944 37.5942857,13.182 C37.5942857,13.3020006 37.5282863,13.4129995 37.3962857,13.515 C37.264285,13.6170005 37.0962867,13.7009997 36.8922857,13.767 C36.6882846,13.8330003 36.4662869,13.8719999 36.2262857,13.884 C35.9862845,13.8960001 35.7612867,13.8720003 35.5512857,13.812 C35.3412846,13.7519997 35.1612864,13.6470008 35.0112857,13.497 C34.8612849,13.3469992 34.7742858,13.1400013 34.7502857,12.876 C34.6902854,12.2159967 34.6332859,11.4630042 34.5792857,10.617 C34.5252854,9.77099577 34.4742859,8.88000468 34.4262857,7.944 C34.0062836,7.99200024 33.6222874,8.01300003 33.2742857,8.007 C32.9262839,8.00099997 32.6442867,7.9680003 32.4282857,7.908 C32.092284,7.81199952 31.8552863,7.65300111 31.7172857,7.431 C31.579285,7.20899889 31.5192856,6.97500123 31.5372857,6.729 C31.5552857,6.48299877 31.6392849,6.25200108 31.7892857,6.036 C31.9392864,5.81999892 32.1342845,5.67000042 32.3742857,5.586 C32.8302879,5.42999922 33.4662816,5.28000072 34.2822857,5.136 C34.2222854,4.10399484 34.1742858,3.15600432 34.1382857,2.292 C34.1022855,1.42799568 34.0722858,0.60000396 34.0482857,-0.192 C34.0362856,-0.39600102 34.1052849,-0.58199916 34.2552857,-0.75 C34.4052864,-0.91800084 34.5882846,-1.05899943 34.8042857,-1.173 C35.0202867,-1.28700057 35.2602843,-1.36799976 35.5242857,-1.416 C35.788287,-1.46400024 36.0312845,-1.47300015 36.2532857,-1.443 C36.4752868,-1.41299985 36.6612849,-1.34400054 36.8112857,-1.236 C36.9612864,-1.12799946 37.0422856,-0.97200102 37.0542857,-0.768 C37.0662857,-0.2279973 37.0812856,0.27599766 37.0992857,0.744 C37.1172857,1.21200234 37.1352856,1.66199784 37.1532857,2.094 C37.1712857,2.52600216 37.1922855,2.95499787 37.2162857,3.381 C37.2402858,3.80700213 37.2642855,4.24799772 37.2882857,4.704 C37.564287,4.67999988 37.8192845,4.65900009 38.0532857,4.641 C38.2872868,4.62299991 38.4882848,4.614 38.6562857,4.614 Z M45.6557142,13.182 C45.6797143,13.2900005 45.6617145,13.4639988 45.6017142,13.704 C45.5417139,13.9440012 45.4457149,14.2079986 45.3137142,14.496 C45.1817135,14.7840014 45.0197152,15.0869984 44.8277142,15.405 C44.6357132,15.7230016 44.4287153,16.0079987 44.2067142,16.26 C43.9847131,16.5120013 43.7507154,16.7219992 43.5047142,16.89 C43.258713,17.0580008 43.0157154,17.142 42.7757142,17.142 C42.6317135,17.142 42.5267145,17.0520009 42.4607142,16.872 C42.3947139,16.6919991 42.3617142,16.4730013 42.3617142,16.215 C42.3617142,15.9569987 42.3887139,15.6840014 42.4427142,15.396 C42.4967145,15.1079986 42.5717137,14.862001 42.6677142,14.658 C42.4757132,14.5379994 42.3137149,14.3970008 42.1817142,14.235 C42.0497135,14.0729992 41.9507145,13.9050009 41.8847142,13.731 C41.8187139,13.5569991 41.7827142,13.3920008 41.7767142,13.236 C41.7707142,13.0799992 41.7977139,12.9480005 41.8577142,12.84 C41.9537147,12.635999 42.1127131,12.4800005 42.3347142,12.372 C42.5567153,12.2639995 42.8057128,12.1950001 43.0817142,12.165 C43.3577156,12.1349998 43.6457127,12.1379998 43.9457142,12.174 C44.2457157,12.2100002 44.5217129,12.2759995 44.7737142,12.372 C45.0257155,12.4680005 45.2327134,12.5849993 45.3947142,12.723 C45.556715,12.8610007 45.6437141,13.0139992 45.6557142,13.182 Z M58.9345713,10.176 C58.9945716,9.92399874 58.9615719,9.6480015 58.8355713,9.348 C58.7095707,9.0479985 58.5145726,8.78400114 58.2505713,8.556 C57.98657,8.32799886 57.6745731,8.16300051 57.3145713,8.061 C56.9545695,7.95899949 56.5705733,7.97999928 56.1625713,8.124 C56.0425707,8.16000018 55.9195719,8.23199946 55.7935713,8.34 C55.6675707,8.44800054 55.5625717,8.58299919 55.4785713,8.745 C55.3945709,8.90700081 55.3435714,9.10199886 55.3255713,9.33 C55.3075712,9.55800114 55.3525708,9.80999862 55.4605713,10.086 C55.592572,10.4340017 55.8385695,10.7219989 56.1985713,10.95 C56.5585731,11.1780011 57.0505682,11.2380005 57.6745713,11.13 C57.7705718,11.1179999 57.8845706,11.0910002 58.0165713,11.049 C58.148572,11.0069998 58.2775707,10.9470004 58.4035713,10.869 C58.5295719,10.7909996 58.6405708,10.6950006 58.7365713,10.581 C58.8325718,10.4669994 58.8985711,10.3320008 58.9345713,10.176 Z M54.7945713,6.27 C55.4425745,6.04199886 56.0725682,5.94899979 56.6845713,5.991 C57.2965744,6.03300021 57.8605687,6.16799886 58.3765713,6.396 C58.8925739,6.62400114 59.3605692,6.92399814 59.7805713,7.296 C60.2005734,7.66800186 60.54557,8.07299781 60.8155713,8.511 C61.0855727,8.94900219 61.2745708,9.39899769 61.3825713,9.861 C61.4905718,10.3230023 61.5025717,10.751998 61.4185713,11.148 C61.3345709,11.5080018 61.1725725,11.8229986 60.9325713,12.093 C60.6925701,12.3630014 60.4255728,12.5909991 60.1315713,12.777 C59.8375698,12.9630009 59.5315729,13.1099995 59.2135713,13.218 C58.8955697,13.3260005 58.6225724,13.3979998 58.3945713,13.434 C57.6625676,13.5540006 57.0055742,13.5690005 56.4235713,13.479 C55.8415684,13.3889996 55.3345735,13.2210012 54.9025713,12.975 C54.4705691,12.7289988 54.1105727,12.4290018 53.8225713,12.075 C53.5345699,11.7209982 53.3125721,11.3340021 53.1565713,10.914 C52.90457,10.2539967 52.7965711,9.65700267 52.8325713,9.123 C52.8685715,8.58899733 52.9855703,8.12700195 53.1835713,7.737 C53.3815723,7.34699805 53.6305698,7.02900123 53.9305713,6.783 C54.2305728,6.53699877 54.5185699,6.36600048 54.7945713,6.27 Z M63.0539999,6.486 C62.9939996,6.3059991 63.0719988,6.14100075 63.2879999,5.991 C63.5040009,5.84099925 63.7649983,5.73000036 64.0709999,5.658 C64.3770014,5.58599964 64.6829983,5.56799982 64.9889999,5.604 C65.2950014,5.64000018 65.5019993,5.75999898 65.6099999,5.964 C65.7060003,6.16800102 65.8109993,6.44699823 65.9249999,6.801 C66.0390004,7.15500177 66.1469993,7.50899823 66.2489999,7.863 C66.3510004,8.21700177 66.4409995,8.52299871 66.5189999,8.781 C66.5970002,9.03900129 66.6479997,9.168 66.6719999,9.168 C66.696,9.168 66.7679993,9.01500153 66.8879999,8.709 C67.0080005,8.40299847 67.154999,8.0400021 67.3289999,7.62 C67.5030007,7.1999979 67.6919988,6.77100219 67.8959999,6.333 C68.1000009,5.89499781 68.291999,5.55000126 68.4719999,5.298 C68.5920005,5.1179991 68.7929984,5.01000018 69.0749998,4.974 C69.3570013,4.93799982 69.6269986,4.97099949 69.8849998,5.073 C70.1430011,5.17500051 70.3439991,5.34899877 70.4879999,5.595 C70.6320006,5.84100123 70.6260006,6.16199802 70.4699999,6.558 C70.0859979,7.53000486 69.7170016,8.51999496 69.3629999,9.528 C69.0089981,10.536005 68.5980022,11.6159942 68.1299999,12.768 C68.0459994,12.9840011 67.8780011,13.1669992 67.6259999,13.317 C67.3739986,13.4670008 67.0950014,13.5479999 66.7889999,13.56 C66.4829983,13.5720001 66.1800014,13.4970008 65.8799999,13.335 C65.5799983,13.1729992 65.3340008,12.8820021 65.1419999,12.462 C64.973999,12.0899981 64.8000008,11.6520025 64.6199998,11.148 C64.439999,10.6439975 64.2600008,10.1190027 64.0799999,9.573 C63.899999,9.02699727 63.7230007,8.4840027 63.5489999,7.944 C63.374999,7.4039973 63.2100006,6.91800216 63.0539999,6.486 Z M75.1834284,9.132 C75.2314286,9.1920003 75.3574274,9.20400018 75.5614284,9.168 C75.7654294,9.13199982 75.9844272,9.07200042 76.2184284,8.988 C76.4524296,8.90399958 76.6834273,8.81100051 76.9114284,8.709 C77.1394295,8.60699949 77.3074279,8.51400042 77.4154284,8.43 C77.6554296,8.23799904 77.8294279,8.0220012 77.9374284,7.782 C78.0454289,7.5419988 78.0154292,7.29000132 77.8474284,7.026 C77.775428,6.91799946 77.6704291,6.85200012 77.5324284,6.828 C77.3944277,6.80399988 77.2444292,6.80999982 77.0824284,6.846 C76.9204276,6.88200018 76.7524293,6.94199958 76.5784284,7.026 C76.4044275,7.11000042 76.257429,7.2119994 76.1374284,7.332 C75.9934277,7.46400066 75.8494291,7.6199991 75.7054284,7.8 C75.5614277,7.9800009 75.4414289,8.1599991 75.3454284,8.34 C75.2494279,8.5200009 75.1834286,8.68199928 75.1474284,8.826 C75.1114282,8.97000072 75.1234281,9.0719997 75.1834284,9.132 Z M79.6474284,11.346 C79.8154292,11.2619996 79.9744277,11.2649995 80.1244284,11.355 C80.2744292,11.4450005 80.3644283,11.5829991 80.3944284,11.769 C80.4244286,11.9550009 80.3614292,12.1679988 80.2054284,12.408 C80.0494276,12.6480012 79.7494306,12.8819989 79.3054284,13.11 C78.825426,13.3620013 78.321431,13.5209997 77.7934284,13.587 C77.2654258,13.6530003 76.746431,13.6470004 76.2364284,13.569 C75.7264259,13.4909996 75.2374307,13.350001 74.7694284,13.146 C74.3014261,12.941999 73.8844302,12.6900015 73.5184284,12.39 C73.1524266,12.0899985 72.8494296,11.7510019 72.6094284,11.373 C72.3694272,10.9949981 72.2254286,10.602002 72.1774284,10.194 C72.105428,9.60599706 72.1684274,9.04800264 72.3664284,8.52 C72.5644294,7.99199736 72.8644264,7.51200216 73.2664284,7.08 C73.6684304,6.64799784 74.1634255,6.2820015 74.7514284,5.982 C75.3394313,5.6819985 75.9874249,5.46600066 76.6954284,5.334 C77.1274306,5.26199964 77.580426,5.26499961 78.0544284,5.343 C78.5284308,5.42100039 78.9574265,5.56499895 79.3414284,5.775 C79.7254303,5.98500105 80.0404272,6.24599844 80.2864284,6.558 C80.5324296,6.87000156 80.6374286,7.22399802 80.6014284,7.62 C80.517428,8.06400222 80.2954302,8.48399802 79.9354284,8.88 C79.7794276,9.04800084 79.5874295,9.22499907 79.3594284,9.411 C79.1314273,9.59700093 78.8524301,9.77699913 78.5224284,9.951 C78.1924268,10.1250009 77.8084306,10.2899992 77.3704284,10.446 C76.9324262,10.6020008 76.4254313,10.7399994 75.8494284,10.86 C75.8974286,11.0760011 76.0564271,11.2529993 76.3264284,11.391 C76.5964297,11.5290007 76.9204265,11.6189998 77.2984284,11.661 C77.6764303,11.7030002 78.0754263,11.7000002 78.4954284,11.652 C78.9154305,11.6039998 79.2994267,11.5020008 79.6474284,11.346 Z M83.064857,6.522 C83.0408568,6.3419991 83.124856,6.1920006 83.316857,6.072 C83.5088579,5.9519994 83.7428556,5.86500027 84.0188569,5.811 C84.2948583,5.75699973 84.5828554,5.74199988 84.882857,5.766 C85.1828585,5.79000012 85.4348559,5.86799934 85.638857,6 C85.7948577,6.09600048 85.9058566,6.19499949 85.971857,6.297 C86.0378573,6.39900051 86.0828568,6.49199958 86.106857,6.576 C86.1308571,6.66000042 86.1458569,6.72899973 86.151857,6.783 C86.157857,6.83700027 86.1848567,6.86999994 86.2328569,6.882 C86.2928572,6.89400006 86.3948562,6.8100009 86.5388569,6.63 C86.6828577,6.4499991 86.8958555,6.26700093 87.177857,6.081 C87.4598584,5.89499907 87.8288547,5.7420006 88.284857,5.622 C88.7408592,5.5019994 89.3228534,5.50799934 90.030857,5.64 C90.3668586,5.7000003 90.5948564,5.80499925 90.7148569,5.955 C90.8348576,6.10500075 90.8798571,6.26699913 90.849857,6.441 C90.8198568,6.61500087 90.7388576,6.77699925 90.606857,6.927 C90.4748563,7.07700075 90.3308577,7.1819997 90.174857,7.242 C89.6828545,7.4220009 89.2568588,7.64399868 88.896857,7.908 C88.5368552,8.17200132 88.248858,8.50499799 88.032857,8.907 C87.8168559,9.30900201 87.6788572,9.80399706 87.618857,10.392 C87.5588566,10.9800029 87.5888564,11.6939958 87.7088569,12.534 C87.7328571,12.7140009 87.6908575,12.8699993 87.582857,13.002 C87.4748564,13.1340007 87.3308579,13.2419996 87.150857,13.326 C86.9708561,13.4100004 86.7638581,13.4669999 86.529857,13.497 C86.2958558,13.5270001 86.070858,13.5240002 85.8548569,13.488 C85.6388559,13.4519998 85.4408579,13.3830005 85.260857,13.281 C85.0808561,13.1789995 84.9488574,13.0380009 84.864857,12.858 C84.672856,12.4379979 84.4838579,11.9730026 84.2978569,11.463 C84.111856,10.9529975 83.9378578,10.4220028 83.775857,9.87 C83.6138561,9.31799724 83.4728576,8.75700285 83.352857,8.187 C83.2328563,7.61699715 83.1368573,7.0620027 83.064857,6.522 Z M98.1977141,0.168 C98.3417148,-0.04800108 98.5697125,-0.21899937 98.8817141,-0.345 C99.1937156,-0.47100063 99.5057125,-0.53999994 99.8177141,-0.552 C100.129716,-0.56400006 100.399713,-0.51300057 100.627714,-0.399 C100.855715,-0.28499943 100.963714,-0.09600132 100.951714,0.168 C100.903714,0.75600294 100.876714,1.39499655 100.870714,2.085 C100.864714,2.77500345 100.867714,3.46499655 100.879714,4.155 C100.891714,4.84500345 100.912714,5.51399676 100.942714,6.162 C100.972714,6.81000324 101.005714,7.38299751 101.041714,7.881 C101.077714,8.37900249 101.119714,8.78399844 101.167714,9.096 C101.215714,9.40800156 101.263714,9.57599988 101.311714,9.6 C101.479715,9.70800054 101.629713,9.63900123 101.761714,9.393 C101.893715,9.14699877 102.019713,8.84100183 102.139714,8.475 C102.259715,8.10899817 102.382713,7.73700189 102.508714,7.359 C102.634715,6.98099811 102.775713,6.7020009 102.931714,6.522 C103.063715,6.37799928 103.273713,6.26100045 103.561714,6.171 C103.849715,6.08099955 104.146713,6.03899997 104.452714,6.045 C104.758716,6.05100003 105.037713,6.11699937 105.289714,6.243 C105.541715,6.36900063 105.691714,6.57599856 105.739714,6.864 C105.787714,7.17600156 105.817714,7.45799874 105.829714,7.71 C105.841714,7.96200126 105.850714,8.2079988 105.856714,8.448 C105.862714,8.6880012 105.874714,8.93099877 105.892714,9.177 C105.910714,9.42300123 105.952714,9.69899847 106.018714,10.005 C106.084714,10.3110015 106.186713,10.6589981 106.324714,11.049 C106.462715,11.439002 106.651713,11.8859975 106.891714,12.39 C106.939714,12.5100006 106.933714,12.6449993 106.873714,12.795 C106.813714,12.9450008 106.711715,13.0889993 106.567714,13.227 C106.423713,13.3650007 106.243715,13.4789996 106.027714,13.569 C105.811713,13.6590005 105.571715,13.704 105.307714,13.704 C105.031713,13.704 104.770715,13.5900011 104.524714,13.362 C104.278713,13.1339989 104.056715,12.8850013 103.858714,12.615 C103.660713,12.3449987 103.501715,12.1020011 103.381714,11.886 C103.261713,11.6699989 103.195714,11.5739999 103.183714,11.598 C103.135714,11.7060005 103.033715,11.8799988 102.877714,12.12 C102.721713,12.3600012 102.526715,12.5939989 102.292714,12.822 C102.058713,13.0500011 101.794716,13.2389992 101.500714,13.389 C101.206713,13.5390007 100.897716,13.5840003 100.573714,13.524 C100.249712,13.4639997 99.9257157,13.2600017 99.6017141,12.912 C99.2777124,12.5639983 98.9657156,12.0060038 98.6657141,11.238 C98.5577135,10.9499986 98.4617145,10.4880032 98.3777141,9.852 C98.2937136,9.21599682 98.2217143,8.50500393 98.1617141,7.719 C98.1017138,6.93299607 98.0567142,6.11700423 98.0267141,5.271 C97.9967139,4.42499577 97.9817141,3.6420036 97.9817141,2.922 C97.9817141,2.2019964 97.9997139,1.59000252 98.0357141,1.086 C98.0717142,0.58199748 98.1257137,0.27600054 98.1977141,0.168 Z M111.587143,9.132 C111.635143,9.1920003 111.761142,9.20400018 111.965143,9.168 C112.169144,9.13199982 112.388141,9.07200042 112.622143,8.988 C112.856144,8.90399958 113.087141,8.81100051 113.315143,8.709 C113.543144,8.60699949 113.711142,8.51400042 113.819143,8.43 C114.059144,8.23799904 114.233142,8.0220012 114.341143,7.782 C114.449143,7.5419988 114.419143,7.29000132 114.251143,7.026 C114.179142,6.91799946 114.074143,6.85200012 113.936143,6.828 C113.798142,6.80399988 113.648143,6.80999982 113.486143,6.846 C113.324142,6.88200018 113.156143,6.94199958 112.982143,7.026 C112.808142,7.11000042 112.661143,7.2119994 112.541143,7.332 C112.397142,7.46400066 112.253143,7.6199991 112.109143,7.8 C111.965142,7.9800009 111.845143,8.1599991 111.749143,8.34 C111.653142,8.5200009 111.587143,8.68199928 111.551143,8.826 C111.515142,8.97000072 111.527142,9.0719997 111.587143,9.132 Z M116.051143,11.346 C116.219143,11.2619996 116.378142,11.2649995 116.528143,11.355 C116.678143,11.4450005 116.768142,11.5829991 116.798143,11.769 C116.828143,11.9550009 116.765143,12.1679988 116.609143,12.408 C116.453142,12.6480012 116.153145,12.8819989 115.709143,13.11 C115.22914,13.3620013 114.725145,13.5209997 114.197143,13.587 C113.66914,13.6530003 113.150145,13.6470004 112.640143,13.569 C112.13014,13.4909996 111.641145,13.350001 111.173143,13.146 C110.70514,12.941999 110.288144,12.6900015 109.922143,12.39 C109.556141,12.0899985 109.253144,11.7510019 109.013143,11.373 C108.773141,10.9949981 108.629143,10.602002 108.581143,10.194 C108.509142,9.60599706 108.572142,9.04800264 108.770143,8.52 C108.968144,7.99199736 109.268141,7.51200216 109.670143,7.08 C110.072145,6.64799784 110.56714,6.2820015 111.155143,5.982 C111.743146,5.6819985 112.391139,5.46600066 113.099143,5.334 C113.531145,5.26199964 113.98414,5.26499961 114.458143,5.343 C114.932145,5.42100039 115.361141,5.56499895 115.745143,5.775 C116.129145,5.98500105 116.444141,6.24599844 116.690143,6.558 C116.936144,6.87000156 117.041143,7.22399802 117.005143,7.62 C116.921142,8.06400222 116.699144,8.48399802 116.339143,8.88 C116.183142,9.04800084 115.991144,9.22499907 115.763143,9.411 C115.535141,9.59700093 115.256144,9.77699913 114.926143,9.951 C114.596141,10.1250009 114.212145,10.2899992 113.774143,10.446 C113.33614,10.6020008 112.829145,10.7399994 112.253143,10.86 C112.301143,11.0760011 112.460141,11.2529993 112.730143,11.391 C113.000144,11.5290007 113.324141,11.6189998 113.702143,11.661 C114.080144,11.7030002 114.47914,11.7000002 114.899143,11.652 C115.319145,11.6039998 115.703141,11.5020008 116.051143,11.346 Z M119.468571,6.522 C119.444571,6.3419991 119.52857,6.1920006 119.720571,6.072 C119.912572,5.9519994 120.14657,5.86500027 120.422571,5.811 C120.698573,5.75699973 120.98657,5.74199988 121.286571,5.766 C121.586573,5.79000012 121.83857,5.86799934 122.042571,6 C122.198572,6.09600048 122.309571,6.19499949 122.375571,6.297 C122.441571,6.39900051 122.486571,6.49199958 122.510571,6.576 C122.534571,6.66000042 122.549571,6.72899973 122.555571,6.783 C122.561571,6.83700027 122.588571,6.86999994 122.636571,6.882 C122.696571,6.89400006 122.79857,6.8100009 122.942571,6.63 C123.086572,6.4499991 123.29957,6.26700093 123.581571,6.081 C123.863573,5.89499907 124.232569,5.7420006 124.688571,5.622 C125.144573,5.5019994 125.726568,5.50799934 126.434571,5.64 C126.770573,5.7000003 126.998571,5.80499925 127.118571,5.955 C127.238572,6.10500075 127.283571,6.26699913 127.253571,6.441 C127.223571,6.61500087 127.142572,6.77699925 127.010571,6.927 C126.87857,7.07700075 126.734572,7.1819997 126.578571,7.242 C126.086569,7.4220009 125.660573,7.64399868 125.300571,7.908 C124.940569,8.17200132 124.652572,8.50499799 124.436571,8.907 C124.22057,9.30900201 124.082571,9.80399706 124.022571,10.392 C123.962571,10.9800029 123.992571,11.6939958 124.112571,12.534 C124.136571,12.7140009 124.094572,12.8699993 123.986571,13.002 C123.878571,13.1340007 123.734572,13.2419996 123.554571,13.326 C123.37457,13.4100004 123.167572,13.4669999 122.933571,13.497 C122.69957,13.5270001 122.474572,13.5240002 122.258571,13.488 C122.04257,13.4519998 121.844572,13.3830005 121.664571,13.281 C121.48457,13.1789995 121.352572,13.0380009 121.268571,12.858 C121.07657,12.4379979 120.887572,11.9730026 120.701571,11.463 C120.51557,10.9529975 120.341572,10.4220028 120.179571,9.87 C120.01757,9.31799724 119.876572,8.75700285 119.756571,8.187 C119.636571,7.61699715 119.540572,7.0620027 119.468571,6.522 Z M131.868,9.132 C131.916,9.1920003 132.041999,9.20400018 132.246,9.168 C132.450001,9.13199982 132.668999,9.07200042 132.903,8.988 C133.137001,8.90399958 133.367999,8.81100051 133.596,8.709 C133.824001,8.60699949 133.991999,8.51400042 134.1,8.43 C134.340001,8.23799904 134.513999,8.0220012 134.622,7.782 C134.73,7.5419988 134.700001,7.29000132 134.532,7.026 C134.459999,6.91799946 134.355,6.85200012 134.217,6.828 C134.078999,6.80399988 133.929001,6.80999982 133.767,6.846 C133.604999,6.88200018 133.437001,6.94199958 133.263,7.026 C133.088999,7.11000042 132.942,7.2119994 132.822,7.332 C132.677999,7.46400066 132.534,7.6199991 132.39,7.8 C132.245999,7.9800009 132.126,8.1599991 132.03,8.34 C131.933999,8.5200009 131.868,8.68199928 131.832,8.826 C131.796,8.97000072 131.807999,9.0719997 131.868,9.132 Z M136.332,11.346 C136.500001,11.2619996 136.658999,11.2649995 136.809,11.355 C136.959,11.4450005 137.049,11.5829991 137.079,11.769 C137.109,11.9550009 137.046,12.1679988 136.89,12.408 C136.733999,12.6480012 136.434002,12.8819989 135.99,13.11 C135.509997,13.3620013 135.006002,13.5209997 134.478,13.587 C133.949997,13.6530003 133.431002,13.6470004 132.921,13.569 C132.410997,13.4909996 131.922002,13.350001 131.454,13.146 C130.985997,12.941999 130.569002,12.6900015 130.203,12.39 C129.836998,12.0899985 129.534001,11.7510019 129.294,11.373 C129.053999,10.9949981 128.91,10.602002 128.862,10.194 C128.789999,9.60599706 128.852999,9.04800264 129.051,8.52 C129.249001,7.99199736 129.548998,7.51200216 129.951,7.08 C130.353002,6.64799784 130.847997,6.2820015 131.436,5.982 C132.024003,5.6819985 132.671996,5.46600066 133.38,5.334 C133.812002,5.26199964 134.264997,5.26499961 134.739,5.343 C135.213002,5.42100039 135.641998,5.56499895 136.026,5.775 C136.410002,5.98500105 136.724998,6.24599844 136.971,6.558 C137.217001,6.87000156 137.322,7.22399802 137.286,7.62 C137.201999,8.06400222 136.980001,8.48399802 136.62,8.88 C136.463999,9.04800084 136.272001,9.22499907 136.044,9.411 C135.815999,9.59700093 135.537001,9.77699913 135.207,9.951 C134.876998,10.1250009 134.493002,10.2899992 134.055,10.446 C133.616998,10.6020008 133.110003,10.7399994 132.534,10.86 C132.582,11.0760011 132.740998,11.2529993 133.011,11.391 C133.281001,11.5290007 133.604998,11.6189998 133.983,11.661 C134.361002,11.7030002 134.759998,11.7000002 135.18,11.652 C135.600002,11.6039998 135.983998,11.5020008 136.332,11.346 Z M140.235428,2.31 C140.235428,2.16599928 140.310428,2.06100033 140.460428,1.995 C140.610429,1.92899967 140.799427,1.89300003 141.027428,1.887 C141.255429,1.88099997 141.498427,1.90199976 141.756428,1.95 C142.01443,1.99800024 142.254427,2.06399958 142.476428,2.148 C142.698429,2.23200042 142.881428,2.32799946 143.025428,2.436 C143.169429,2.54400054 143.241428,2.6579994 143.241428,2.778 C143.217428,3.46200342 143.199428,4.02899775 143.187428,4.479 C143.175428,4.92900225 143.160428,5.32799826 143.142428,5.676 C143.124428,6.02400174 143.106428,6.34199856 143.088428,6.63 C143.070428,6.91800144 143.046428,7.23599826 143.016428,7.584 C142.986428,7.93200174 142.947428,8.34299763 142.899428,8.817 C142.851428,9.29100237 142.797429,9.88199646 142.737428,10.59 C142.713428,10.794001 142.596429,10.9289997 142.386428,10.995 C142.176427,11.0610003 141.94543,11.0760002 141.693428,11.04 C141.441427,11.0039998 141.210429,10.9200007 141.000428,10.788 C140.790427,10.6559993 140.673428,10.494001 140.649428,10.302 C140.589428,9.77399736 140.538428,9.30900201 140.496428,8.907 C140.454428,8.50499799 140.415428,8.12700177 140.379428,7.773 C140.343428,7.41899823 140.316428,7.06800174 140.298428,6.72 C140.280428,6.37199826 140.265428,5.9880021 140.253428,5.568 C140.241428,5.1479979 140.232428,4.67700261 140.226428,4.155 C140.220428,3.63299739 140.223428,3.01800354 140.235428,2.31 Z M139.677428,12.894 C139.773429,12.6539988 139.935427,12.4710006 140.163428,12.345 C140.391429,12.2189994 140.646427,12.1380002 140.928428,12.102 C141.21043,12.0659998 141.504427,12.0719998 141.810428,12.12 C142.11643,12.1680002 142.395427,12.2459995 142.647428,12.354 C142.89943,12.4620005 143.109427,12.5999992 143.277428,12.768 C143.445429,12.9360008 143.535428,13.121999 143.547428,13.326 C143.571428,13.6140014 143.529429,13.8659989 143.421428,14.082 C143.313428,14.2980011 143.166429,14.4719993 142.980428,14.604 C142.794427,14.7360007 142.584429,14.8349997 142.350428,14.901 C142.116427,14.9670003 141.885429,15 141.657428,15 C141.261426,15 140.92243,14.9160008 140.640428,14.748 C140.358427,14.5799992 140.136429,14.3850011 139.974428,14.163 C139.812427,13.9409989 139.707428,13.7100012 139.659428,13.47 C139.611428,13.2299988 139.617428,13.0380007 139.677428,12.894 Z" id="Psst,overhere!"></path>
                <g id="right-down-arrow" transform="translate(191.000000, 58.000000) scale(1, -1) translate(-191.000000, -58.000000) translate(156.000000, 5.000000)">
                    <path d="M67,59.5891126 C66.8138019,45.4305914 64.9518212,30.5268849 61.2278597,16.7409563 C60.2965651,13.760215 55.8281155,14.877993 56.5726036,18.0450307 C59.5517728,30.3405885 61.4137535,42.8224428 61.9723477,55.4908977 C62.5312462,68.1587438 62.71714,85.1120144 53.5934344,94.9854156 C48.9384825,100.015417 40.5595691,99.8291202 34.2291388,100.202017 C24.9189308,100.760906 15.4231332,100.57461 6.1132295,100.015721 C-3.19667424,99.6431283 0.154891104,104.673129 11.3267756,105.232018 C24.9189308,105.790907 46.1455114,108.585657 56.9449997,98.3390539 C66.8138019,89.3965256 67,71.8846705 67,59.5891126 Z" id="Path"></path>
                    <path d="M63.3994997,1.19454649 C62.0496121,-0.64718915 59.7355191,-0.278842021 58.7713137,1.74706719 C56.0718535,8.00896838 51.8293496,13.7183489 49.1292593,19.9802501 C48.3578949,21.8219857 51.2505112,22.7428535 52.2147167,21.269465 C55.3001741,16.4809523 58.1927904,11.6924397 61.2782478,6.90392699 C62.0496121,8.37731551 62.8209765,9.85070402 63.5926559,11.3240925 C64.5568614,13.7183489 64.7497025,16.1126052 65.906749,18.322688 C66.6777982,19.9802501 68.9922064,19.2435558 69.5707296,17.9543409 C71.4988254,12.7974811 66.4849571,5.43053848 63.3994997,1.19454649 Z" id="Path"></path>
                </g>
            </g>
        </g>
    </g>
</svg>