<svg xmlns="http://www.w3.org/2000/svg" viewBox="0 0 264.81 264.74"><defs><clipPath id="clip-path" transform="translate(-698 -426.2)"><path fill="none" d="M702 431.01h256v255H702z"/></clipPath><clipPath id="clip-path-2" transform="translate(-698 -426.2)"><path fill="none" d="M723.44 558.24c0 59.28 47.93 107.33 107.06 107.33s107.06-48.05 107.06-107.33-47.93-107.32-107.06-107.32S723.44 499 723.44 558.24" clip-rule="evenodd"/></clipPath><clipPath id="clip-path-3" transform="translate(-698 -426.2)"><path fill="none" d="M703 431.01h255v255H703z"/></clipPath><clipPath id="clip-path-4" transform="translate(-698 -426.2)"><path fill="none" d="M703 558.58A127.41 127.41 0 1 0 830.4 431.2 127.39 127.39 0 0 0 703 558.58" clip-rule="evenodd"/></clipPath><clipPath id="clip-path-6" transform="translate(-698 -426.2)"><path fill="none" d="M841.07 527.68H822.34l-25.57 40.68H867.31l-26.24-40.68z" clip-rule="evenodd"/></clipPath><clipPath id="clip-path-7" transform="translate(-698 -426.2)"><path fill="none" d="M0 0h1432v900H0z"/></clipPath><clipPath id="clip-path-8" transform="translate(-698 -426.2)"><path fill="none" d="M823.3 533.57l-20.07 32.12h5.69l16.39-32.12h-2.01z" clip-rule="evenodd"/></clipPath><clipPath id="clip-path-10" transform="translate(-698 -426.2)"><path fill="none" d="M867.22 568.88h-10.24l-18-35.49h-19.61l3.19-5.1h18.61l26.05 40.59z" clip-rule="evenodd"/></clipPath><clipPath id="clip-path-12" transform="translate(-698 -426.2)"><path fill="none" d="M840.4 529.68l24.26 37.81h-65l23.64-37.81zm.77-2.79h-18.61a1.41 1.41 0 0 0-1.19.66L796 568.14a1.4 1.4 0 0 0 1.2 2.13h70a1.39 1.39 0 0 0 1.18-2.14l-26-40.59a1.41 1.41 0 0 0-1.21-.65z"/></clipPath><clipPath id="clip-path-14" transform="translate(-698 -426.2)"><path fill="none" d="M841.07 609.05H822.34l-25.57-40.69H867.31l-26.24 40.69z" clip-rule="evenodd"/></clipPath><clipPath id="clip-path-16" transform="translate(-698 -426.2)"><path fill="none" d="M840.16 544.89a8.76 8.76 0 0 0-7.94-5h-.07a8.76 8.76 0 0 0-8 5.1l-1.89 4.15a47 47 0 0 0 0 39l1.89 4.15a8.76 8.76 0 0 0 8 5.1h.07a8.76 8.76 0 0 0 7.94-5l1.74-3.7a47.12 47.12 0 0 0 0-40z" clip-rule="evenodd"/></clipPath><clipPath id="clip-path-18" transform="translate(-698 -426.2)"><path fill="none" d="M823.35 603.88l-20.33-32.44h5.76l16.6 32.44h-2.03z" clip-rule="evenodd"/></clipPath><clipPath id="clip-path-20" transform="translate(-698 -426.2)"><path fill="none" d="M867.49 568.61h-10.27l-18.06 35.55h-19.68l3.2 5.11h18.67l26.14-40.66z" clip-rule="evenodd"/></clipPath><clipPath id="clip-path-22" transform="translate(-698 -426.2)"><path fill="none" d="M864.93 570h-65.19l23.73 37.88h17.11zm-22.39 40a1.43 1.43 0 0 1-1.19.65h-18.67a1.4 1.4 0 0 1-1.19-.66L796 569.34a1.4 1.4 0 0 1 1.2-2.13h70.28a1.39 1.39 0 0 1 1.19 2.14z"/></clipPath><clipPath id="clip-path-24" transform="translate(-698 -426.2)"><path fill="none" d="M845.63 529.78H818.4l-1.76-12.3h30.75l-1.76 12.3z" clip-rule="evenodd"/></clipPath><clipPath id="clip-path-26" transform="translate(-698 -426.2)"><path fill="none" d="M847.04 519.97l.35-2.49h-30.75l.36 2.49h30.04z" clip-rule="evenodd"/></clipPath><clipPath id="clip-path-28" transform="translate(-698 -426.2)"><path fill="none" d="M845.77 518.87h-27.5l1.35 9.51h24.79zM847 530a1.4 1.4 0 0 1-1.4 1.2h-27.2a1.39 1.39 0 0 1-1.4-1.2l-1.76-12.3a1.4 1.4 0 0 1 1.39-1.59h30.75a1.4 1.4 0 0 1 1.4 1.59z"/></clipPath><clipPath id="clip-path-30" transform="translate(-698 -426.2)"><path fill="none" d="M835.3 614.61h-6.57V525a3.29 3.29 0 0 1 6.57 0z" clip-rule="evenodd"/></clipPath><clipPath id="clip-path-32" transform="translate(-698 -426.2)"><path fill="none" d="M833.9 525a1.88 1.88 0 0 0-3.76 0v88.24h3.76zm2.81 89.63a1.41 1.41 0 0 1-1.41 1.4h-6.57a1.41 1.41 0 0 1-1.41-1.4V525a4.7 4.7 0 0 1 9.39 0z"/></clipPath><clipPath id="clip-path-34" transform="translate(-698 -426.2)"><path fill="none" d="M793 479.04h76.77v158.95H793z"/></clipPath><clipPath id="clip-path-35" transform="translate(-698 -426.2)"><path fill="none" d="M0 6.99h1432v900H0z"/></clipPath><clipPath id="clip-path-36" transform="translate(-698 -426.2)"><path fill="none" d="M793 478.99h77v160h-77z"/></clipPath><clipPath id="clip-path-37" transform="translate(-698 -426.2)"><path fill="none" d="M798.31 554.72h67.42v5.09h-67.42z"/></clipPath><clipPath id="clip-path-39" transform="translate(-698 -426.2)"><path fill="none" d="M799.71 558.42v-2.3h64.61v2.3zm-1.4 2.79h67.42a1.41 1.41 0 0 0 1.41-1.4v-5.09a1.4 1.4 0 0 0-1.41-1.39h-67.42a1.4 1.4 0 0 0-1.41 1.39v5.09a1.41 1.41 0 0 0 1.41 1.4z"/></clipPath><clipPath id="clip-path-41" transform="translate(-698 -426.2)"><path fill="none" d="M798.31 591.37h67.42v5.09h-67.42z"/></clipPath><clipPath id="clip-path-43" transform="translate(-698 -426.2)"><path fill="none" d="M799.71 592.77h64.61v2.3h-64.61zm-1.4 5.09h67.42a1.41 1.41 0 0 0 1.41-1.4v-5.09a1.4 1.4 0 0 0-1.41-1.39h-67.42a1.4 1.4 0 0 0-1.41 1.39v5.09a1.41 1.41 0 0 0 1.41 1.4z"/></clipPath><clipPath id="clip-path-45" transform="translate(-698 -426.2)"><path fill="none" d="M832.17 480.43a20.75 20.75 0 1 0 21 20.75 20.85 20.85 0 0 0-21-20.75m0 35.42A14.67 14.67 0 1 1 847 501.18a14.74 14.74 0 0 1-14.81 14.67" clip-rule="evenodd"/></clipPath><clipPath id="clip-path-47" transform="translate(-698 -426.2)"><path fill="none" d="M832.21 518c-8.13 0-15.36-4.46-20-10.39a21 21 0 0 0 39.78.18c-4.61 5.83-11.77 10.21-19.82 10.21" clip-rule="evenodd"/></clipPath><clipPath id="clip-path-49" transform="translate(-698 -426.2)"><path fill="none" d="M832.17 481.83a19.35 19.35 0 1 0 19.54 19.35 19.44 19.44 0 0 0-19.54-19.35zm0-2.79a22.14 22.14 0 1 1-22.36 22.14A22.25 22.25 0 0 1 832.17 479zm0 35.41a13.28 13.28 0 1 0-13.41-13.27 13.34 13.34 0 0 0 13.41 13.27zm0 2.79a16.07 16.07 0 1 1 16.22-16.06 16.15 16.15 0 0 1-16.22 16.06z"/></clipPath><clipPath id="clip-path-51" transform="translate(-698 -426.2)"><path fill="none" d="M817.28 531.64H821v-2h-3.76a21.35 21.35 0 0 0-21.46 21.25v49.5a21.36 21.36 0 0 0 21.46 21.26h6.25v-2.05h-6.25a17.34 17.34 0 0 1-17.42-17.26v-53.4a17.33 17.33 0 0 1 17.42-17.25" clip-rule="evenodd"/></clipPath><clipPath id="clip-path-53" transform="translate(-698 -426.2)"><path fill="none" d="M797.28 600.34v-49.5a21.36 21.36 0 0 1 21.47-21.25h-1.46a21.36 21.36 0 0 0-21.47 21.25v49.5a21.37 21.37 0 0 0 21.47 21.26h1.46a21.37 21.37 0 0 1-21.47-21.26" clip-rule="evenodd"/></clipPath><clipPath id="clip-path-55" transform="translate(-698 -426.2)"><path fill="none" d="M821 529.59v2h-3.76a17.33 17.33 0 0 0-17.42 17.25v53.4a17.34 17.34 0 0 0 17.42 17.26h6.25v2.05h-6.25a21.36 21.36 0 0 1-21.46-21.26v-49.5a21.35 21.35 0 0 1 21.46-21.25H821m0-2.79h-3.76a24.18 24.18 0 0 0-24.28 24v49.5a24.19 24.19 0 0 0 24.28 24h6.25a2.81 2.81 0 0 0 2.82-2.79v-2.05a2.8 2.8 0 0 0-2.82-2.79h-6.25a14.55 14.55 0 0 1-14.6-14.47v-53.4a14.55 14.55 0 0 1 14.6-14.46H821a2.8 2.8 0 0 0 2.82-2.79v-2a2.8 2.8 0 0 0-2.82-2.7" clip-rule="evenodd"/></clipPath><clipPath id="clip-path-57" transform="translate(-698 -426.2)"><path fill="none" d="M839.24 623a1.4 1.4 0 0 1-1.41-1.39v-2.05a1.4 1.4 0 0 1 1.41-1.4h6.25a16 16 0 0 0 16-15.86v-53.4a16 16 0 0 0-16-15.86h-3.76a1.4 1.4 0 0 1-1.41-1.39v-2a1.41 1.41 0 0 1 1.41-1.4h3.76a22.79 22.79 0 0 1 22.87 22.65v49.5a22.79 22.79 0 0 1-22.87 22.6z" clip-rule="evenodd"/></clipPath><clipPath id="clip-path-59" transform="translate(-698 -426.2)"><path fill="none" d="M845.49 529.59A21.35 21.35 0 0 1 867 550.84v49.5a21.36 21.36 0 0 1-21.46 21.26h-6.25v-2.05h6.25a17.34 17.34 0 0 0 17.42-17.26v-53.4a17.33 17.33 0 0 0-17.42-17.25h-3.76v-2h3.76m0-2.79h-3.76a2.8 2.8 0 0 0-2.82 2.79v2a2.8 2.8 0 0 0 2.82 2.79h3.76a14.55 14.55 0 0 1 14.6 14.46v53.4a14.55 14.55 0 0 1-14.6 14.47h-6.25a2.8 2.8 0 0 0-2.82 2.79v2.05a2.81 2.81 0 0 0 2.82 2.79h6.25a24.19 24.19 0 0 0 24.28-24v-49.5a24.18 24.18 0 0 0-24.28-24" clip-rule="evenodd"/></clipPath><clipPath id="clip-path-61" transform="translate(-698 -426.2)"><path fill="none" d="M851.93 616.26h-39.82l-2.57 14.17h44.96l-2.57-14.17z" clip-rule="evenodd"/></clipPath><clipPath id="clip-path-63" transform="translate(-698 -426.2)"><path fill="none" d="M812.11 616.26l-.97 5.34h41.76l-.97-5.34h-39.82z" clip-rule="evenodd"/></clipPath><clipPath id="clip-path-65" transform="translate(-698 -426.2)"><path fill="none" d="M852.81 629h-41.59l2.07-11.39h37.46zm.3-14.18h-42.18l-3.08 17h48.33z"/></clipPath><clipPath id="clip-path-67" transform="translate(-698 -426.2)"><path fill="none" d="M829 524.46h6.11v-9.92a3.06 3.06 0 0 0-6.11 0z" clip-rule="evenodd"/></clipPath><clipPath id="clip-path-69" transform="translate(-698 -426.2)"><path fill="none" d="M832 511.51a3 3 0 0 0-3.06 3v3.93a3.06 3.06 0 0 1 6.11 0v-3.93a3 3 0 0 0-3.05-3" clip-rule="evenodd"/></clipPath><clipPath id="clip-path-71" transform="translate(-698 -426.2)"><path fill="none" d="M830.37 514.54a1.65 1.65 0 0 1 3.29 0v8.53h-3.29zm-2.82 11.32h8.93v-11.32a4.47 4.47 0 0 0-8.93 0z"/></clipPath><clipPath id="clip-path-73" transform="translate(-698 -426.2)"><path fill="none" d="M829.64 622a2.71 2.71 0 1 0 2.71-2.68 2.7 2.7 0 0 0-2.71 2.68" clip-rule="evenodd"/></clipPath><clipPath id="clip-path-75" transform="translate(-698 -426.2)"><path fill="none" d="M817.82 622a2.71 2.71 0 1 0 2.71-2.68 2.69 2.69 0 0 0-2.71 2.68" clip-rule="evenodd"/></clipPath><clipPath id="clip-path-77" transform="translate(-698 -426.2)"><path fill="none" d="M846.88 622a2.71 2.71 0 1 1-2.71-2.68 2.69 2.69 0 0 1 2.71 2.68" clip-rule="evenodd"/></clipPath><clipPath id="clip-path-79" transform="translate(-698 -426.2)"><path fill="none" d="M805.79 630.41h53.3v6.18h-53.3z"/></clipPath><clipPath id="clip-path-81" transform="translate(-698 -426.2)"><path fill="none" d="M807.2 631.81h50.48v3.39H807.2zm-1.41 6.19h53.3a1.41 1.41 0 0 0 1.41-1.4v-6.18a1.4 1.4 0 0 0-1.41-1.39h-53.3a1.4 1.4 0 0 0-1.41 1.39v6.18a1.41 1.41 0 0 0 1.41 1.4z"/></clipPath><clipPath id="clip-path-83" transform="translate(-698 -426.2)"><path fill="none" d="M865.3 630.41a6.21 6.21 0 1 0-6.21 6.15 6.18 6.18 0 0 0 6.21-6.15" clip-rule="evenodd"/></clipPath><clipPath id="clip-path-85" transform="translate(-698 -426.2)"><path fill="none" d="M863.89 630.41a4.8 4.8 0 1 1-4.8-4.75 4.77 4.77 0 0 1 4.8 4.75zm2.82 0a7.62 7.62 0 1 0-7.62 7.54 7.58 7.58 0 0 0 7.62-7.54z"/></clipPath><clipPath id="clip-path-87" transform="translate(-698 -426.2)"><path fill="none" d="M798.74 630.41a6.21 6.21 0 1 1 6.2 6.15 6.17 6.17 0 0 1-6.2-6.15" clip-rule="evenodd"/></clipPath><clipPath id="clip-path-89" transform="translate(-698 -426.2)"><path fill="none" d="M800.15 630.41a4.8 4.8 0 1 0 4.79-4.75 4.76 4.76 0 0 0-4.79 4.75zm-2.82 0a7.62 7.62 0 1 1 7.61 7.54 7.58 7.58 0 0 1-7.61-7.54z"/></clipPath><clipPath id="clip-path-91" transform="translate(-698 -426.2)"><path fill="none" d="M802.72 630.41a2.22 2.22 0 1 1 2.22 2.2 2.22 2.22 0 0 1-2.22-2.2" clip-rule="evenodd"/></clipPath><clipPath id="clip-path-93" transform="translate(-698 -426.2)"><path fill="none" d="M861.31 630.41a2.22 2.22 0 1 0-2.22 2.2 2.21 2.21 0 0 0 2.22-2.2" clip-rule="evenodd"/></clipPath></defs><g id="Layer_2" data-name="Layer 2"><g id="Layer_1-2" data-name="Layer 1"><g clip-path="url(#clip-path)" style="clip-path:url(#clip-path)" opacity=".4"><g clip-path="url(#clip-path-2)"><g clip-path="url(#clip-path-3)"><path fill="#c1a9cd" d="M20.44 19.71h224.11v224.65H20.44z" opacity=".4"/></g></g><g clip-path="url(#clip-path-4)"><g clip-path="url(#clip-path-3)"><path fill="#c1a9cd" d="M0 0h264.81v264.74H0z" opacity=".4"/></g></g></g><g clip-path="url(#clip-path-6)"><g clip-path="url(#clip-path-7)"><path fill="#fe9d09" d="M93.77 96.47h80.54v50.69H93.77z"/></g></g><g clip-path="url(#clip-path-8)"><g clip-path="url(#clip-path-7)"><path fill="#ffebe0" d="M100.23 102.36h32.08v42.12h-32.08z"/></g></g><g clip-path="url(#clip-path-10)"><g clip-path="url(#clip-path-7)"><path fill="#8f4742" d="M116.37 97.08h57.84v50.59h-57.84z"/></g></g><g clip-path="url(#clip-path-12)"><g clip-path="url(#clip-path-7)"><path fill="#611d34" d="M92.77 95.69h82.85v53.38H92.77z"/></g></g><g clip-path="url(#clip-path-14)"><g clip-path="url(#clip-path-7)"><path fill="#fe9d09" d="M93.77 137.16h80.54v50.69H93.77z"/></g></g><g clip-path="url(#clip-path-16)"><g clip-path="url(#clip-path-7)"><path fill="#ffd843" d="M115.05 108.67h38.31v67.46h-38.31z"/></g></g><g clip-path="url(#clip-path-18)"><g clip-path="url(#clip-path-7)"><path fill="#ffebe0" d="M100.02 140.23h32.36v42.45h-32.36z"/></g></g><g clip-path="url(#clip-path-20)"><g clip-path="url(#clip-path-7)"><path fill="#8f4742" d="M116.48 137.4h58.01v50.67h-58.01z"/></g></g><g clip-path="url(#clip-path-22)"><g clip-path="url(#clip-path-7)"><path fill="#611d34" d="M92.8 136.01h83.1v53.46H92.8z"/></g></g><g clip-path="url(#clip-path-24)"><g clip-path="url(#clip-path-7)"><path fill="#9373a3" d="M113.64 86.27h40.75v22.3h-40.75z"/></g></g><g clip-path="url(#clip-path-26)"><g clip-path="url(#clip-path-7)"><path fill="#ffebe0" d="M113.64 86.27h40.75v12.49h-40.75z"/></g></g><g clip-path="url(#clip-path-28)"><g clip-path="url(#clip-path-7)"><path fill="#611d34" d="M112.23 84.88h43.57v25.09h-43.57z"/></g></g><g clip-path="url(#clip-path-30)"><g clip-path="url(#clip-path-7)"><path fill="#9373a3" d="M125.73 90.52h16.57V193.4h-16.57z"/></g></g><g clip-path="url(#clip-path-32)"><g clip-path="url(#clip-path-7)"><path fill="#611d34" d="M124.32 89.13h19.39V194.8h-19.39z"/></g></g><g clip-path="url(#clip-path-34)"><g clip-path="url(#clip-path-35)"><g clip-path="url(#clip-path-36)" style="clip-path:url(#clip-path-36)"><g clip-path="url(#clip-path-37)"><g clip-path="url(#clip-path-36)"><path fill="#9373a3" d="M95.31 123.52h77.42v15.09H95.31z"/></g></g><g clip-path="url(#clip-path-39)"><g clip-path="url(#clip-path-36)"><path fill="#611d34" d="M93.9 122.12h80.24V140H93.9z"/></g></g><g clip-path="url(#clip-path-41)"><g clip-path="url(#clip-path-36)"><path fill="#9373a3" d="M95.31 160.17h77.42v15.09H95.31z"/></g></g><g clip-path="url(#clip-path-43)"><g clip-path="url(#clip-path-36)"><path fill="#611d34" d="M93.9 158.77h80.24v17.88H93.9z"/></g></g><g clip-path="url(#clip-path-45)"><g clip-path="url(#clip-path-36)"><path fill="#cbb3d3" d="M108.22 49.23h51.9v51.49h-51.9z"/></g></g><g clip-path="url(#clip-path-47)"><g clip-path="url(#clip-path-36)"><path fill="#611d34" d="M109.25 76.4h49.78v24.32h-49.78z"/></g></g><g clip-path="url(#clip-path-49)"><g clip-path="url(#clip-path-36)"><path fill="#611d34" d="M106.81 47.83h54.72v54.28h-54.72z"/></g></g><g clip-path="url(#clip-path-51)"><g clip-path="url(#clip-path-36)"><path fill="#9373a3" d="M92.82 98.38h37.71v102.01H92.82z"/></g></g><g clip-path="url(#clip-path-53)"><g clip-path="url(#clip-path-36)"><path fill="#ffebe0" d="M92.82 98.38h32.93v102.01H92.82z"/></g></g><g clip-path="url(#clip-path-55)"><g clip-path="url(#clip-path-36)"><path fill="#611d34" d="M90 95.59h43.35v107.59H90z"/></g></g><g clip-path="url(#clip-path-57)"><g clip-path="url(#clip-path-36)"><path fill="#9373a3" d="M134.83 96.99h40.53v104.8h-40.53z"/></g></g><g clip-path="url(#clip-path-59)"><g clip-path="url(#clip-path-36)"><path fill="#611d34" d="M133.42 95.59h43.35v107.59h-43.35z"/></g></g><g clip-path="url(#clip-path-61)"><g clip-path="url(#clip-path-36)"><path fill="#9373a3" d="M106.54 185.05h54.96v24.17h-54.96z"/></g></g><g clip-path="url(#clip-path-63)"><g clip-path="url(#clip-path-36)"><path fill="#cbb3d3" d="M108.14 185.05h51.76v15.34h-51.76z"/></g></g><g clip-path="url(#clip-path-65)"><g clip-path="url(#clip-path-36)"><path fill="#611d34" d="M104.85 183.66h58.33v26.96h-58.33z"/></g></g><g clip-path="url(#clip-path-67)"><g clip-path="url(#clip-path-36)"><path fill="#9373a3" d="M125.96 80.31h16.11v22.95h-16.11z"/></g></g><g clip-path="url(#clip-path-69)"><g clip-path="url(#clip-path-36)"><path fill="#cbb3d3" d="M125.96 80.31h16.11v16.96h-16.11z"/></g></g><g clip-path="url(#clip-path-71)"><g clip-path="url(#clip-path-36)"><path fill="#611d34" d="M124.56 78.91h18.93v25.74h-18.93z"/></g></g><g clip-path="url(#clip-path-73)"><g clip-path="url(#clip-path-36)"><path fill="#611d34" d="M126.65 188.12h15.41v15.36h-15.41z"/></g></g><g clip-path="url(#clip-path-75)"><g clip-path="url(#clip-path-36)"><path fill="#611d34" d="M114.82 188.12h15.41v15.36h-15.41z"/></g></g><g clip-path="url(#clip-path-77)"><g clip-path="url(#clip-path-36)"><path fill="#611d34" d="M138.47 188.12h15.41v15.36h-15.41z"/></g></g><g clip-path="url(#clip-path-79)"><g clip-path="url(#clip-path-36)"><path fill="#cbb3d3" d="M102.79 199.21h63.3v16.18h-63.3z"/></g></g><g clip-path="url(#clip-path-81)"><g clip-path="url(#clip-path-36)"><path fill="#611d34" d="M101.38 197.81h66.12v18.97h-66.12z"/></g></g><g clip-path="url(#clip-path-83)"><g clip-path="url(#clip-path-36)"><path fill="#cbb3d3" d="M149.89 193.06h22.41v22.29h-22.41z"/></g></g><g clip-path="url(#clip-path-85)"><g clip-path="url(#clip-path-36)"><path fill="#611d34" d="M148.48 191.67h25.23v25.08h-25.23z"/></g></g><g clip-path="url(#clip-path-87)"><g clip-path="url(#clip-path-36)"><path fill="#cbb3d3" d="M95.74 193.06h22.41v22.29H95.74z"/></g></g><g clip-path="url(#clip-path-89)"><g clip-path="url(#clip-path-36)"><path fill="#611d34" d="M94.33 191.67h25.23v25.08H94.33z"/></g></g><g clip-path="url(#clip-path-91)"><g clip-path="url(#clip-path-36)"><path fill="#611d34" d="M99.72 197.01h14.44v14.4H99.72z"/></g></g><g clip-path="url(#clip-path-93)"><g clip-path="url(#clip-path-36)"><path fill="#611d34" d="M153.87 197.01h14.44v14.4h-14.44z"/></g></g></g></g></g></g></g></svg>