<svg xmlns="http://www.w3.org/2000/svg" width="97" height="91" version="1"><path fill="#9170A2" fill-rule="evenodd" d="M75 73c0 5 3 10 9 17l-12-1C62 79 58 73 62 62l18-4c-4 5-6 10-5 15zM57 87c-11-7-14-12-11-20l14-5c-3 11 1 18 10 26l-13-1zm-12-1c-7-5-8-8-8-15l7-3c-2 7 1 12 10 19l-9-1zm-7 0c-5-2-8-4-9-6l3-7 3-1c0 6 2 10 7 14h-4zm-8 1c-4-3-5-6-6-10l5-2-1 5c1 3 3 5 7 7h-5zm-4 0c-5-2-6-4-5-8l2-1c0 4 1 6 4 9h-1zm-6 0l-4-3 1-3 2-1c-1 3 1 5 4 7h-3zm-5 1l-3-1 1-3 2-1v1c0 2 1 3 3 4h-3zm-6 1l-2-1 1-1a422 422 0 0 1 3 0l1 1-3 1zm-3-6l1-1a388 388 0 0 0 3 0l-2 1H6zm-3 7l2-2 1 1-3 1zm0-8l1 1a549 549 0 0 1-1-1zm3 3l-2 2a427 427 0 0 0 2-2zm-2-7l1 2a2 2 0 0 0 2 0l-1 1-2 1-1-2 1-2zm2-8l2 3h4a380 380 0 0 1-6 5l-1-3 1-5zm1-5c1 2 3 3 7 4l-1 1c-2 1-3 2-4 1l-3-5 1-1zm0-37c5 5 10 7 16 7l12-2-8 14c-8 2-13 1-19-8L7 28zm-1-3L3 13c4 3 8 5 15 5 6 0 14-1 25-4l-8 17c-14 4-21 3-29-6zm39 2c3 5 10 7 22 8L52 47c-11-1-14-6-15-15l5-13c0 3 1 6 3 8zm-6 37c-1-1 0-3 1-5l11-9v7c1 2 3 3 7 4l-13 5-6-2zm-7 4v-3l5-4 1 3c0 2 2 2 4 3l-6 3-4-2zm-6 4l1-3 3-2 1 2 3 2-3 1h-5zm-4 2l2-2 1 1 2 1-3 2-2-1v-1zm-1-2c-3 0-4-1-4-4l2-3 1 3 5 2-4 2zm-2 4l1-1v1l2 1-2 1v-1 1h-3l2-2zm-1-13l-3 4c-5 0-7-2-8-5l1-4c2 4 5 5 10 5zm3-5l-2 4c-6 0-9-2-11-7v-5c5 6 8 8 13 8zm1-1c-5-1-9-2-14-9v-6c5 6 8 8 14 8l4-1-4 8zm8 8l-4 3-5-1-1-4 3-4c1 3 3 5 7 6zm-1-17l7-13c1 8 4 12 15 13L39 58c-5 1-8 0-10-1v-9zm-1 10l6 2h3l-6 4c-4-1-6-3-7-7l3-5c-1 3 0 4 1 6zM14 74l1-3v-1c1 2 2 3 5 4l-2 1-4-1zm1 5l1 1-7 4 6-5zm-3-3l1-2v1l3 1-2 2c-1 0-2 0-2-2zm1 3l-1 1H9l1-2 1-1 2 2zm66-22l-18 3c-5-1-8-2-9-4s0-4 1-8l15-12c-2 9 1 15 11 21zm17-2l-14 1c-11-6-15-11-13-21l7-6a1 1 0 0 0-1-1l-7 6c-12-1-18-3-22-7v-1c-2-3-3-7-1-13a505 505 0 0 0 4-13 1 1 0 0 0-1 1l-5 11c-24 6-35 6-41-2a158 158 0 0 0-2-5v4a160 160 0 0 1 5 16 98 98 0 0 1 2 14c1 15-2 29-7 47v5h5c26-4 45-4 74 0h10l-2-1c-13-13-14-22-5-32a232 232 0 0 1 15-2v-1h-1z"/></svg>