<svg xmlns="http://www.w3.org/2000/svg" width="143" height="140" version="1"><path fill="#9170A2" fill-rule="evenodd" d="M92 112c-7-1-14-10-24-32 1-5 2-10 5-15 9 15 14 21 18 21 2 0 4-2 6-5 1 10 3 19 6 26-4 4-8 6-11 5zM66 79c-14-3-22-14-34-50 9 7 17 11 26 13 1 17 3 25 6 26h2c1 0 3 0 4-2l-4 13zm7-35c-4 11-4 13-3 14l1 1c1 0 3-1 5-4l-4 8c-3 3-5 4-7 3-3-1-4-8-5-24l13 2zm4-29l4 9c1 9 0 13-2 16l-4 1h-1v1l-11-1c8-3 11-10 14-26zm14 6l6-1-1 5c-5 2-8 1-13-1l-4-9c4 4 8 6 12 6zm9 13l-4 4 1-7 3 3zm-2-7l4 1 7-1-6 5h-1l-1 1-4-5 1-1zm1-7l6 1c5 0 10-3 18-8l-10 11c-7 3-11 4-15 2l1-6zm26-8c3 8 5 12 8 13h2c-5 5-11 8-17 10h-1l-3-1v-8l11-14zm11 14c-2 18-5 30-18 40l-9-9v-1c8 0 9-6 9-19a49 49 0 0 0 18-11zM96 59v-1-5l3 2h1l2-4 5 6-2 8c-2 1-4-2-9-6zm-16-5c4 11 6 15 9 15 2 0 4-2 6-6l1 15c-2 4-3 6-5 6-4 0-10-8-18-21l7-9zm5-11v3l-4 4a1 1 0 0 0-1 0h-1c-6 7-8 7-8 7l1-4 3-9 10-1zm9-5a211 211 0 0 1-4-6l5-1-1 7zm-7 9c0 5 1 8 3 8v1c2 0 3-1 4-3l1 7-6 8c-3-1-6-10-8-16l6-5zm7-6v10c-2 3-3 3-4 3l-2-8 6-5zm-4 1a80 80 0 0 0-4 3l1-3h3zm-1-7l4 4-4 1v-5zm-1-5l-3-4a18 18 0 0 0 11 1v1c-3 2-4 3-8 2zm12 19l-1 4-3-2v-8l4 6zm6-9l11-3c-1 15-3 18-9 18h-1l-4-5h1l5-1c1-2-1-5-3-9zm7-4h1l-10 2h-1v-4l9-7c-1 5-1 7 1 9zm-9 4c1 2 4 7 3 8h-5l-6-7 8-1zm-3-2l-4 1a580 580 0 0 0 4-1zM83 27l4 5c1 7 0 8-1 9l-6 1 1-1c2-3 3-7 2-14zm29 53c-3 1-7 1-14-2l-2-17c4 4 6 6 8 6h1c2-1 3-4 4-8l9 9c-1 6-3 10-6 12zm31 12v-3c-7 12-17 16-39 17l-6-26 10 2 5-1c3-2 5-5 6-12a35 35 0 0 0 24 7v-2c-9 1-16-2-23-7 13-11 16-23 18-42l5-6v-3l-6 7h-3c-3-1-5-5-8-13l5-10h-2l-4 9c-13 10-19 11-26 9l3-18h-2l-3 18c-6 3-11 2-20-7L74 0h-2l3 12c-2 20-6 26-15 28-9-2-17-5-26-11h4c9 0 14-2 19-7s8-12 11-22h-2c-7 25-17 29-35 27-9-7-18-16-29-27H0v1c11 11 21 20 30 26v1c12 38 20 50 36 53l-2 23 1 1 1-1 1-21c10 21 17 30 24 31h2c3 0 7-2 11-5l1 2c7 18 20 28 38 29v-2c-17-1-29-10-37-28l-1-2c15-1 24-3 30-8l8-8z"/></svg>